<mxfile host="Electron" modified="2023-08-11T15:42:45.540Z" agent="Mozilla/5.0 (X11; Linux x86_64) AppleWebKit/537.36 (KHTML, like Gecko) draw.io/21.6.8 Chrome/114.0.5735.289 Electron/25.5.0 Safari/537.36" etag="uc-eHA-PoXGT-214uYv0" version="21.6.8" type="device" pages="3">
  <diagram name="Page-1" id="5gKKY6AXF1D4x0TQr8rf">
    <mxGraphModel dx="607" dy="843" grid="1" gridSize="10" guides="1" tooltips="1" connect="1" arrows="1" fold="1" page="1" pageScale="1" pageWidth="827" pageHeight="1169" math="0" shadow="0">
      <root>
        <mxCell id="0" />
        <mxCell id="1" parent="0" />
        <mxCell id="NP3fSsR0sqH5-8vcrBb5-3" value="" style="rounded=0;whiteSpace=wrap;html=1;fillColor=#1A1A1A;" parent="1" vertex="1">
          <mxGeometry x="1409.3623709025596" y="511.8408695652174" width="318.15895823978445" height="318.15913043478264" as="geometry" />
        </mxCell>
        <mxCell id="NP3fSsR0sqH5-8vcrBb5-18" style="edgeStyle=orthogonalEdgeStyle;rounded=0;orthogonalLoop=1;jettySize=auto;html=1;entryX=0;entryY=0.5;entryDx=0;entryDy=0;strokeWidth=13;" parent="1" source="NP3fSsR0sqH5-8vcrBb5-1" target="NP3fSsR0sqH5-8vcrBb5-3" edge="1">
          <mxGeometry relative="1" as="geometry" />
        </mxCell>
        <mxCell id="NP3fSsR0sqH5-8vcrBb5-1" value="" style="shape=image;verticalLabelPosition=bottom;labelBackgroundColor=default;verticalAlign=top;aspect=fixed;imageAspect=0;image=data:image/webp,UklGRvI+AABXRUJQVlA4WAoAAAAIAAAAPgIAewEAVlA4IAo+AAAQHQGdASo/AnwBPpFEnEslo6Kio7SaeLASCWc/OdUyA/rs6pDf8Dkzlx8rKBQmYZC+lxs1z7+J2sG5TogTwGvpGB13sL69TS8khmuetYWWCva8bepzt3XAehXZRstXzH+m8Bfzz7//d/mn8aF+f5Hwb+537/1v9p/0G1Bfy7+tf7fhKOl/3b0C5zHir2AfzW9h/Cx/Mf879pfgE/qv+W9ZD/Z8wP1/7CHSr/er2kiT8ub1I2dzJiQ0GTEhoMmJDQZMSGgyYkNBkwnQ4rgiU3CMZ3LwodiA8icfMaSML+sOefCjnVAgGSX3frQyHPwN2M1fjGPTaIJHkpyhTqBD1kS3LboAHkm9UCM4x+lSTeqlfqko+3CBDQ5oXtap0MhlJGFrGpkZrvlWElKW6BDxbw9w8eKz83B+YTYOzH2tie4lJR4VkJAeaHFkAH327mcLW6Tlj/TxJGMEwFDxx9UctLorvTfVadPl4RrOjj8kBmDSzlfKCAY3wyAujwIH6VkdxRODmnyAJ4gm6gSHJ/dRHjXRPazkIh7mKDwWAdNzbHzTkXl5chScuL2Y4e5zrkcdbBppAHSS94hE6jwvsyIUxqjAV6n6eoDNJ86Mq2wIARbLwLcX3Nh1Bo782bNrYJsnmYNLByIuPgxPjigG4nYxXRDfwGL0nBLkM1DO+xCxmJ0oDFPKo1syrC7EGKemW4bdBG3vYXob7mnmtz1W+zBT1xK8Ebie/oYo3m/2znpM/f8w7YDY8S8ry71S2Yh46aR7g+Gq0vT7OgbiB9Z9tvd4uwZX1ouAvrtVstiR3+PUNm3nI8+cdFPoSJNo+xdXvd6ot5dg1YwTC8oQmf4ScjwQNNpfWjp/WZAjRMDCQgTimjf5YBNSwYiqbcOsMG4oJZCDwC2ytlgc2K9cporx4AEgU/q9NrhPh0T7bVYjCkADiQeqxOV/h/fTv+0/4OpbXmHUEVDsobYl12U8WZW7tvCKA3e0lPGbQK9Ae3GmPwC1DMCy+SXjlT4Z3AEFW8Zuc2kpUNLMvN781ENZG1p5uqfdThpGJnzKnQmHyZdG3dXxnCuoqa3xuH/lkrhCGitujkNF91vnjh8KpoPJW2BxOTKa4e7OWtvblbKUx9ErkW0Lb6yCZOnGaMPjyDV7lHJGtbRAh/m2oU+gtJqXDnwDrwfLTy7d+tNLpAKBHeNU9ESHq/IsrSpFsz5ncLVIkxx7MsAxGUUUkKkPb9L7OZrhCzAq1J4Du9i6WXXaf3wOvRVwF6igHUD7gnzgV1C88hMo+H+JGMvk8Zu779pnXFu8gniFGBV3FUbo6KiY4/aOTedzNMHCTdgovN0UTmNw/von7NfCAi0bXZ5rl5tofTgMRxNatyK9vr2AytXEnsMg5bjcrBWAF3XAgeIjQkKnDqdJgxVYswt1JrQil6unvciCPTOmTwZ5ZEMU0QiY028J4z8F+yy/BxUPRT2ak0NRDLE/Fk8j/it8mD8DdhxH5xyh6jsbJSH9X7GdUvd20s2CSUX7sJmmo57oWMbAT5TNJnBSusvCLt4rvZ9XYc2Y90iykq8IaU3hU6fNwn7QDCIGZhKIZFJiQ+JKWpHohHx6z9kMxfPu5tT4grmSTuXoRetBr50LGhX8hplgI/SSGDM/Mj1+6f4IhfTQBE+8Fx1lR7v0m90R1sTq6AZledz+9MN8ac/zzbt6TkaOJSr1Z9FS60zgc4ffDZNwEErz0Wtzn5o+33tRvaqLx5IEV8WnjHru4tmFfdQXBY6lTA0SLggbEwzNKNDIdGLEtmiYguHjf6fD15yOt0dYvLfXxBar93DCkcnyxy1aXNor9kDbjLHkWZnv1DVj/v7YM8lrbkHk/UG2dUWpLbNXCQ00gIhSiJV7V2YdcPdLYaBF9MDBFeGglOK1Me8N9wheT8N36g0lw2kG6FLYMD1jPAO6Bcnv/Ugu7XrUtHdfEevKPAu8LnJMc1Q/1qaBZopM6yi6cR+d0rvVzF1iU3FYLPhleGTVrBkedKVoMmJIxJPZJzhhlSImGnNxlbV0LKrVrdtY+xZwyvCN5huTooDo5GFcXzHFhxGulgQGd4WtH3ZUHXetoaM3EyrTRleI5utVb4fUuFnWfatGp5uXD/IYgKE4K/t/Hsin+cFg757r/eFT6ZTAaCFnNFvpdjBoqsSwHgDmn41NyT0sv9o3Ag9FIl+fLgc4VXiyItjEPTrzNUUc1afgIt+bTysdWv59YuSJQZFgOHCeRPB21B6JlD02pNXvcPFL0wdgXH2uB1lwUqR+Vl5zNTskHPTGZXJZ9CqftdvbuO6osJ5Ewbh3wV/vmRJkRx0v+JLfrPyKgNsitfHiRVXsbxsuMN+ido0i/TfvyyDPk/2V8rYW8GvDKqF6v7aSUsxURFVkH7xk3FucCak3zij1h94eYFQdLapPtf8TyEkqS9t0iCTXWmXhZb7NEohs447DeiYGCyoDfB3a2ZBEDWKthoFgo92T0DdkskKdQWzu0SgKnytVEaTgMbv77hs4y7hFRduoIBL2d6pzZtnkrLDt7ECKUa1zACjX9wB+9vo1TDC/zQnQOsHbPAqX9UVPJU36hGgH8viDzTP06+BSwt6K5MVrEPBdvTdEHELnWMEXb2VpUbL/HQjqqUXxjXpxeMaKrM0qP4qVJNEjP7v9R4M2auHCvJ9nRIv2myxrWHG5Y8DlnQd7e2xNztbVFGnwVNdOmLZ2P2MFmvoPVFoW1bI56T4rUdf7K+IXprKlJfruz6o6ZSUcmZLcjf7uyNQIp28hePsq5Vppt3YIVO091joSTMXDizU3+gtg6MCErRbIbu4hB1g49K+2rmfD9N+jnCUlr+7xJu/qRozLer21jgjTHvvE7ueHX5QLkGh7fnetButB34kf0Y8O06kHpM+VBgt/R4M3RgNAI0N8IEtMyYaIJ/lRXHurMNk+NwG65VhZVvQcrMZvPbjzp8eSsV537oaUSrXygfYnNqXtfTwmVapdWiFACWUlLpggH38ZzQ6vV9pfYu+YRah2cP3pK4JbPSzf+rVKKHoD3m6Jg8PH73af8fHvmLiKdqN+uwAA/vG5D/F3NnUrmfrinrAehKAB/QADz96TkTIzHe9QJGMqkGONAAhCAABKoGgmAC5YwXqIUmm84xbJgAEARQUQRjANWtbAbnD0nzNme9P9IGxzr74KNFK7QAABtlosYf7KlszOgE7juA/Zen9OAAADIT4czqBL6BU32r1y98oJ3aH/U5pDQrX5ooFHEWpifz3X18PIgZ/UHlE3bxbo8lukEdfloJPITcJARAyZlE/9u9RyJ6LRdhr6I75tbG2/sBiM8OHsEp9RSi0DeBG4KcnmHwnuktEOzFDp8AIVkBrXWiE7G2j87IAQMXg/PEs2Sz81OzU3ik2Uyny6aHJEUFTYj6UqgxyIkrsw3M4DU2Iq+gDit3v+6V8R6IO45Pa+mILh9au+SiMLGXmTD0/Ss8hL2mU9qtm5eq/cjQK2ILFwOCM2xUZaJaCvivSytKb+2hfzdUBkdpHY7dZ6yAAASDtWvpXAAOhgAV2OTxAF8FCY7Qfe86CduhjezLH5hsDs0tQXUdGzRKj8zCaLCfdZuhJ/2UoB+p0f6H0skbvrJDiB43nj5HY+FvocZN5B1H2ng5caDbT01YkXMtdI14gx91BN5s0ah65VbPo51t4o2t/d+KjACktig7wJQmo0U6P4L5KUYF6GebcEyxfMFxix7WQaQJoLZnJdX/81cQjio1n/Rn0npBhSPC6BH1RQTDClfF5phwFZ0ES/OMsuUGj9gsDWFiueAzZcPdv3ybiiq/uDCJbT8I+mHiHrVodFzZQt6vGWxIniGjTeX/cNyvt1uixOz5OyTifHYS6g50WTb4GYzF5uR0rWwGoxGdOu0faW9O9I8Ie14RSdZdqQCwHW1+7xFIdOhptpTSjRGm+skEWMV5s9GnWwFw2TP0h1kf5r8AAD+AmE50rv1lr6RnXd1nW3uhcGNEZ4BXOPlvjmdVVnFHPFitMpNjyrj/DVuSe1k5ieAL9spILc6rklH2cQ+2ok07fJroPvWFFrcBaYi5ALNIhtycLVp0n9gRArzix5W2JMUV8g1n4yybGQjJw+lRGEkdUxEH4RpDTxEWf7xDggHmzI3YYeVm1QwCj+Vy71zC7jH34BXVP4F2PXgw7o7wwYo4iWhTSotD7scnlIDDDImJWL4cGiclMC1f6BcXq9FJf0Ig6HV9jqgn2OOyAbXTm3gZMtxmNsh0qJgiDc37520uF56k6FbeyEkUAITYC17LBj23YjYwwFljvJSYK1cUrrsC+8Dz0G3Gr2E+vTuulbb009sQ0582Y57VMYWBWKRXiws0KgLmwPSGANFNoESyNiOnb/l+3cUwzhySdlCmbleqfCtIU1tfH5sotCN/WXeVjVBMhRm2P2TRCbm/DnFT5RqFOSjrGETVWH8NIwRzEetZE1WFugHDh+Y9U+fgrMwzrYcdKvBSZ3VZUD6df0S7Lb5cVgKHJneSnupgZwAKwOhcAIwDKdOvV8+USEMkpjThQBMDCbT8eL4G7kEKDkiiCP64Q5VAqmWeJrWGcvQah3XijmXf1QP7fUqLhkxV0aHegFp1fp7kJtSfzJRF38LYYWnzFNb8PcjjIz9nTokOtEtykrJix3GkSdU2zfDAaIiT96CmTpGyhyhABFnnJU8TFLb1i2qluCiKC0blNjkeDUsCzxPtyZZnlYJHEvhu3ymd4SUpM/ZO5nlOhKdEfKmYfcV8JqK34JZEwQVi6/zQ0O3omfn6FcGlH8Unpyfevj/xUTs6po/qp6G6Kc+fVWet/CEJ7daeIM/9mo+GdWGu/lkYdpF21UChOjm9rfHiHs8jS0zRREm69HMM4JAjLFKTfpkbcH7TV0ijS+n3xenfRWU1GsH8JM1GA61//nv/1XSMQvS/HeKCr+axuw/rInr4sIdm8+FPm6+isqGF/f8uYBRHL05Aps9q96XvNoHLjwBb/Ro7E1hyhzUfBJFh6A7/mftVef2xAz9Qc9Ll0SrQwyNN8LfupYK9X6ZDx8qlsli6dPDtJhSXmarEVmD0KrT6u7Srwa+LFP/8f9L2H9WAdh++NOGeZMReQWsf5zq/mVNzGkeIQCeUDwspIq6KZvEt+1tZ4EX693QFnYD9b1D0S//E0y/6Px/1vqRgQDt8w6VtDQVHQixTZz47mIhCI5o9zF68sq0rH5PB9u10fQUsGcKeAADbVBtXZjgHcuC5LcYSbTG4ROGaW8+i31sJYFqbcnMedg7eZx/1RlNoQeFcKWcNLFEKNRnGFsTKaXNnyE68hMkGOxMEUaNCSDA38jfYJ5qaS8fv/RpvAzxDoYioS6derQ7P5jBA3p0HQ3v+JrSfcioczpj9vxtRDAZ19QgouHrQ//nTzBKusvl7lK4hhk4dClTs7ThcN9GewVVWeKn1iZkdq4Q2EQorUdmRYmIYSLhZdW2Das1DeRFE0V5SEbQYn3Wb7CIMV36JNpBtB+URS/IlVP/jRbu5fbAIcW5PZKAPVO0X38mL2gkpxAwsiDgNJ/JxpklTbib5ITo4uOUTKUwP3jBFQm4E3WAGIHNClsqWsp10UxszleZTmd2dZ3Hro804SRrP2PYq51Qk0vkVpLiIjbCPLz4KbuNhwerNU9v9pdRO76EOKmdeTdYKW0aGLX21qCmeLxo30UFaHvyHtphmkNWgwCJiPoicpdu9neb7pGDrwuBibrMAo0lT2SxesC2HinL5/vnwsIt9vK83z1zAKc7SSVu2qBj4F8DUhfh6uwxLrLeRT2JBHEI2KXDz90feowibkbiysRdb7++5Q9K3LN1r1XylWvAcF8SuyvaWSTrXe5BqRVO9VB0HatEw+YYTLh/45rQCrOgdOqHDXBB3sHyNs1J5FmX+4b6AxCMgNxcOqx5fYwbjInZdJ4n64WQcEIZ09EZcY/48R7jIfJ3b13xJ94O+amI+6HaspTqKx2xSz+6oINFS3wf1JxaDRAHAwVK7JYPzclgvCJbzzaqGoKNfJP04ntb5njIysZEIMzCONbPJOvRHOhbcARqEaAJNZtEBzspxBIdtGcJVmyugsygTfPEmXMFJc1nuD96sB7tig/P1FiVjF9sQPrbMrwMWfW13ioybIEgDLPq0unxL9vSf98D2V2YTghZtPMAp3t0djzkFtMOa2w36NfpjOkX3SD5lg7Z9H5hxLaHS/sxCDDzPYUhfI7geMLTXQwWITXGvGRcJ3MGDDmU2yUq5YPPusw5K1jpSvUJiqXLkp7BLPv8l/cNff2pw2axCFwcQ2oY/Fu65vuhX46JD1ZE6vYVAbZ6y62hcWbS/N/llhVCjeSKjL2XWCBOEkdYjlkiJelg2YoOCF9/KlXa4OxzFUuw1zHnFnBTCfgA8Cjhhwy8/087TuvN1pYgfmNZXbBrIokOh1J0KYLseJKGbQHGDzDLEq/7XHXyzf798g7kB4WLlCvfwK04/zYbbyOrAC3clFNcWXYkU2ceyXNuTfuudTRltcGdNU6j0gv4LVuQO8ZwZCeX1xQr7D55KTThoJVrMDjS4QkACRG8CUNO2y2/Re+wsMYU1VI2XGKOJyXMpKTQoR/5BKgR0VsmIjM+V9a9MWb4Z+1Wyzstcz4vBZd7DuQPw6mrlrclstdRUDVOSOIrpqmgQR+DV3pM6CYfb1OV5uVoIux2BRQhuWTV7IsSRmf47jIQcBvOQ0sNaUt2NITZZgx/C6/W3UwW7ceux/oMa7QtrV5qJvWt51EZKDOid1KaMVVNo9r9PZo1jKe8l8VfWLeFjHH1rmmtnaCYK/50u8H0uEJO9CmgCGauq17I7Jnh6YiiT+pGlc+MKuAyV8/2ymH4yd5NmkeK5FzazGzni8Ca+KZ6OIucKA6iGm3CjSJjY6u6C4+tfQVNH+oJhzfNK1cGoIph7i6FaghxIMr1qZyQjgSDb08Gqi/dJl1+zYx20Fapamt9M387Kc/zoGCdneZVlhA1cTAOpYPo1iI3CX9wleDcvoACrYWOnllMW557DGMLDDFWUgAEXV9TWuk/doXKavy1EUaR786RVKCa1lYQzAreDE9/Z8bPIkXcBxj0qPRRjG3BhbufGqD51GaIuXNaILrnNSSxo7GxvORrpRfrYaO1xDc/JG7AXowDt6a1lM2+b5G82RG2xcnLK9/dO5ZGYRjz8KHXy2x2n1FPFHA/xX65ASRuGtvIFf6f41q/yepRo1jZSRhaDpa492CxLu2yJZu5rgahrwFUzW04Rm2uR4G8BItF2C/CO6JVir+g9I14BNeiHSBwziEL5z9yu7i+Qx7HNqOKHtI3iVH42abvnu8pWLsERuHPhYPv6XWw8S7uA7tNsl6nyqOLzapRwHOCO9mXxbytlo/sSrE5zOs1VfXTRBy+wtD8Nsi8x7Np0+p3SeQCvwfdk8D3IUoYQ5iNp0WDmWfTzoJ94xqfC3g1bGUeNLwOMS4C8bDVKqgRTpa2rLQTH+RDg5spbX/khMkESc8eWt6pjQduZHJ/sMlDFfOBFSWZ7gfF6f6RYiZRLzg1M8IAlL/6ztmzp/wJ52I0uf1TxhjYvb5rmUPBXxV3V9FF30PDG+ITHA7Bxn7u/lUr9SuVUoINXt0avgBRDINQ49JiWG4VwC8tH/ubnN1jtTKD10Ez9yoK8x4lzo27xBVpRFAyzABX+cbF2gAJiO5AcOYz6J+aE0tBaosvFxCYJ5lACtLj6mtl4sJwoDMlA5un0CkVrh7S6asNeVuidUXuv5O7oIMw67jMide+avrZpI7MEYjrgVAx7CZB+ebabZ8Y/j5RLSQS40QReqMKfybMexof6KhtWBYWzVtHk674Dna6my3ys50unhD25hVfI0ZPEUZ/E91DqtF6vNxzpjrhZ/qlhduiKlL5o/0t0hEiktZEfyYB/DOfIsikdHevCKal70kGWp0X9WTeof8xjTKJz44AUXk8P8owkFLVvbslA/xy/7OrNWnCxS2NwhqR4PkC8Z8ynELcTYq3s+HfFEmivhQLDNwARJgyTXJ0gms1AiQRlL4qOW4qiQwKlKbMbAkSLm/V6XHojToUgSsUtPyXJJhMw03QjMmIsAt8fBNooWM5UjvgDtQsWpdba47xJGF5aHiN1Zel34jGl/oBjJH/faVxagzWaxAPB0p0Eahh1x9gsHmtbOT1RWoCx4f3yCNji/e04ubhKNbihO9pCa6ycKnv4REjIF2PTxbcuqKcYebpOSad+PxKru8efibaCfz+mQVPqiGqLmipNbffglsmANOO5sjJ6tOXHFE5yTkCXVzxnKowqePv70vcTHQEfSv30ntnfFzwbQJOap8dddidcmEXqCHBXEdwN7xxovmE0mcGcfl+2b2txo9PkFF7M5mRSG/XU3pWklTSGj8BDhr7P54aEV9X6xWf2Mr9p4mDoJu8co64ftzmGyTnPcQEGT7AN94URoTQ3Ewf2hK8ubpmGVhjjnkAiAIKWYZuhuVty/TJpkclyyqPBaLmoqOnphRsAAXB8yOBb8N4z8RQQezKHEOc5PBmda69x0qk4/MWONTieArPOXAJywlcHe7S/+9l2g1KtUlGCQ8j2VAvtUl2MzC183/z02sY4p9KNF2crE9tYvYb3ZPP60QAImm1bAuQdVtU+Ds/cb32pD++uhSNH6cG+ESQHU7CvRl5PMcCkS2TCstR57NxD3d4eILEoipEIBpYypA8yV5eAMHMKpTBviwcLB19Kvwb/XVnFor6U5l/buwjg9kCW0/Z1ggq4G4edE9YctFmjMpgCJXrYL+kdRGrST1RDgSa7GW9HMU/oSs0UFCpm/epbA5oReGVaEJI1mtEIlduzw26MZMovqxAd7uT8O27oMU7KzCd6KGxhkXGkxA2j6meiKt51LP3yc4fOMOZIfakDvUKzznB93QbBQ0KtD5VQbpy5r0pvCQQPWMFj8LgWQCDQcmIuzdQR28H1d+G+jIKbTQ9l6YUjzKV+gITy0f8UYce7dqtEJsPsB0FeKMY65ad3b8yktURxzTU62jFrl7XawYLRYED50gb8VewhRikMSe7yFi5awx94t92rkpugJvTnqw2YLtgd9LFgRaVuBQfemPSOfAAKDFXPkkSU95qgDy7yQtmCK3y9qXU/I2qpXIn28BAtEMp0J+Z/IdPudcUShB2GVTQ9WlWq0RYJRfujH4ILeH6vvCel0gclpm+0P2V57om1NfHwzX1iwPYw9wCGflCrtUiO82ov8Q5So+7H3yCgFRGtQaQsxbLt0OWufcyTK5JuH9X/11Q2jOE79KFRKH1Pl/E14VcsOaC3k8jhPaN9piewNwAHOgaeyb850wuvW8e7c/2AkwosbYXjIBV1fLub7nNeeQv0coo3wYsADRUldf8NKCwjOGQAjm5nLhQX7GAwbYx2ZbFMb++asN4qxIqJpPEy53lVdV4C0SolIXyWkKX+47LDqKRtBWCbc38RT5dgZynTDhWqbpSmMKi8rMZbU/IRv627De69tNwPlkwriXz1NA5MZt/JShbUEvojp9/TMmJTqk8GPO7U18JFwHbiAOBfAL6ixIfhKSEvO83+mgciQsKVC6TKapRUEpHBIWhjYBsZ9Novv6XkqW425rVxJaz/1JtAD5Z2+p5EiDCUHcPo+q3rvhzXH42kkiHplRWZorSwdBDC77VXY2qV9vvtqtFBwVjZuGOavyTIUE+1jCeSihRMbRD9VI2ZD0x0KL9imzVlluRp4g1OoNLLN/J3kLqiXoYtkha8E8AhIOnu9br9IpbZXam63y3/o+RtteJdAE9HW1rxik2FJGbVyuwv4fiC9Ww4Hy4H8bANjp92us/9NwylDe7kcE3qK95l1wrIh45GJpvWgk6c+mxyP5QApeTJg57dcoKGaWhzQ7cQ7UwVdVpS2yRksP/ehoX6YReTlJ2K0jlRG9KhVHN06zX5Fcb9wGXzS9soENmqxZYFUN+OIQnBlwUYbuMyaDkx94RF6KQAXuR8YM8foJdYGNO4pvWJ6QW8nw5IHIBNmz/UcaOtvHrHOstwsjeDLFS052czxffb640CpsDfP9wkBRPqWeqiIJwHJ1E9rvQ7kGLGzuQSw72H8RsKNCeKWM9Jr9U99PCQ0IBoA2u6mUzxaQejqwnJlrUg5//ZXb1JIZTBze7lbSw2RLJ/455ZvocNTjqU67MFjVJP28Xeqjhx6au8ZlJlhROl2EF1csqbj3IkMX+EwSLotSbZJb+swcjvCmkvvk6sKOEc+uriOZqyOkwP+8UZl6pm6LXKRojuuSGqBvW08EQeXCFBsdVulN4FqBaeYMpwykr6+GdkXwfuRwrj2TUmrqcJb+3XEBiYKSGjFkT14LmQzG3SwTM6tIr/G7QzF5HBa6nBfw8CfFHQ8tjA6b0E3T0PpaYba7+MWGKnpCKTOueG03MBKNzyOwflz/2DPemWF8USreKBr8L5957+7PbWsZv4yekhl5EZh4NgyYq5c1bUDA8pSW14xd4fUxKDeNZUILpzVmh6JJlWeahxFJMtMgpUM40bQO9dhlaI/spMnauzsSeX1c47SOdueOI4k+irLyGO/7Y1P1BQj5g7Ltx2ErbAXbLZ4Lcr4UOWV8KaOWqcyPmDHgsFz78yYXFsyqJHRHD5EzfOBNX7OP8T2jAYVgsea9cAq13mWlkIT0WOAti3Meo9U1nfspX+ftRHkCY3zSz48fpWqBP9fbtzCXrLRVLvgNkZbNKZQICswRuEk3vzzZvmb2s8bp34nfpZ4pz53JOcEO6F9/V6/MtXbTYnnPbA8fYBncC/2MsDItAYRmR+tgQJQ15ilkackQclePWKaqrUT+S50Mff9LiXG1s9r35pNzx6MeRAINjbuPs0ZT8wwe1UKiN/JRDKeTfybJR/BFaeSTkxoJzvTi99XrKl6v921NXKfxRHcWJA1twhwxZ8kKnyag0AsECXNNILkIVBqc9albF1h6JDaolGDRTG/16n4R25GUfnXKqILuEZ6SEY9NPGDtlILgBOytAokqw2AraTs+1E8ZlscJdX7aF0DiPrVbEmpbMCo1B0ZRqSevFuQaTHYI9ovd1MvWco8VnAxVsYIgWhrrZ12PzGVzTu/wvcU/UdhxiZKbPEGM6Tx/g/kXxHggGzsemjfyFeDK7+4OZwK5iMvJfE2V+GSR491soUkcX7XQyWo7HhgLN92NFIJokksN/BviE61zHj0jXv6r0+GwwawQ2ytzq+IZcZXajuOE5k5MQ+3b9EmC0b+PsLuna6JVFmNAKF1//oNqU7uaTr8KAhT5Llw1rT+3oRqOckDt+Kc9rSTD2ljDnqs9joBAlM19Neh/296MVKR/eVBfucMRy6l3URVMmXt2KXhjBYeIuibzPB1hGKiNLrk5+lHgn/FfbCn4Vzlz6Jchgr7u2eF09F+/JhKRpBne20F4JJuVIo/LkTaMKRF2jHTtVZYc/GP8L/urIR9YkXcpvoQNDNERYj08ZRm4/v5uyzMM4d7c+48qxebd/rMxe3CPD14SAPTLjBcMUHjTjlipbpn2sefncmzBfOSENaL6k64M2hOCmJoEavxfEJS2fFZrkbcZZfXIPCAmnr6SZhBS1q3nxKQrkJp1yub6AoCWTBwsR7j8spWaU2ihjA+PL+QSC6y45+YtVb/CNHs8PPdlLiFM0Y3uIp25hUU8ByOG23j2hBZ0nNl6I3/qhdIDwc9PXB60myb8J+fDWFwqAeSZb/DHxQc9gbBIfuZbkQMtNL9NoZwtzy8AQhMZ76GVJnm0hfPGzSmgqkjYIz/pCf8zwX2iI3mDZEZ7MFMp5Cj1t2XHmvge+dzByZSwTvVuKCV4dSkD0YRGXuW4cZ9spdX+yoJZGYzbGmzlU9JIdGxggIvFl4Vh+n3ED0EebYDH2+b0FCZjqSX5S+6PXKvxMOCQcALuOxRMO6DtkD5c6aMbr49RybvIYL2poal2RxtvcpMciaqAwG+I+ZTo6Keup3+oJswDZaRX4w7tj9YDN31M+45Xv4ZrJxsISYZKWShUFYPZZ1tzjQqK91xO5nBBn3r+c+IWZHPmfVxHd91yfocSVNmgwfM1HXCftcB+F/fxZ6umSF+/foj8Hexl/MqgPW20VWL3V+gsh+2gXM4ULw1JyrvKpa3QmZH4cv7xfqtK/2mQ8so3M4slKa6XLxTKkUrXZOFaRXHcsfdAxUm1qm12SA5T2NciAgFwcpAB1Q8u0ZFHBtubJkRfrrSyS7JMLi/0xm5/rNqctTiwyh32sis7VzyxgI3quWfHkP1CMDZgI/iqwL1qvi8c/DPKpEUNvXvbHP5IxZB09EsnrT6+2n63RNOJX3AE8OVk+ar/itvzuG8sAUUv2FwnroFmF8YetFZ9pjGXR92ytxBfP4ypel601j/V5nbHSH0nS9IajuDRUbzp+vGOZIUrm5AROWKYwOSO3kULyufpsMAp+wPcMSYQbZTF+PUNxxNdISvv55NmAbZn0hY1FaaXEbfcqXhiVKuxs4xvVffTOeNH2RzCVQ/hnvn7/eirG2N4+ABIvFtimPpOgyd6BXtmsRT3nXyny8RFF1rg7AICVcsTHis4fiLdAIqXtIZxz6SGdjOKiY+OCbYOkpRZgK0S56wYCaPcsdD9nNNKhau5tF7ug65Ejf+lvBlPITEICTRZXwznMeMDMxFwcj0VJKId1Yyyy+aYjgjmWrfJAky3n4PrHlWkVJOlS/FI1gUKknI1UEnWR2g2QS/xFnkUWlHK1WZZDRu8Pc8WngydKJC+v1V5KCA1GA/X/xS+2CyMQSvwWb1+9RZZvu67FZ+6kjTQlaNlTPWvEja+TufH8IHQ1jn1f6A8PEYRyi8tK1tVVzOhhPggSCQz1YENrfTnJ5uPnUoQatluO4h8Fnxh95lDYTcoTmwoNO8ucPGo9ktRu7bEQWkGnngqtH52c7/2Qqz62SXRv8fWM72/wG5Yb0OlqfT69e4gzuCZDglI94Zdlj83KxaJKwX/Jy3uv0rp22HY91SewiaPpy/2nUw9QmUOnti9c4/Lxt0ThdJ1ycCHyiHbtW0sf0vsbmbm5fRTKPy1Vq0wbNOVeckaTz6gxDzwbzbQu+4D4fD318/y9rSfds8TmuQ326+F4bBgST5+5d/B9C/uJdHDk7IY4OqmafdNZMHjXp2HqWktypTzuhrG2Q7N1NkTLYBPcVK/6S9ZpktGGu5/1CmtHUOsP9Lyc2H/r/w/YGYB+EgJGm2y7yRdr6G+mjFW8Ai4HC27kTl4Vbi5aCcNjqNPqQwLpYAQrMwKjdNaeWD0x6+SusrymO2WEvwz0VIcRu0Z8fS0IYSDXUwDZj7hxAEXhYZJjab+QV/G77v//yhZVCXHZotOiIKmfz1PhYc+ggHwKkgV/hGkWsFHkwCDqIYZjdcKLvfrsDD+gnqVY0VX4afdFX8uoojKkvzY0W4ZXWcaZroGozB8xUGbdiXnMSzad/o9UygPhitztBwFdKnNMYOZVkmgS6STTncOzjFDQ17dnrbPtq4s5fwWCxXDI6lfYR+0nwDe9Wg1zyw+SBYJlj1zIBdquv3e07v8Wvprqie0Iu/SpDx/xdfTRia9tech5OTIN0RZUeE4NjE8JPj7XQBME0yUnnZUGEiaoV2SNY5IVtzgWWGKIC0TXgqTvDBPgWRhAArWYD9KeCv/ToH8Krvs/wNgGk3j5sqiV9IMHOaN/ZWTJJ/FaRv8SJuUwCpzXbRfa9skL6a3a904Xgja99lmQk4uIryTDY89QGx5R2efmeWQ9IwQqdftT5F4VHzmyuRGPnVuRI1VK6VTlHAzqxXsY0fzt+BOYe7rM9qCQ+nnoVTQ1HklyNdcJQEEkc/7BC5c1Qk7ANy8NdSGoG7hHLeIm7Y96eO6YodqiNlRFOOAmucwaaY4flXQDjVFoHDMcylaGmsq45dZcIDg98uZ7CJAv2fAwVtmyod+VrJHijCJbIo7WNMqWNNPTfWLv2gPLfz9Kw3LN9inkBZdH077Kv+7fovoW4/OLcZyRL5cwZvQekyvb56H4ljhD0t6+seepBxcBF2Fx+llLvPKZ789CrxNV7klysc9GSY0gbspMazKDF643QMZg7w4exsSwe7lXjB3EB9SwS35QV61jENtLje67TEX6FNmVgr1T45e2hB0AO3yhUKC+a94GUhgYDf685XwoxGbJUTd9bN1oTody1fUn1Zy49YjZlMZMK2yz7lYqmPc/tvUxgD6q+ENXi02fUWGRKwS8RKi6Zxd0oXQUvFWVuF+bNsjS5FtMqQJ1g39JjvV2KkBPULS9n8DteN5cNB5yyg9b3LqPEtScNzMFzMyAcW7q6F0Hf+H7ikNPXHFf9tW1zgm9vHLkzw2WJHy4Da04Z5ACM1VHrjwmwHcMWrGl+LrwF3DIidduSLQzhUu/X80oNPGfrufRj1DsLfCtKTuFCvEeI8hsGercAq8QAPvWf4vjofbIJ9vw7NVJeNBhDVU1oNV+40wBy/JhJWBOZNFd1ur//T5017476r5AGzj6YfnKnqzxzcfr9vYZLWy/Jey3c6tSat3tB6OALca8WB/DWFVQeor3+/kpGlKsPX2nrdZgjsg0991rk9QvHkbzC9mAR16XEGbWNqaW8xwKA+Gl6nbGXqUFUo8gauhzc3MQEPg+YeTIXid57srrZyVlIMHt+h+vyuEavlLlmdbIP5kmEHQkxrPHb3yB9Fzw69ic9rAAKVK9SI2EIe2rtRCGpw7TIk8docjnZ2F9Lzvw/FiKpYVriTWfP+OQMHYGQ0WScF5/xPgHx73HnxsCcIQuJZdTDhB0SWS2yCqvAC4A122J6j38Xy/K84ytEhzzDXphgU5AdOlR5GD9jWvcwzH5AR9TJ9TtkHhPs/vSjk6ea/l6zfEJIHbkHO6yKbNwygdpq6AB6oivoiZ2LKRkI2nlK9hRmEN610t3HJlYFnyE9NPULiNDn+n1IpkWopGMPvO0xifU/SXz6Y55ZB94+xZtnSu2aL0v685HoNIf7eYAo28OakHwiEyw8Dwq/pyZZEKQdiWBxOEhChs5CYkI/Iv08sqTaU7koo0to9o00CPJUePScaVF8DBh7mi7L8idWv84neCLqWD8ObOxVtyBOcDy3YiYvYOTwuaMQUDHirWBRxW+Bqbsn5GAbWA5bmLlK96/2iF1m9QmzoZsGBWwRAPsSyy97GY5lFe859Jype9dFgF0P8N/pl4g9D+laRE48koZscvGHFPEfOrhbVd5gqJf2jrtqLGaM82eQo2PBYR34EsHRBv5WX1UnP5aZ4PsDuvPgQPH8zrDm4xU4vU+bF3/ux0cVthTEDWmaijhH0V1lxsQ0BHTglVygO4ZlfF8wLjp14JwcLtxbXtMEZQdrKVp9yQjeBFods6UOBrnRpNlf3Dxvfqc+ECZ1G8qMaZ+gVNF7QSuT5/mcOpVI7OZZTHDxp4h4f+0qDOFLfeUBJII0BFpVFe6xp39uwaCO5cPOJpdLzEqVDr/9uxIKf64SAK0sbVzd88jAe0BGt5J0GRytnoVh+W6SMX754Wzkv5bsEiBFs/jNAcuW+PgrI4czicCBGM42fQgqXYa3Ne+nZeeDSQJUI0q9d9CzmKDBpEhLNIb92IyR9y1zZoCwLNM2+SQa38w2SJCKhul5OwnQ+hcHQqZHzh08PRKnPuKXnL66WyT95SN9OlWbWe6mWcGHDQpncOUstNua45t9uH1pt3KCVTrGnGtbiym4L22bxlmGPeaNpiqLJI8NtoRUgmGe3pjt06t9EnhxGVST7y2sAwTNxmSfnMnK0r1o+Tr+07npYoMD8kSFM4H1FPMaPLwKwL2wJKREYCRq94NHPFZjeQCKzk5VZ7gOftON3Y/XU1TSAaRhqOfqfMeA5QWub3FQoWbOp7lqN0S0bIG3AzTzCRBZ+ZMJkscOftiFfZq7pe/hOqbVlqxTAp3xXi84+T1rzr6R3osoCu+A5hVX8PX62DqesUBn1fAJCdXWPzDK2wHOW5k5m9huGbWB4+4m6byEJ1h8gyFbNqLVSS3cVOacdFuWWeAjUJpXmGHGNsHUxziQgr2iBlKCThkiEc1YUgSxBgwBPqmDkiLdpbffYDOtYlsLzhxryc9zTIvIvgJfnieuM1R7F8mMNT/KzHFBZrRKQauq7RzKAUw+XIsNzjUJBiOjHHIAc/kR4qwljSkFp051s/TZZFM/MdTDkZIbwxwLcTm2Z3wE2urTq4Wj7uuVTGmof1U6aP6KFJXcRcabetAGMSpgjaTWqk/O+lLfYJ1XHeTIqvUcn6NEMhnIs32qdyh4XDOWM+JhYevNQeYjKTOKcnmaAIXPkc/f9q6QfvXV4JZ9+UdsEkyARN1AiM40KdfRZdB2Sv0Hu154URGFxSpTIujPPsZ6FhTtc96IQHRDj6B87wOGY+tfP7UqoMvJ+ngWG+lNwHFdsfgxep+i+FBVRgnuKdQ98BMEg+544pC0qiB6oLNhVZpAkhbp+21usUTn5JNTWw48d7sxgRM/PNqDJtMDHPMl6343KvtOPlG2WMqvQq2RY77alHOmT2pwoLUxe6cADKC6EMxnrxtlyYiy+4PUCCfhqC5WnXapCD72cv+RrOKz9ln9lhH5HIncZaSInbS6Fcf6orFGTs53bmEB2esl3R0+R/kZKiyA8/sX7pSoT6943JgXa8V/Wg19v4rw/iq+5jA7io53hyPtbufkdYfy4kHbPxgcpnetXs7VhVnAZT3XSUmFP8Y6gVwyJA/oJM7loVjB/7Dy+rFw/R2Wiu0Q7sDOAmmOTvMuo4s1G3wpTobbhNaNFnK7tqWF75PLgppg148h21kFt7TfK07WtbXTfzdtp7IpmEn7IclSMK2bJdk1FlSp+eEXFKRCIeTJu24vHVD9rPKxJtyyNoWHydnCU/YZjYldJVxFJwKcqWK1lnqQW2jlL9hKP6h/AOz8Mohj88Yin89nwKPyzygi0AKAJpUjghHkoFHvyiURFm9n064N/MNZhrbVdb+zbUVfxAJHVD8zKqEC6abd//KPVRuoCuBrWe4WwAgP7RkmWcbUMNdBiOi+7QE+QqXpaI3kBQv3IdbnhLNRPV5zoGFQ1H9LDq+f0ZWWH2bMyljGPjlv4kwFJyXAFkMKSb/2vkzE2T2gdPW4bRnpKBlE+7Rg+qNFn/bJD9ix7a4oZubi9HyktLZmv8TbUI2RXbXpubXM1NX+vsu7XJNZDJ1nW2h2J2CDDbE3CY6pYlSaCKzXM58nCVL90lxV9Qf8WFgJQPI1ddXRoqAXWOROYWcnFgvl2vQu0MwO+qe2AxgEwEdhXG1giS9tzV1+nN7FAepWi/FKzLGBZkf+FarAByFWYcaodcPGaNf6Ng8+gxs49ovrFIJ4jBWo7qJc+6dwcVPeVhhON7OcKPDdvPyGNczZtwR4Cs3FsOXb8HcBZmz754NwYj+KYYIuY7aH+y706H5pl7wCfXz+5Yr5VFUgp14Vv6bnKP9+s65WZo/Zfrb7G+zX2w7bQrgYKTdR8BZMgI+lO+jYwKKKZ664GZ1DUuEgiFYOZz1lwXbpIXezFWkv5h35lH7dQnq5OrcnyD9GfeIJuqP3w4iJcmcFrsD52OICO4ra9P2BJDuJHi6q77RJSqHQc7gImqLBq+kIFfIaevarxlbWu0pPXfZ7h+LZ6koVXC+JX/EbPB9XVWWfOMx1FNlJi1ieYxyAkTCtEPzHp7l9LgLtfXVAIohUgC02ETtHfe8g7gQC+Z76Y5b2UmSZWUFIXkIL+rxmnDjo2nWYSSqT0moDWqfBdtLbC0ggxagSCGbnSwq5zoXkB/TLZXJGRPxOkpozWyzpS97U+uEYNheEcDGonnnjpFLzqPyQAygOWR2YKL8UYlDBJylXbUqAuWZefeblrti5KUAo1LLldQ8whMyyo0qhl3tcAEsK7kUPefMLqKqDgLVmrlj+ocELwRfpUIpzRW1nMyz4jnhqEDYuQ5bErlV/QzHrx9SxXk7B/MmEK1w01sHQCwdvkZdMMXSobF70O9IwfG37+l+VN5bjuJgitiCHh4kkaywr5pjwA+1ctIORHfvbgY3H2Wx8XMwsWwO+1rHhk0O10jY6tHMtRox2pvUKusgyA8NDbfEIzTIxB9B4EOGDCsDjK77rNCZVwLlzH2H1yQI+36PHYi6GGYN6xAGuUzoTu2wrHYVY8cxxCWXEuR4gCP+h4cnPnjupN9/Zcw5Lmdp7gF6ipjJ+cgAlLDxPKT+JKAKZwOvKoZIdSQ/Lec5g237AJG7bUBk0eJczIUD3k+nrHcF2NEzAfK3op4B+nG39vvnFDbsQaAcwmp2494/XIRlkwPue2SylHBmt1Qb4dSSYxG+hadA+bsE0EqSyO7TlnWrRppqADhmjXAiIehGG980fciu9hdNcBcmQ23+iKKAy8OR/f8YxqAJL4c5alw6PwMtO9BVZ/3nJSJL+VD7hzePrXt2Z1QVhwCs1rghi+8K5pn8PyF5GrUXheul4v6hP4GGKsETb3GAa9iP2Kn80r+QoYpnPn8cUt0zapxgZZattzb9UtfFWhNYeouJpf0CJXzpQFf+/WRlYZM+90BnuUoUATSvtpEEQXSq4CbuHmbb3rl26zbDWLVxeDc2PvvjI7rQ7mG8wijkaTptFXUfo35lzmofBNukShFGNDZsE4tTM++au/BY4zMf2tRddo5+5tvp/pI+zXM7mjXkO9Bch3ZkYaQRKa7SzfKDT28122qZnv4fBbKyq1A05B905xxgF2Yald6oFXnaoN4yzdL88PovOtqOyasmGitFR3HOR5DXEX9x8P4CgsxGegJYSSj61MNKYKki4TJjVC4DcAL4roS6vwDJUWcHXOQAO+AkBS5BjbzrI/bDAJLstUg0xtiFjprRzb8DklXUOctAy2Xe/HVOok5Dv/Fhs32ZcYdHDt49nVJEQ6V25Qgxfg43Ky0+VyHamXXJwQyVd373FV7PkLOJVuIHTBdrX1uDr9qfNxfS87gn6RYpVCxSgNuXAGg0lRv0yyrv4GyqKUy/9sCpuOSwIs0U8EzGEKdnfZboDT62MxjslYP+GeJejmVEdevzh2phtVnq1rj35WMM+9rj9OX07+BcD6Qn+G1HlyL3xRG5cbdZqTtG2fVBzh8d0U7hMBFICG7NnIpMTdweEIbX2lBLv56ZF+uqEf/ckC46FFhALnP4YwtUvDqRuytsF1WrqBOIo+phurJk5EREizkwkqdRjpAJmgk2M1/iq8p6Fdx0aTrjFRhvdRxv+pOYZQ7ImN8D9QGW5WYelbsRlbbUvPgJtvFIuu4u7T1FPNgBAp9/Nnec1ccYfjf+cSlcGGqhjn6g40Ro4kc4WKvS8fpiCfRFebGqEWErs+lKDHBWAuGplorPjbBDAzkUBz7598BajaS1clqGxUlPrVLEgnlziH/5vXkhxjhDdD7+Eno4weUkL7IvY/9yfxWyQ9lxt56n8ZXkERtHP4702vc3fOF4dCONzige2Yc/IHWreK3Wtc3l7hO0Xyvuk8ucQtU4bSz445eAFT9IuEsQJ7VJk9PSmO40zlz2RCkNraZeFfDCbFQniZzHUwUkcx+B315FZgZlCMwVmpXAPZXfv5PebPuQgasabm1DWEqQVyWGYsiJqF0bBSjzz4f0P4RoEXNXeWSnki109RkXS6XZLcV3QnY2Q2DGbFp2ePV/v7h/Wm4MmvPEXZuu2Xs0L5X70K94xCHydkCDruWDYVGSfNAHsZg4kErnyaZPIjIwr8ncrYbo1MABq/29C62gMbXXAofGu5LFQBwrzMEdMhTRs47Vxk9pMY63dYeJNXRWpLOTMpNjrOYoapg6NIhbKcM2Auf5XSpJeow7FKgYxwOz6MqEdAPudxD+ohQs5XE/oQRiVRq6+W5ILoQApneKeCfhgfExUUB6vu+QoyXpclLsD/9aAMwrOFtGqxOWlm8/KalWbqjLY1A9izZHtwX8CIeVeYOBpFJ7gBvLbSJ24oXYAzj+oXtETkwOIlt+YVVAJ+16OJm5kgvb+CqyhC0s4LFTjMRoUeEWro7GNqqLHpWsOuAsmaGWltbbgUW080YccZuaWyOM5a/fBSoGY+UAWHLqLcDkv7tdEBDBo6c2OSTNwDQ+8Pqgvn4dUdRbiBNb5o6W6Z3hXBcgzRLvvTdVj5f6mASCePjlBkHJ4retPhQVCkPnTMapQlFwRBaIZo8JiG9A+Lsqu4Jw4wRkd/2xtDa0rHbpMMb8NPa38zruaHP3JNPACMfCqLntxtJmTCtRghq5Yn6Y302hZEcvE00XQ+ugOMq3gy/EISifpBR5fw5XQcsgj+eZR1z2dRR8BAd4U3ZfNjBph8ARG82g7Nj5GFP5T7ysrtwidRWdvApUZfzONv2SG1OB8je8SM9as5+o92VEKPD+5O+uWLREcuF5b0O2jXpzJgpsNq3we5p7gKbVnkCweiU3UMpv1l4EswQLeLWn+MV2yvMWpzchXCS6jB37lukKO6+4oBJSdm4hnQQGV3x+kiJAXcPg1SgIw+bnku/1bCAErkozdTodZE8Hm1TuJrGCjOEB72D+3fdrQa/ctfRNN9dV6oyJyhTaVYVaBOH3SKNnvkkjcPG5yC00Hj8MDG5bMGH2ueV/lwaxqpTuTYP33jjDSOa3JK2tSuN2p/0o+caxiBZ3zsnnFSTyVicnlxbnjLq34PHnAw2pvF0Y/NQaSnEjsIa9/d3Z3U65HhfV5HEKUTILiM9WViLbSq91zEBQJlePkLQrVhDtZ75DdD2e2yiZpuLjz7QS456Y/UBkV+fP5Z7CYsv5FCtDp681fEdQw5QO5Ib74zQnsOzJsumyrwTXe+eblRgA/BY5iHJqnqO7DJkqIiJdlqvvLoRRolX1wX988MmOjZ+BVO/Gcy5FoCEBQfVkqtNfJBoGIxFdRSYQe1Jpm1CB6l2mAZF3n6xarS83tYJ8KjCvGn0+g3X3R/+5o8YB1dXvrJ1oEAXAVF+orSrimsEJsK3USHWLJLBvQahWHzwCzHpCIozi2wqKKI+Om+Y/eTWn0kpgC3kl0+0mN3j7Eqew4bLc1F2uftuol2rLbaW9Id2epKM/PLLl5UXawcF432i5rKmd90Dgu30yfiia5a4nCrHJf2V/sG0OaUDtfwG9R+a+2WboG8++jIM8TtEmkeJjuU/637GeQTQs3QqfnBYEMw8I60wjaxgoiZBXGeWLfAyvImy8T78CGXRhlab5eVj7JKzgtr8OljFTBCDiqyF7HYCCARVNPVcK52kyp47jyo4TxAlFv6vPsvz2EWgAABFWElGwgAAAEV4aWYAAElJKgAIAAAABwASAQMAAQAAAAEAAAAaAQUAAQAAAGIAAAAbAQUAAQAAAGoAAAAoAQMAAQAAAAIAAAAxAQIABwAAAHIAAAASAgMAAgAAAAEAAQBphwQAAQAAAHoAAAAAAAAASAAAAAEAAABIAAAAAQAAAEdvb2dsZQAABQAAkAcABAAAADAyMjAAoAcABAAAADAxMDABoAMAAQAAAP//AAACoAQAAQAAAD8CAAADoAQAAQAAAHwBAAAAAAAA;clipPath=inset(0.51% 2.33% 5.56% 35.67%);" parent="1" vertex="1">
          <mxGeometry x="970" y="526.9913043478261" width="287.85660027790647" height="287.85660027790647" as="geometry" />
        </mxCell>
        <mxCell id="NP3fSsR0sqH5-8vcrBb5-2" value="" style="shape=image;verticalLabelPosition=bottom;labelBackgroundColor=default;verticalAlign=top;aspect=fixed;imageAspect=0;image=data:image/webp,UklGRvI+AABXRUJQVlA4WAoAAAAIAAAAPgIAewEAVlA4IAo+AAAQHQGdASo/AnwBPpFEnEslo6Kio7SaeLASCWc/OdUyA/rs6pDf8Dkzlx8rKBQmYZC+lxs1z7+J2sG5TogTwGvpGB13sL69TS8khmuetYWWCva8bepzt3XAehXZRstXzH+m8Bfzz7//d/mn8aF+f5Hwb+537/1v9p/0G1Bfy7+tf7fhKOl/3b0C5zHir2AfzW9h/Cx/Mf879pfgE/qv+W9ZD/Z8wP1/7CHSr/er2kiT8ub1I2dzJiQ0GTEhoMmJDQZMSGgyYkNBkwnQ4rgiU3CMZ3LwodiA8icfMaSML+sOefCjnVAgGSX3frQyHPwN2M1fjGPTaIJHkpyhTqBD1kS3LboAHkm9UCM4x+lSTeqlfqko+3CBDQ5oXtap0MhlJGFrGpkZrvlWElKW6BDxbw9w8eKz83B+YTYOzH2tie4lJR4VkJAeaHFkAH327mcLW6Tlj/TxJGMEwFDxx9UctLorvTfVadPl4RrOjj8kBmDSzlfKCAY3wyAujwIH6VkdxRODmnyAJ4gm6gSHJ/dRHjXRPazkIh7mKDwWAdNzbHzTkXl5chScuL2Y4e5zrkcdbBppAHSS94hE6jwvsyIUxqjAV6n6eoDNJ86Mq2wIARbLwLcX3Nh1Bo782bNrYJsnmYNLByIuPgxPjigG4nYxXRDfwGL0nBLkM1DO+xCxmJ0oDFPKo1syrC7EGKemW4bdBG3vYXob7mnmtz1W+zBT1xK8Ebie/oYo3m/2znpM/f8w7YDY8S8ry71S2Yh46aR7g+Gq0vT7OgbiB9Z9tvd4uwZX1ouAvrtVstiR3+PUNm3nI8+cdFPoSJNo+xdXvd6ot5dg1YwTC8oQmf4ScjwQNNpfWjp/WZAjRMDCQgTimjf5YBNSwYiqbcOsMG4oJZCDwC2ytlgc2K9cporx4AEgU/q9NrhPh0T7bVYjCkADiQeqxOV/h/fTv+0/4OpbXmHUEVDsobYl12U8WZW7tvCKA3e0lPGbQK9Ae3GmPwC1DMCy+SXjlT4Z3AEFW8Zuc2kpUNLMvN781ENZG1p5uqfdThpGJnzKnQmHyZdG3dXxnCuoqa3xuH/lkrhCGitujkNF91vnjh8KpoPJW2BxOTKa4e7OWtvblbKUx9ErkW0Lb6yCZOnGaMPjyDV7lHJGtbRAh/m2oU+gtJqXDnwDrwfLTy7d+tNLpAKBHeNU9ESHq/IsrSpFsz5ncLVIkxx7MsAxGUUUkKkPb9L7OZrhCzAq1J4Du9i6WXXaf3wOvRVwF6igHUD7gnzgV1C88hMo+H+JGMvk8Zu779pnXFu8gniFGBV3FUbo6KiY4/aOTedzNMHCTdgovN0UTmNw/von7NfCAi0bXZ5rl5tofTgMRxNatyK9vr2AytXEnsMg5bjcrBWAF3XAgeIjQkKnDqdJgxVYswt1JrQil6unvciCPTOmTwZ5ZEMU0QiY028J4z8F+yy/BxUPRT2ak0NRDLE/Fk8j/it8mD8DdhxH5xyh6jsbJSH9X7GdUvd20s2CSUX7sJmmo57oWMbAT5TNJnBSusvCLt4rvZ9XYc2Y90iykq8IaU3hU6fNwn7QDCIGZhKIZFJiQ+JKWpHohHx6z9kMxfPu5tT4grmSTuXoRetBr50LGhX8hplgI/SSGDM/Mj1+6f4IhfTQBE+8Fx1lR7v0m90R1sTq6AZledz+9MN8ac/zzbt6TkaOJSr1Z9FS60zgc4ffDZNwEErz0Wtzn5o+33tRvaqLx5IEV8WnjHru4tmFfdQXBY6lTA0SLggbEwzNKNDIdGLEtmiYguHjf6fD15yOt0dYvLfXxBar93DCkcnyxy1aXNor9kDbjLHkWZnv1DVj/v7YM8lrbkHk/UG2dUWpLbNXCQ00gIhSiJV7V2YdcPdLYaBF9MDBFeGglOK1Me8N9wheT8N36g0lw2kG6FLYMD1jPAO6Bcnv/Ugu7XrUtHdfEevKPAu8LnJMc1Q/1qaBZopM6yi6cR+d0rvVzF1iU3FYLPhleGTVrBkedKVoMmJIxJPZJzhhlSImGnNxlbV0LKrVrdtY+xZwyvCN5huTooDo5GFcXzHFhxGulgQGd4WtH3ZUHXetoaM3EyrTRleI5utVb4fUuFnWfatGp5uXD/IYgKE4K/t/Hsin+cFg757r/eFT6ZTAaCFnNFvpdjBoqsSwHgDmn41NyT0sv9o3Ag9FIl+fLgc4VXiyItjEPTrzNUUc1afgIt+bTysdWv59YuSJQZFgOHCeRPB21B6JlD02pNXvcPFL0wdgXH2uB1lwUqR+Vl5zNTskHPTGZXJZ9CqftdvbuO6osJ5Ewbh3wV/vmRJkRx0v+JLfrPyKgNsitfHiRVXsbxsuMN+ido0i/TfvyyDPk/2V8rYW8GvDKqF6v7aSUsxURFVkH7xk3FucCak3zij1h94eYFQdLapPtf8TyEkqS9t0iCTXWmXhZb7NEohs447DeiYGCyoDfB3a2ZBEDWKthoFgo92T0DdkskKdQWzu0SgKnytVEaTgMbv77hs4y7hFRduoIBL2d6pzZtnkrLDt7ECKUa1zACjX9wB+9vo1TDC/zQnQOsHbPAqX9UVPJU36hGgH8viDzTP06+BSwt6K5MVrEPBdvTdEHELnWMEXb2VpUbL/HQjqqUXxjXpxeMaKrM0qP4qVJNEjP7v9R4M2auHCvJ9nRIv2myxrWHG5Y8DlnQd7e2xNztbVFGnwVNdOmLZ2P2MFmvoPVFoW1bI56T4rUdf7K+IXprKlJfruz6o6ZSUcmZLcjf7uyNQIp28hePsq5Vppt3YIVO091joSTMXDizU3+gtg6MCErRbIbu4hB1g49K+2rmfD9N+jnCUlr+7xJu/qRozLer21jgjTHvvE7ueHX5QLkGh7fnetButB34kf0Y8O06kHpM+VBgt/R4M3RgNAI0N8IEtMyYaIJ/lRXHurMNk+NwG65VhZVvQcrMZvPbjzp8eSsV537oaUSrXygfYnNqXtfTwmVapdWiFACWUlLpggH38ZzQ6vV9pfYu+YRah2cP3pK4JbPSzf+rVKKHoD3m6Jg8PH73af8fHvmLiKdqN+uwAA/vG5D/F3NnUrmfrinrAehKAB/QADz96TkTIzHe9QJGMqkGONAAhCAABKoGgmAC5YwXqIUmm84xbJgAEARQUQRjANWtbAbnD0nzNme9P9IGxzr74KNFK7QAABtlosYf7KlszOgE7juA/Zen9OAAADIT4czqBL6BU32r1y98oJ3aH/U5pDQrX5ooFHEWpifz3X18PIgZ/UHlE3bxbo8lukEdfloJPITcJARAyZlE/9u9RyJ6LRdhr6I75tbG2/sBiM8OHsEp9RSi0DeBG4KcnmHwnuktEOzFDp8AIVkBrXWiE7G2j87IAQMXg/PEs2Sz81OzU3ik2Uyny6aHJEUFTYj6UqgxyIkrsw3M4DU2Iq+gDit3v+6V8R6IO45Pa+mILh9au+SiMLGXmTD0/Ss8hL2mU9qtm5eq/cjQK2ILFwOCM2xUZaJaCvivSytKb+2hfzdUBkdpHY7dZ6yAAASDtWvpXAAOhgAV2OTxAF8FCY7Qfe86CduhjezLH5hsDs0tQXUdGzRKj8zCaLCfdZuhJ/2UoB+p0f6H0skbvrJDiB43nj5HY+FvocZN5B1H2ng5caDbT01YkXMtdI14gx91BN5s0ah65VbPo51t4o2t/d+KjACktig7wJQmo0U6P4L5KUYF6GebcEyxfMFxix7WQaQJoLZnJdX/81cQjio1n/Rn0npBhSPC6BH1RQTDClfF5phwFZ0ES/OMsuUGj9gsDWFiueAzZcPdv3ybiiq/uDCJbT8I+mHiHrVodFzZQt6vGWxIniGjTeX/cNyvt1uixOz5OyTifHYS6g50WTb4GYzF5uR0rWwGoxGdOu0faW9O9I8Ie14RSdZdqQCwHW1+7xFIdOhptpTSjRGm+skEWMV5s9GnWwFw2TP0h1kf5r8AAD+AmE50rv1lr6RnXd1nW3uhcGNEZ4BXOPlvjmdVVnFHPFitMpNjyrj/DVuSe1k5ieAL9spILc6rklH2cQ+2ok07fJroPvWFFrcBaYi5ALNIhtycLVp0n9gRArzix5W2JMUV8g1n4yybGQjJw+lRGEkdUxEH4RpDTxEWf7xDggHmzI3YYeVm1QwCj+Vy71zC7jH34BXVP4F2PXgw7o7wwYo4iWhTSotD7scnlIDDDImJWL4cGiclMC1f6BcXq9FJf0Ig6HV9jqgn2OOyAbXTm3gZMtxmNsh0qJgiDc37520uF56k6FbeyEkUAITYC17LBj23YjYwwFljvJSYK1cUrrsC+8Dz0G3Gr2E+vTuulbb009sQ0582Y57VMYWBWKRXiws0KgLmwPSGANFNoESyNiOnb/l+3cUwzhySdlCmbleqfCtIU1tfH5sotCN/WXeVjVBMhRm2P2TRCbm/DnFT5RqFOSjrGETVWH8NIwRzEetZE1WFugHDh+Y9U+fgrMwzrYcdKvBSZ3VZUD6df0S7Lb5cVgKHJneSnupgZwAKwOhcAIwDKdOvV8+USEMkpjThQBMDCbT8eL4G7kEKDkiiCP64Q5VAqmWeJrWGcvQah3XijmXf1QP7fUqLhkxV0aHegFp1fp7kJtSfzJRF38LYYWnzFNb8PcjjIz9nTokOtEtykrJix3GkSdU2zfDAaIiT96CmTpGyhyhABFnnJU8TFLb1i2qluCiKC0blNjkeDUsCzxPtyZZnlYJHEvhu3ymd4SUpM/ZO5nlOhKdEfKmYfcV8JqK34JZEwQVi6/zQ0O3omfn6FcGlH8Unpyfevj/xUTs6po/qp6G6Kc+fVWet/CEJ7daeIM/9mo+GdWGu/lkYdpF21UChOjm9rfHiHs8jS0zRREm69HMM4JAjLFKTfpkbcH7TV0ijS+n3xenfRWU1GsH8JM1GA61//nv/1XSMQvS/HeKCr+axuw/rInr4sIdm8+FPm6+isqGF/f8uYBRHL05Aps9q96XvNoHLjwBb/Ro7E1hyhzUfBJFh6A7/mftVef2xAz9Qc9Ll0SrQwyNN8LfupYK9X6ZDx8qlsli6dPDtJhSXmarEVmD0KrT6u7Srwa+LFP/8f9L2H9WAdh++NOGeZMReQWsf5zq/mVNzGkeIQCeUDwspIq6KZvEt+1tZ4EX693QFnYD9b1D0S//E0y/6Px/1vqRgQDt8w6VtDQVHQixTZz47mIhCI5o9zF68sq0rH5PB9u10fQUsGcKeAADbVBtXZjgHcuC5LcYSbTG4ROGaW8+i31sJYFqbcnMedg7eZx/1RlNoQeFcKWcNLFEKNRnGFsTKaXNnyE68hMkGOxMEUaNCSDA38jfYJ5qaS8fv/RpvAzxDoYioS6derQ7P5jBA3p0HQ3v+JrSfcioczpj9vxtRDAZ19QgouHrQ//nTzBKusvl7lK4hhk4dClTs7ThcN9GewVVWeKn1iZkdq4Q2EQorUdmRYmIYSLhZdW2Das1DeRFE0V5SEbQYn3Wb7CIMV36JNpBtB+URS/IlVP/jRbu5fbAIcW5PZKAPVO0X38mL2gkpxAwsiDgNJ/JxpklTbib5ITo4uOUTKUwP3jBFQm4E3WAGIHNClsqWsp10UxszleZTmd2dZ3Hro804SRrP2PYq51Qk0vkVpLiIjbCPLz4KbuNhwerNU9v9pdRO76EOKmdeTdYKW0aGLX21qCmeLxo30UFaHvyHtphmkNWgwCJiPoicpdu9neb7pGDrwuBibrMAo0lT2SxesC2HinL5/vnwsIt9vK83z1zAKc7SSVu2qBj4F8DUhfh6uwxLrLeRT2JBHEI2KXDz90feowibkbiysRdb7++5Q9K3LN1r1XylWvAcF8SuyvaWSTrXe5BqRVO9VB0HatEw+YYTLh/45rQCrOgdOqHDXBB3sHyNs1J5FmX+4b6AxCMgNxcOqx5fYwbjInZdJ4n64WQcEIZ09EZcY/48R7jIfJ3b13xJ94O+amI+6HaspTqKx2xSz+6oINFS3wf1JxaDRAHAwVK7JYPzclgvCJbzzaqGoKNfJP04ntb5njIysZEIMzCONbPJOvRHOhbcARqEaAJNZtEBzspxBIdtGcJVmyugsygTfPEmXMFJc1nuD96sB7tig/P1FiVjF9sQPrbMrwMWfW13ioybIEgDLPq0unxL9vSf98D2V2YTghZtPMAp3t0djzkFtMOa2w36NfpjOkX3SD5lg7Z9H5hxLaHS/sxCDDzPYUhfI7geMLTXQwWITXGvGRcJ3MGDDmU2yUq5YPPusw5K1jpSvUJiqXLkp7BLPv8l/cNff2pw2axCFwcQ2oY/Fu65vuhX46JD1ZE6vYVAbZ6y62hcWbS/N/llhVCjeSKjL2XWCBOEkdYjlkiJelg2YoOCF9/KlXa4OxzFUuw1zHnFnBTCfgA8Cjhhwy8/087TuvN1pYgfmNZXbBrIokOh1J0KYLseJKGbQHGDzDLEq/7XHXyzf798g7kB4WLlCvfwK04/zYbbyOrAC3clFNcWXYkU2ceyXNuTfuudTRltcGdNU6j0gv4LVuQO8ZwZCeX1xQr7D55KTThoJVrMDjS4QkACRG8CUNO2y2/Re+wsMYU1VI2XGKOJyXMpKTQoR/5BKgR0VsmIjM+V9a9MWb4Z+1Wyzstcz4vBZd7DuQPw6mrlrclstdRUDVOSOIrpqmgQR+DV3pM6CYfb1OV5uVoIux2BRQhuWTV7IsSRmf47jIQcBvOQ0sNaUt2NITZZgx/C6/W3UwW7ceux/oMa7QtrV5qJvWt51EZKDOid1KaMVVNo9r9PZo1jKe8l8VfWLeFjHH1rmmtnaCYK/50u8H0uEJO9CmgCGauq17I7Jnh6YiiT+pGlc+MKuAyV8/2ymH4yd5NmkeK5FzazGzni8Ca+KZ6OIucKA6iGm3CjSJjY6u6C4+tfQVNH+oJhzfNK1cGoIph7i6FaghxIMr1qZyQjgSDb08Gqi/dJl1+zYx20Fapamt9M387Kc/zoGCdneZVlhA1cTAOpYPo1iI3CX9wleDcvoACrYWOnllMW557DGMLDDFWUgAEXV9TWuk/doXKavy1EUaR786RVKCa1lYQzAreDE9/Z8bPIkXcBxj0qPRRjG3BhbufGqD51GaIuXNaILrnNSSxo7GxvORrpRfrYaO1xDc/JG7AXowDt6a1lM2+b5G82RG2xcnLK9/dO5ZGYRjz8KHXy2x2n1FPFHA/xX65ASRuGtvIFf6f41q/yepRo1jZSRhaDpa492CxLu2yJZu5rgahrwFUzW04Rm2uR4G8BItF2C/CO6JVir+g9I14BNeiHSBwziEL5z9yu7i+Qx7HNqOKHtI3iVH42abvnu8pWLsERuHPhYPv6XWw8S7uA7tNsl6nyqOLzapRwHOCO9mXxbytlo/sSrE5zOs1VfXTRBy+wtD8Nsi8x7Np0+p3SeQCvwfdk8D3IUoYQ5iNp0WDmWfTzoJ94xqfC3g1bGUeNLwOMS4C8bDVKqgRTpa2rLQTH+RDg5spbX/khMkESc8eWt6pjQduZHJ/sMlDFfOBFSWZ7gfF6f6RYiZRLzg1M8IAlL/6ztmzp/wJ52I0uf1TxhjYvb5rmUPBXxV3V9FF30PDG+ITHA7Bxn7u/lUr9SuVUoINXt0avgBRDINQ49JiWG4VwC8tH/ubnN1jtTKD10Ez9yoK8x4lzo27xBVpRFAyzABX+cbF2gAJiO5AcOYz6J+aE0tBaosvFxCYJ5lACtLj6mtl4sJwoDMlA5un0CkVrh7S6asNeVuidUXuv5O7oIMw67jMide+avrZpI7MEYjrgVAx7CZB+ebabZ8Y/j5RLSQS40QReqMKfybMexof6KhtWBYWzVtHk674Dna6my3ys50unhD25hVfI0ZPEUZ/E91DqtF6vNxzpjrhZ/qlhduiKlL5o/0t0hEiktZEfyYB/DOfIsikdHevCKal70kGWp0X9WTeof8xjTKJz44AUXk8P8owkFLVvbslA/xy/7OrNWnCxS2NwhqR4PkC8Z8ynELcTYq3s+HfFEmivhQLDNwARJgyTXJ0gms1AiQRlL4qOW4qiQwKlKbMbAkSLm/V6XHojToUgSsUtPyXJJhMw03QjMmIsAt8fBNooWM5UjvgDtQsWpdba47xJGF5aHiN1Zel34jGl/oBjJH/faVxagzWaxAPB0p0Eahh1x9gsHmtbOT1RWoCx4f3yCNji/e04ubhKNbihO9pCa6ycKnv4REjIF2PTxbcuqKcYebpOSad+PxKru8efibaCfz+mQVPqiGqLmipNbffglsmANOO5sjJ6tOXHFE5yTkCXVzxnKowqePv70vcTHQEfSv30ntnfFzwbQJOap8dddidcmEXqCHBXEdwN7xxovmE0mcGcfl+2b2txo9PkFF7M5mRSG/XU3pWklTSGj8BDhr7P54aEV9X6xWf2Mr9p4mDoJu8co64ftzmGyTnPcQEGT7AN94URoTQ3Ewf2hK8ubpmGVhjjnkAiAIKWYZuhuVty/TJpkclyyqPBaLmoqOnphRsAAXB8yOBb8N4z8RQQezKHEOc5PBmda69x0qk4/MWONTieArPOXAJywlcHe7S/+9l2g1KtUlGCQ8j2VAvtUl2MzC183/z02sY4p9KNF2crE9tYvYb3ZPP60QAImm1bAuQdVtU+Ds/cb32pD++uhSNH6cG+ESQHU7CvRl5PMcCkS2TCstR57NxD3d4eILEoipEIBpYypA8yV5eAMHMKpTBviwcLB19Kvwb/XVnFor6U5l/buwjg9kCW0/Z1ggq4G4edE9YctFmjMpgCJXrYL+kdRGrST1RDgSa7GW9HMU/oSs0UFCpm/epbA5oReGVaEJI1mtEIlduzw26MZMovqxAd7uT8O27oMU7KzCd6KGxhkXGkxA2j6meiKt51LP3yc4fOMOZIfakDvUKzznB93QbBQ0KtD5VQbpy5r0pvCQQPWMFj8LgWQCDQcmIuzdQR28H1d+G+jIKbTQ9l6YUjzKV+gITy0f8UYce7dqtEJsPsB0FeKMY65ad3b8yktURxzTU62jFrl7XawYLRYED50gb8VewhRikMSe7yFi5awx94t92rkpugJvTnqw2YLtgd9LFgRaVuBQfemPSOfAAKDFXPkkSU95qgDy7yQtmCK3y9qXU/I2qpXIn28BAtEMp0J+Z/IdPudcUShB2GVTQ9WlWq0RYJRfujH4ILeH6vvCel0gclpm+0P2V57om1NfHwzX1iwPYw9wCGflCrtUiO82ov8Q5So+7H3yCgFRGtQaQsxbLt0OWufcyTK5JuH9X/11Q2jOE79KFRKH1Pl/E14VcsOaC3k8jhPaN9piewNwAHOgaeyb850wuvW8e7c/2AkwosbYXjIBV1fLub7nNeeQv0coo3wYsADRUldf8NKCwjOGQAjm5nLhQX7GAwbYx2ZbFMb++asN4qxIqJpPEy53lVdV4C0SolIXyWkKX+47LDqKRtBWCbc38RT5dgZynTDhWqbpSmMKi8rMZbU/IRv627De69tNwPlkwriXz1NA5MZt/JShbUEvojp9/TMmJTqk8GPO7U18JFwHbiAOBfAL6ixIfhKSEvO83+mgciQsKVC6TKapRUEpHBIWhjYBsZ9Novv6XkqW425rVxJaz/1JtAD5Z2+p5EiDCUHcPo+q3rvhzXH42kkiHplRWZorSwdBDC77VXY2qV9vvtqtFBwVjZuGOavyTIUE+1jCeSihRMbRD9VI2ZD0x0KL9imzVlluRp4g1OoNLLN/J3kLqiXoYtkha8E8AhIOnu9br9IpbZXam63y3/o+RtteJdAE9HW1rxik2FJGbVyuwv4fiC9Ww4Hy4H8bANjp92us/9NwylDe7kcE3qK95l1wrIh45GJpvWgk6c+mxyP5QApeTJg57dcoKGaWhzQ7cQ7UwVdVpS2yRksP/ehoX6YReTlJ2K0jlRG9KhVHN06zX5Fcb9wGXzS9soENmqxZYFUN+OIQnBlwUYbuMyaDkx94RF6KQAXuR8YM8foJdYGNO4pvWJ6QW8nw5IHIBNmz/UcaOtvHrHOstwsjeDLFS052czxffb640CpsDfP9wkBRPqWeqiIJwHJ1E9rvQ7kGLGzuQSw72H8RsKNCeKWM9Jr9U99PCQ0IBoA2u6mUzxaQejqwnJlrUg5//ZXb1JIZTBze7lbSw2RLJ/455ZvocNTjqU67MFjVJP28Xeqjhx6au8ZlJlhROl2EF1csqbj3IkMX+EwSLotSbZJb+swcjvCmkvvk6sKOEc+uriOZqyOkwP+8UZl6pm6LXKRojuuSGqBvW08EQeXCFBsdVulN4FqBaeYMpwykr6+GdkXwfuRwrj2TUmrqcJb+3XEBiYKSGjFkT14LmQzG3SwTM6tIr/G7QzF5HBa6nBfw8CfFHQ8tjA6b0E3T0PpaYba7+MWGKnpCKTOueG03MBKNzyOwflz/2DPemWF8USreKBr8L5957+7PbWsZv4yekhl5EZh4NgyYq5c1bUDA8pSW14xd4fUxKDeNZUILpzVmh6JJlWeahxFJMtMgpUM40bQO9dhlaI/spMnauzsSeX1c47SOdueOI4k+irLyGO/7Y1P1BQj5g7Ltx2ErbAXbLZ4Lcr4UOWV8KaOWqcyPmDHgsFz78yYXFsyqJHRHD5EzfOBNX7OP8T2jAYVgsea9cAq13mWlkIT0WOAti3Meo9U1nfspX+ftRHkCY3zSz48fpWqBP9fbtzCXrLRVLvgNkZbNKZQICswRuEk3vzzZvmb2s8bp34nfpZ4pz53JOcEO6F9/V6/MtXbTYnnPbA8fYBncC/2MsDItAYRmR+tgQJQ15ilkackQclePWKaqrUT+S50Mff9LiXG1s9r35pNzx6MeRAINjbuPs0ZT8wwe1UKiN/JRDKeTfybJR/BFaeSTkxoJzvTi99XrKl6v921NXKfxRHcWJA1twhwxZ8kKnyag0AsECXNNILkIVBqc9albF1h6JDaolGDRTG/16n4R25GUfnXKqILuEZ6SEY9NPGDtlILgBOytAokqw2AraTs+1E8ZlscJdX7aF0DiPrVbEmpbMCo1B0ZRqSevFuQaTHYI9ovd1MvWco8VnAxVsYIgWhrrZ12PzGVzTu/wvcU/UdhxiZKbPEGM6Tx/g/kXxHggGzsemjfyFeDK7+4OZwK5iMvJfE2V+GSR491soUkcX7XQyWo7HhgLN92NFIJokksN/BviE61zHj0jXv6r0+GwwawQ2ytzq+IZcZXajuOE5k5MQ+3b9EmC0b+PsLuna6JVFmNAKF1//oNqU7uaTr8KAhT5Llw1rT+3oRqOckDt+Kc9rSTD2ljDnqs9joBAlM19Neh/296MVKR/eVBfucMRy6l3URVMmXt2KXhjBYeIuibzPB1hGKiNLrk5+lHgn/FfbCn4Vzlz6Jchgr7u2eF09F+/JhKRpBne20F4JJuVIo/LkTaMKRF2jHTtVZYc/GP8L/urIR9YkXcpvoQNDNERYj08ZRm4/v5uyzMM4d7c+48qxebd/rMxe3CPD14SAPTLjBcMUHjTjlipbpn2sefncmzBfOSENaL6k64M2hOCmJoEavxfEJS2fFZrkbcZZfXIPCAmnr6SZhBS1q3nxKQrkJp1yub6AoCWTBwsR7j8spWaU2ihjA+PL+QSC6y45+YtVb/CNHs8PPdlLiFM0Y3uIp25hUU8ByOG23j2hBZ0nNl6I3/qhdIDwc9PXB60myb8J+fDWFwqAeSZb/DHxQc9gbBIfuZbkQMtNL9NoZwtzy8AQhMZ76GVJnm0hfPGzSmgqkjYIz/pCf8zwX2iI3mDZEZ7MFMp5Cj1t2XHmvge+dzByZSwTvVuKCV4dSkD0YRGXuW4cZ9spdX+yoJZGYzbGmzlU9JIdGxggIvFl4Vh+n3ED0EebYDH2+b0FCZjqSX5S+6PXKvxMOCQcALuOxRMO6DtkD5c6aMbr49RybvIYL2poal2RxtvcpMciaqAwG+I+ZTo6Keup3+oJswDZaRX4w7tj9YDN31M+45Xv4ZrJxsISYZKWShUFYPZZ1tzjQqK91xO5nBBn3r+c+IWZHPmfVxHd91yfocSVNmgwfM1HXCftcB+F/fxZ6umSF+/foj8Hexl/MqgPW20VWL3V+gsh+2gXM4ULw1JyrvKpa3QmZH4cv7xfqtK/2mQ8so3M4slKa6XLxTKkUrXZOFaRXHcsfdAxUm1qm12SA5T2NciAgFwcpAB1Q8u0ZFHBtubJkRfrrSyS7JMLi/0xm5/rNqctTiwyh32sis7VzyxgI3quWfHkP1CMDZgI/iqwL1qvi8c/DPKpEUNvXvbHP5IxZB09EsnrT6+2n63RNOJX3AE8OVk+ar/itvzuG8sAUUv2FwnroFmF8YetFZ9pjGXR92ytxBfP4ypel601j/V5nbHSH0nS9IajuDRUbzp+vGOZIUrm5AROWKYwOSO3kULyufpsMAp+wPcMSYQbZTF+PUNxxNdISvv55NmAbZn0hY1FaaXEbfcqXhiVKuxs4xvVffTOeNH2RzCVQ/hnvn7/eirG2N4+ABIvFtimPpOgyd6BXtmsRT3nXyny8RFF1rg7AICVcsTHis4fiLdAIqXtIZxz6SGdjOKiY+OCbYOkpRZgK0S56wYCaPcsdD9nNNKhau5tF7ug65Ejf+lvBlPITEICTRZXwznMeMDMxFwcj0VJKId1Yyyy+aYjgjmWrfJAky3n4PrHlWkVJOlS/FI1gUKknI1UEnWR2g2QS/xFnkUWlHK1WZZDRu8Pc8WngydKJC+v1V5KCA1GA/X/xS+2CyMQSvwWb1+9RZZvu67FZ+6kjTQlaNlTPWvEja+TufH8IHQ1jn1f6A8PEYRyi8tK1tVVzOhhPggSCQz1YENrfTnJ5uPnUoQatluO4h8Fnxh95lDYTcoTmwoNO8ucPGo9ktRu7bEQWkGnngqtH52c7/2Qqz62SXRv8fWM72/wG5Yb0OlqfT69e4gzuCZDglI94Zdlj83KxaJKwX/Jy3uv0rp22HY91SewiaPpy/2nUw9QmUOnti9c4/Lxt0ThdJ1ycCHyiHbtW0sf0vsbmbm5fRTKPy1Vq0wbNOVeckaTz6gxDzwbzbQu+4D4fD318/y9rSfds8TmuQ326+F4bBgST5+5d/B9C/uJdHDk7IY4OqmafdNZMHjXp2HqWktypTzuhrG2Q7N1NkTLYBPcVK/6S9ZpktGGu5/1CmtHUOsP9Lyc2H/r/w/YGYB+EgJGm2y7yRdr6G+mjFW8Ai4HC27kTl4Vbi5aCcNjqNPqQwLpYAQrMwKjdNaeWD0x6+SusrymO2WEvwz0VIcRu0Z8fS0IYSDXUwDZj7hxAEXhYZJjab+QV/G77v//yhZVCXHZotOiIKmfz1PhYc+ggHwKkgV/hGkWsFHkwCDqIYZjdcKLvfrsDD+gnqVY0VX4afdFX8uoojKkvzY0W4ZXWcaZroGozB8xUGbdiXnMSzad/o9UygPhitztBwFdKnNMYOZVkmgS6STTncOzjFDQ17dnrbPtq4s5fwWCxXDI6lfYR+0nwDe9Wg1zyw+SBYJlj1zIBdquv3e07v8Wvprqie0Iu/SpDx/xdfTRia9tech5OTIN0RZUeE4NjE8JPj7XQBME0yUnnZUGEiaoV2SNY5IVtzgWWGKIC0TXgqTvDBPgWRhAArWYD9KeCv/ToH8Krvs/wNgGk3j5sqiV9IMHOaN/ZWTJJ/FaRv8SJuUwCpzXbRfa9skL6a3a904Xgja99lmQk4uIryTDY89QGx5R2efmeWQ9IwQqdftT5F4VHzmyuRGPnVuRI1VK6VTlHAzqxXsY0fzt+BOYe7rM9qCQ+nnoVTQ1HklyNdcJQEEkc/7BC5c1Qk7ANy8NdSGoG7hHLeIm7Y96eO6YodqiNlRFOOAmucwaaY4flXQDjVFoHDMcylaGmsq45dZcIDg98uZ7CJAv2fAwVtmyod+VrJHijCJbIo7WNMqWNNPTfWLv2gPLfz9Kw3LN9inkBZdH077Kv+7fovoW4/OLcZyRL5cwZvQekyvb56H4ljhD0t6+seepBxcBF2Fx+llLvPKZ789CrxNV7klysc9GSY0gbspMazKDF643QMZg7w4exsSwe7lXjB3EB9SwS35QV61jENtLje67TEX6FNmVgr1T45e2hB0AO3yhUKC+a94GUhgYDf685XwoxGbJUTd9bN1oTody1fUn1Zy49YjZlMZMK2yz7lYqmPc/tvUxgD6q+ENXi02fUWGRKwS8RKi6Zxd0oXQUvFWVuF+bNsjS5FtMqQJ1g39JjvV2KkBPULS9n8DteN5cNB5yyg9b3LqPEtScNzMFzMyAcW7q6F0Hf+H7ikNPXHFf9tW1zgm9vHLkzw2WJHy4Da04Z5ACM1VHrjwmwHcMWrGl+LrwF3DIidduSLQzhUu/X80oNPGfrufRj1DsLfCtKTuFCvEeI8hsGercAq8QAPvWf4vjofbIJ9vw7NVJeNBhDVU1oNV+40wBy/JhJWBOZNFd1ur//T5017476r5AGzj6YfnKnqzxzcfr9vYZLWy/Jey3c6tSat3tB6OALca8WB/DWFVQeor3+/kpGlKsPX2nrdZgjsg0991rk9QvHkbzC9mAR16XEGbWNqaW8xwKA+Gl6nbGXqUFUo8gauhzc3MQEPg+YeTIXid57srrZyVlIMHt+h+vyuEavlLlmdbIP5kmEHQkxrPHb3yB9Fzw69ic9rAAKVK9SI2EIe2rtRCGpw7TIk8docjnZ2F9Lzvw/FiKpYVriTWfP+OQMHYGQ0WScF5/xPgHx73HnxsCcIQuJZdTDhB0SWS2yCqvAC4A122J6j38Xy/K84ytEhzzDXphgU5AdOlR5GD9jWvcwzH5AR9TJ9TtkHhPs/vSjk6ea/l6zfEJIHbkHO6yKbNwygdpq6AB6oivoiZ2LKRkI2nlK9hRmEN610t3HJlYFnyE9NPULiNDn+n1IpkWopGMPvO0xifU/SXz6Y55ZB94+xZtnSu2aL0v685HoNIf7eYAo28OakHwiEyw8Dwq/pyZZEKQdiWBxOEhChs5CYkI/Iv08sqTaU7koo0to9o00CPJUePScaVF8DBh7mi7L8idWv84neCLqWD8ObOxVtyBOcDy3YiYvYOTwuaMQUDHirWBRxW+Bqbsn5GAbWA5bmLlK96/2iF1m9QmzoZsGBWwRAPsSyy97GY5lFe859Jype9dFgF0P8N/pl4g9D+laRE48koZscvGHFPEfOrhbVd5gqJf2jrtqLGaM82eQo2PBYR34EsHRBv5WX1UnP5aZ4PsDuvPgQPH8zrDm4xU4vU+bF3/ux0cVthTEDWmaijhH0V1lxsQ0BHTglVygO4ZlfF8wLjp14JwcLtxbXtMEZQdrKVp9yQjeBFods6UOBrnRpNlf3Dxvfqc+ECZ1G8qMaZ+gVNF7QSuT5/mcOpVI7OZZTHDxp4h4f+0qDOFLfeUBJII0BFpVFe6xp39uwaCO5cPOJpdLzEqVDr/9uxIKf64SAK0sbVzd88jAe0BGt5J0GRytnoVh+W6SMX754Wzkv5bsEiBFs/jNAcuW+PgrI4czicCBGM42fQgqXYa3Ne+nZeeDSQJUI0q9d9CzmKDBpEhLNIb92IyR9y1zZoCwLNM2+SQa38w2SJCKhul5OwnQ+hcHQqZHzh08PRKnPuKXnL66WyT95SN9OlWbWe6mWcGHDQpncOUstNua45t9uH1pt3KCVTrGnGtbiym4L22bxlmGPeaNpiqLJI8NtoRUgmGe3pjt06t9EnhxGVST7y2sAwTNxmSfnMnK0r1o+Tr+07npYoMD8kSFM4H1FPMaPLwKwL2wJKREYCRq94NHPFZjeQCKzk5VZ7gOftON3Y/XU1TSAaRhqOfqfMeA5QWub3FQoWbOp7lqN0S0bIG3AzTzCRBZ+ZMJkscOftiFfZq7pe/hOqbVlqxTAp3xXi84+T1rzr6R3osoCu+A5hVX8PX62DqesUBn1fAJCdXWPzDK2wHOW5k5m9huGbWB4+4m6byEJ1h8gyFbNqLVSS3cVOacdFuWWeAjUJpXmGHGNsHUxziQgr2iBlKCThkiEc1YUgSxBgwBPqmDkiLdpbffYDOtYlsLzhxryc9zTIvIvgJfnieuM1R7F8mMNT/KzHFBZrRKQauq7RzKAUw+XIsNzjUJBiOjHHIAc/kR4qwljSkFp051s/TZZFM/MdTDkZIbwxwLcTm2Z3wE2urTq4Wj7uuVTGmof1U6aP6KFJXcRcabetAGMSpgjaTWqk/O+lLfYJ1XHeTIqvUcn6NEMhnIs32qdyh4XDOWM+JhYevNQeYjKTOKcnmaAIXPkc/f9q6QfvXV4JZ9+UdsEkyARN1AiM40KdfRZdB2Sv0Hu154URGFxSpTIujPPsZ6FhTtc96IQHRDj6B87wOGY+tfP7UqoMvJ+ngWG+lNwHFdsfgxep+i+FBVRgnuKdQ98BMEg+544pC0qiB6oLNhVZpAkhbp+21usUTn5JNTWw48d7sxgRM/PNqDJtMDHPMl6343KvtOPlG2WMqvQq2RY77alHOmT2pwoLUxe6cADKC6EMxnrxtlyYiy+4PUCCfhqC5WnXapCD72cv+RrOKz9ln9lhH5HIncZaSInbS6Fcf6orFGTs53bmEB2esl3R0+R/kZKiyA8/sX7pSoT6943JgXa8V/Wg19v4rw/iq+5jA7io53hyPtbufkdYfy4kHbPxgcpnetXs7VhVnAZT3XSUmFP8Y6gVwyJA/oJM7loVjB/7Dy+rFw/R2Wiu0Q7sDOAmmOTvMuo4s1G3wpTobbhNaNFnK7tqWF75PLgppg148h21kFt7TfK07WtbXTfzdtp7IpmEn7IclSMK2bJdk1FlSp+eEXFKRCIeTJu24vHVD9rPKxJtyyNoWHydnCU/YZjYldJVxFJwKcqWK1lnqQW2jlL9hKP6h/AOz8Mohj88Yin89nwKPyzygi0AKAJpUjghHkoFHvyiURFm9n064N/MNZhrbVdb+zbUVfxAJHVD8zKqEC6abd//KPVRuoCuBrWe4WwAgP7RkmWcbUMNdBiOi+7QE+QqXpaI3kBQv3IdbnhLNRPV5zoGFQ1H9LDq+f0ZWWH2bMyljGPjlv4kwFJyXAFkMKSb/2vkzE2T2gdPW4bRnpKBlE+7Rg+qNFn/bJD9ix7a4oZubi9HyktLZmv8TbUI2RXbXpubXM1NX+vsu7XJNZDJ1nW2h2J2CDDbE3CY6pYlSaCKzXM58nCVL90lxV9Qf8WFgJQPI1ddXRoqAXWOROYWcnFgvl2vQu0MwO+qe2AxgEwEdhXG1giS9tzV1+nN7FAepWi/FKzLGBZkf+FarAByFWYcaodcPGaNf6Ng8+gxs49ovrFIJ4jBWo7qJc+6dwcVPeVhhON7OcKPDdvPyGNczZtwR4Cs3FsOXb8HcBZmz754NwYj+KYYIuY7aH+y706H5pl7wCfXz+5Yr5VFUgp14Vv6bnKP9+s65WZo/Zfrb7G+zX2w7bQrgYKTdR8BZMgI+lO+jYwKKKZ664GZ1DUuEgiFYOZz1lwXbpIXezFWkv5h35lH7dQnq5OrcnyD9GfeIJuqP3w4iJcmcFrsD52OICO4ra9P2BJDuJHi6q77RJSqHQc7gImqLBq+kIFfIaevarxlbWu0pPXfZ7h+LZ6koVXC+JX/EbPB9XVWWfOMx1FNlJi1ieYxyAkTCtEPzHp7l9LgLtfXVAIohUgC02ETtHfe8g7gQC+Z76Y5b2UmSZWUFIXkIL+rxmnDjo2nWYSSqT0moDWqfBdtLbC0ggxagSCGbnSwq5zoXkB/TLZXJGRPxOkpozWyzpS97U+uEYNheEcDGonnnjpFLzqPyQAygOWR2YKL8UYlDBJylXbUqAuWZefeblrti5KUAo1LLldQ8whMyyo0qhl3tcAEsK7kUPefMLqKqDgLVmrlj+ocELwRfpUIpzRW1nMyz4jnhqEDYuQ5bErlV/QzHrx9SxXk7B/MmEK1w01sHQCwdvkZdMMXSobF70O9IwfG37+l+VN5bjuJgitiCHh4kkaywr5pjwA+1ctIORHfvbgY3H2Wx8XMwsWwO+1rHhk0O10jY6tHMtRox2pvUKusgyA8NDbfEIzTIxB9B4EOGDCsDjK77rNCZVwLlzH2H1yQI+36PHYi6GGYN6xAGuUzoTu2wrHYVY8cxxCWXEuR4gCP+h4cnPnjupN9/Zcw5Lmdp7gF6ipjJ+cgAlLDxPKT+JKAKZwOvKoZIdSQ/Lec5g237AJG7bUBk0eJczIUD3k+nrHcF2NEzAfK3op4B+nG39vvnFDbsQaAcwmp2494/XIRlkwPue2SylHBmt1Qb4dSSYxG+hadA+bsE0EqSyO7TlnWrRppqADhmjXAiIehGG980fciu9hdNcBcmQ23+iKKAy8OR/f8YxqAJL4c5alw6PwMtO9BVZ/3nJSJL+VD7hzePrXt2Z1QVhwCs1rghi+8K5pn8PyF5GrUXheul4v6hP4GGKsETb3GAa9iP2Kn80r+QoYpnPn8cUt0zapxgZZattzb9UtfFWhNYeouJpf0CJXzpQFf+/WRlYZM+90BnuUoUATSvtpEEQXSq4CbuHmbb3rl26zbDWLVxeDc2PvvjI7rQ7mG8wijkaTptFXUfo35lzmofBNukShFGNDZsE4tTM++au/BY4zMf2tRddo5+5tvp/pI+zXM7mjXkO9Bch3ZkYaQRKa7SzfKDT28122qZnv4fBbKyq1A05B905xxgF2Yald6oFXnaoN4yzdL88PovOtqOyasmGitFR3HOR5DXEX9x8P4CgsxGegJYSSj61MNKYKki4TJjVC4DcAL4roS6vwDJUWcHXOQAO+AkBS5BjbzrI/bDAJLstUg0xtiFjprRzb8DklXUOctAy2Xe/HVOok5Dv/Fhs32ZcYdHDt49nVJEQ6V25Qgxfg43Ky0+VyHamXXJwQyVd373FV7PkLOJVuIHTBdrX1uDr9qfNxfS87gn6RYpVCxSgNuXAGg0lRv0yyrv4GyqKUy/9sCpuOSwIs0U8EzGEKdnfZboDT62MxjslYP+GeJejmVEdevzh2phtVnq1rj35WMM+9rj9OX07+BcD6Qn+G1HlyL3xRG5cbdZqTtG2fVBzh8d0U7hMBFICG7NnIpMTdweEIbX2lBLv56ZF+uqEf/ckC46FFhALnP4YwtUvDqRuytsF1WrqBOIo+phurJk5EREizkwkqdRjpAJmgk2M1/iq8p6Fdx0aTrjFRhvdRxv+pOYZQ7ImN8D9QGW5WYelbsRlbbUvPgJtvFIuu4u7T1FPNgBAp9/Nnec1ccYfjf+cSlcGGqhjn6g40Ro4kc4WKvS8fpiCfRFebGqEWErs+lKDHBWAuGplorPjbBDAzkUBz7598BajaS1clqGxUlPrVLEgnlziH/5vXkhxjhDdD7+Eno4weUkL7IvY/9yfxWyQ9lxt56n8ZXkERtHP4702vc3fOF4dCONzige2Yc/IHWreK3Wtc3l7hO0Xyvuk8ucQtU4bSz445eAFT9IuEsQJ7VJk9PSmO40zlz2RCkNraZeFfDCbFQniZzHUwUkcx+B315FZgZlCMwVmpXAPZXfv5PebPuQgasabm1DWEqQVyWGYsiJqF0bBSjzz4f0P4RoEXNXeWSnki109RkXS6XZLcV3QnY2Q2DGbFp2ePV/v7h/Wm4MmvPEXZuu2Xs0L5X70K94xCHydkCDruWDYVGSfNAHsZg4kErnyaZPIjIwr8ncrYbo1MABq/29C62gMbXXAofGu5LFQBwrzMEdMhTRs47Vxk9pMY63dYeJNXRWpLOTMpNjrOYoapg6NIhbKcM2Auf5XSpJeow7FKgYxwOz6MqEdAPudxD+ohQs5XE/oQRiVRq6+W5ILoQApneKeCfhgfExUUB6vu+QoyXpclLsD/9aAMwrOFtGqxOWlm8/KalWbqjLY1A9izZHtwX8CIeVeYOBpFJ7gBvLbSJ24oXYAzj+oXtETkwOIlt+YVVAJ+16OJm5kgvb+CqyhC0s4LFTjMRoUeEWro7GNqqLHpWsOuAsmaGWltbbgUW080YccZuaWyOM5a/fBSoGY+UAWHLqLcDkv7tdEBDBo6c2OSTNwDQ+8Pqgvn4dUdRbiBNb5o6W6Z3hXBcgzRLvvTdVj5f6mASCePjlBkHJ4retPhQVCkPnTMapQlFwRBaIZo8JiG9A+Lsqu4Jw4wRkd/2xtDa0rHbpMMb8NPa38zruaHP3JNPACMfCqLntxtJmTCtRghq5Yn6Y302hZEcvE00XQ+ugOMq3gy/EISifpBR5fw5XQcsgj+eZR1z2dRR8BAd4U3ZfNjBph8ARG82g7Nj5GFP5T7ysrtwidRWdvApUZfzONv2SG1OB8je8SM9as5+o92VEKPD+5O+uWLREcuF5b0O2jXpzJgpsNq3we5p7gKbVnkCweiU3UMpv1l4EswQLeLWn+MV2yvMWpzchXCS6jB37lukKO6+4oBJSdm4hnQQGV3x+kiJAXcPg1SgIw+bnku/1bCAErkozdTodZE8Hm1TuJrGCjOEB72D+3fdrQa/ctfRNN9dV6oyJyhTaVYVaBOH3SKNnvkkjcPG5yC00Hj8MDG5bMGH2ueV/lwaxqpTuTYP33jjDSOa3JK2tSuN2p/0o+caxiBZ3zsnnFSTyVicnlxbnjLq34PHnAw2pvF0Y/NQaSnEjsIa9/d3Z3U65HhfV5HEKUTILiM9WViLbSq91zEBQJlePkLQrVhDtZ75DdD2e2yiZpuLjz7QS456Y/UBkV+fP5Z7CYsv5FCtDp681fEdQw5QO5Ib74zQnsOzJsumyrwTXe+eblRgA/BY5iHJqnqO7DJkqIiJdlqvvLoRRolX1wX988MmOjZ+BVO/Gcy5FoCEBQfVkqtNfJBoGIxFdRSYQe1Jpm1CB6l2mAZF3n6xarS83tYJ8KjCvGn0+g3X3R/+5o8YB1dXvrJ1oEAXAVF+orSrimsEJsK3USHWLJLBvQahWHzwCzHpCIozi2wqKKI+Om+Y/eTWn0kpgC3kl0+0mN3j7Eqew4bLc1F2uftuol2rLbaW9Id2epKM/PLLl5UXawcF432i5rKmd90Dgu30yfiia5a4nCrHJf2V/sG0OaUDtfwG9R+a+2WboG8++jIM8TtEmkeJjuU/637GeQTQs3QqfnBYEMw8I60wjaxgoiZBXGeWLfAyvImy8T78CGXRhlab5eVj7JKzgtr8OljFTBCDiqyF7HYCCARVNPVcK52kyp47jyo4TxAlFv6vPsvz2EWgAABFWElGwgAAAEV4aWYAAElJKgAIAAAABwASAQMAAQAAAAEAAAAaAQUAAQAAAGIAAAAbAQUAAQAAAGoAAAAoAQMAAQAAAAIAAAAxAQIABwAAAHIAAAASAgMAAgAAAAEAAQBphwQAAQAAAHoAAAAAAAAASAAAAAEAAABIAAAAAQAAAEdvb2dsZQAABQAAkAcABAAAADAyMjAAoAcABAAAADAxMDABoAMAAQAAAP//AAACoAQAAQAAAD8CAAADoAQAAQAAAHwBAAAAAAAA;clipPath=inset(0.51% 2.33% 5.56% 35.67%);" parent="1" vertex="1">
          <mxGeometry x="1424.5127974854063" y="526.9913043478261" width="287.85660027790647" height="287.85660027790647" as="geometry" />
        </mxCell>
        <mxCell id="NP3fSsR0sqH5-8vcrBb5-5" value="" style="rounded=0;whiteSpace=wrap;html=1;fillColor=#1A1A1A;" parent="1" vertex="1">
          <mxGeometry x="1883.949483610238" y="519.0373260869566" width="299.97844634036824" height="303.00869565217397" as="geometry" />
        </mxCell>
        <mxCell id="NP3fSsR0sqH5-8vcrBb5-19" style="edgeStyle=orthogonalEdgeStyle;rounded=0;orthogonalLoop=1;jettySize=auto;html=1;entryX=0;entryY=0.5;entryDx=0;entryDy=0;strokeWidth=13;" parent="1" source="NP3fSsR0sqH5-8vcrBb5-3" target="NP3fSsR0sqH5-8vcrBb5-5" edge="1">
          <mxGeometry relative="1" as="geometry" />
        </mxCell>
        <mxCell id="NP3fSsR0sqH5-8vcrBb5-6" value="" style="shape=image;verticalLabelPosition=bottom;labelBackgroundColor=default;verticalAlign=top;aspect=fixed;imageAspect=0;image=data:image/webp,UklGRvI+AABXRUJQVlA4WAoAAAAIAAAAPgIAewEAVlA4IAo+AAAQHQGdASo/AnwBPpFEnEslo6Kio7SaeLASCWc/OdUyA/rs6pDf8Dkzlx8rKBQmYZC+lxs1z7+J2sG5TogTwGvpGB13sL69TS8khmuetYWWCva8bepzt3XAehXZRstXzH+m8Bfzz7//d/mn8aF+f5Hwb+537/1v9p/0G1Bfy7+tf7fhKOl/3b0C5zHir2AfzW9h/Cx/Mf879pfgE/qv+W9ZD/Z8wP1/7CHSr/er2kiT8ub1I2dzJiQ0GTEhoMmJDQZMSGgyYkNBkwnQ4rgiU3CMZ3LwodiA8icfMaSML+sOefCjnVAgGSX3frQyHPwN2M1fjGPTaIJHkpyhTqBD1kS3LboAHkm9UCM4x+lSTeqlfqko+3CBDQ5oXtap0MhlJGFrGpkZrvlWElKW6BDxbw9w8eKz83B+YTYOzH2tie4lJR4VkJAeaHFkAH327mcLW6Tlj/TxJGMEwFDxx9UctLorvTfVadPl4RrOjj8kBmDSzlfKCAY3wyAujwIH6VkdxRODmnyAJ4gm6gSHJ/dRHjXRPazkIh7mKDwWAdNzbHzTkXl5chScuL2Y4e5zrkcdbBppAHSS94hE6jwvsyIUxqjAV6n6eoDNJ86Mq2wIARbLwLcX3Nh1Bo782bNrYJsnmYNLByIuPgxPjigG4nYxXRDfwGL0nBLkM1DO+xCxmJ0oDFPKo1syrC7EGKemW4bdBG3vYXob7mnmtz1W+zBT1xK8Ebie/oYo3m/2znpM/f8w7YDY8S8ry71S2Yh46aR7g+Gq0vT7OgbiB9Z9tvd4uwZX1ouAvrtVstiR3+PUNm3nI8+cdFPoSJNo+xdXvd6ot5dg1YwTC8oQmf4ScjwQNNpfWjp/WZAjRMDCQgTimjf5YBNSwYiqbcOsMG4oJZCDwC2ytlgc2K9cporx4AEgU/q9NrhPh0T7bVYjCkADiQeqxOV/h/fTv+0/4OpbXmHUEVDsobYl12U8WZW7tvCKA3e0lPGbQK9Ae3GmPwC1DMCy+SXjlT4Z3AEFW8Zuc2kpUNLMvN781ENZG1p5uqfdThpGJnzKnQmHyZdG3dXxnCuoqa3xuH/lkrhCGitujkNF91vnjh8KpoPJW2BxOTKa4e7OWtvblbKUx9ErkW0Lb6yCZOnGaMPjyDV7lHJGtbRAh/m2oU+gtJqXDnwDrwfLTy7d+tNLpAKBHeNU9ESHq/IsrSpFsz5ncLVIkxx7MsAxGUUUkKkPb9L7OZrhCzAq1J4Du9i6WXXaf3wOvRVwF6igHUD7gnzgV1C88hMo+H+JGMvk8Zu779pnXFu8gniFGBV3FUbo6KiY4/aOTedzNMHCTdgovN0UTmNw/von7NfCAi0bXZ5rl5tofTgMRxNatyK9vr2AytXEnsMg5bjcrBWAF3XAgeIjQkKnDqdJgxVYswt1JrQil6unvciCPTOmTwZ5ZEMU0QiY028J4z8F+yy/BxUPRT2ak0NRDLE/Fk8j/it8mD8DdhxH5xyh6jsbJSH9X7GdUvd20s2CSUX7sJmmo57oWMbAT5TNJnBSusvCLt4rvZ9XYc2Y90iykq8IaU3hU6fNwn7QDCIGZhKIZFJiQ+JKWpHohHx6z9kMxfPu5tT4grmSTuXoRetBr50LGhX8hplgI/SSGDM/Mj1+6f4IhfTQBE+8Fx1lR7v0m90R1sTq6AZledz+9MN8ac/zzbt6TkaOJSr1Z9FS60zgc4ffDZNwEErz0Wtzn5o+33tRvaqLx5IEV8WnjHru4tmFfdQXBY6lTA0SLggbEwzNKNDIdGLEtmiYguHjf6fD15yOt0dYvLfXxBar93DCkcnyxy1aXNor9kDbjLHkWZnv1DVj/v7YM8lrbkHk/UG2dUWpLbNXCQ00gIhSiJV7V2YdcPdLYaBF9MDBFeGglOK1Me8N9wheT8N36g0lw2kG6FLYMD1jPAO6Bcnv/Ugu7XrUtHdfEevKPAu8LnJMc1Q/1qaBZopM6yi6cR+d0rvVzF1iU3FYLPhleGTVrBkedKVoMmJIxJPZJzhhlSImGnNxlbV0LKrVrdtY+xZwyvCN5huTooDo5GFcXzHFhxGulgQGd4WtH3ZUHXetoaM3EyrTRleI5utVb4fUuFnWfatGp5uXD/IYgKE4K/t/Hsin+cFg757r/eFT6ZTAaCFnNFvpdjBoqsSwHgDmn41NyT0sv9o3Ag9FIl+fLgc4VXiyItjEPTrzNUUc1afgIt+bTysdWv59YuSJQZFgOHCeRPB21B6JlD02pNXvcPFL0wdgXH2uB1lwUqR+Vl5zNTskHPTGZXJZ9CqftdvbuO6osJ5Ewbh3wV/vmRJkRx0v+JLfrPyKgNsitfHiRVXsbxsuMN+ido0i/TfvyyDPk/2V8rYW8GvDKqF6v7aSUsxURFVkH7xk3FucCak3zij1h94eYFQdLapPtf8TyEkqS9t0iCTXWmXhZb7NEohs447DeiYGCyoDfB3a2ZBEDWKthoFgo92T0DdkskKdQWzu0SgKnytVEaTgMbv77hs4y7hFRduoIBL2d6pzZtnkrLDt7ECKUa1zACjX9wB+9vo1TDC/zQnQOsHbPAqX9UVPJU36hGgH8viDzTP06+BSwt6K5MVrEPBdvTdEHELnWMEXb2VpUbL/HQjqqUXxjXpxeMaKrM0qP4qVJNEjP7v9R4M2auHCvJ9nRIv2myxrWHG5Y8DlnQd7e2xNztbVFGnwVNdOmLZ2P2MFmvoPVFoW1bI56T4rUdf7K+IXprKlJfruz6o6ZSUcmZLcjf7uyNQIp28hePsq5Vppt3YIVO091joSTMXDizU3+gtg6MCErRbIbu4hB1g49K+2rmfD9N+jnCUlr+7xJu/qRozLer21jgjTHvvE7ueHX5QLkGh7fnetButB34kf0Y8O06kHpM+VBgt/R4M3RgNAI0N8IEtMyYaIJ/lRXHurMNk+NwG65VhZVvQcrMZvPbjzp8eSsV537oaUSrXygfYnNqXtfTwmVapdWiFACWUlLpggH38ZzQ6vV9pfYu+YRah2cP3pK4JbPSzf+rVKKHoD3m6Jg8PH73af8fHvmLiKdqN+uwAA/vG5D/F3NnUrmfrinrAehKAB/QADz96TkTIzHe9QJGMqkGONAAhCAABKoGgmAC5YwXqIUmm84xbJgAEARQUQRjANWtbAbnD0nzNme9P9IGxzr74KNFK7QAABtlosYf7KlszOgE7juA/Zen9OAAADIT4czqBL6BU32r1y98oJ3aH/U5pDQrX5ooFHEWpifz3X18PIgZ/UHlE3bxbo8lukEdfloJPITcJARAyZlE/9u9RyJ6LRdhr6I75tbG2/sBiM8OHsEp9RSi0DeBG4KcnmHwnuktEOzFDp8AIVkBrXWiE7G2j87IAQMXg/PEs2Sz81OzU3ik2Uyny6aHJEUFTYj6UqgxyIkrsw3M4DU2Iq+gDit3v+6V8R6IO45Pa+mILh9au+SiMLGXmTD0/Ss8hL2mU9qtm5eq/cjQK2ILFwOCM2xUZaJaCvivSytKb+2hfzdUBkdpHY7dZ6yAAASDtWvpXAAOhgAV2OTxAF8FCY7Qfe86CduhjezLH5hsDs0tQXUdGzRKj8zCaLCfdZuhJ/2UoB+p0f6H0skbvrJDiB43nj5HY+FvocZN5B1H2ng5caDbT01YkXMtdI14gx91BN5s0ah65VbPo51t4o2t/d+KjACktig7wJQmo0U6P4L5KUYF6GebcEyxfMFxix7WQaQJoLZnJdX/81cQjio1n/Rn0npBhSPC6BH1RQTDClfF5phwFZ0ES/OMsuUGj9gsDWFiueAzZcPdv3ybiiq/uDCJbT8I+mHiHrVodFzZQt6vGWxIniGjTeX/cNyvt1uixOz5OyTifHYS6g50WTb4GYzF5uR0rWwGoxGdOu0faW9O9I8Ie14RSdZdqQCwHW1+7xFIdOhptpTSjRGm+skEWMV5s9GnWwFw2TP0h1kf5r8AAD+AmE50rv1lr6RnXd1nW3uhcGNEZ4BXOPlvjmdVVnFHPFitMpNjyrj/DVuSe1k5ieAL9spILc6rklH2cQ+2ok07fJroPvWFFrcBaYi5ALNIhtycLVp0n9gRArzix5W2JMUV8g1n4yybGQjJw+lRGEkdUxEH4RpDTxEWf7xDggHmzI3YYeVm1QwCj+Vy71zC7jH34BXVP4F2PXgw7o7wwYo4iWhTSotD7scnlIDDDImJWL4cGiclMC1f6BcXq9FJf0Ig6HV9jqgn2OOyAbXTm3gZMtxmNsh0qJgiDc37520uF56k6FbeyEkUAITYC17LBj23YjYwwFljvJSYK1cUrrsC+8Dz0G3Gr2E+vTuulbb009sQ0582Y57VMYWBWKRXiws0KgLmwPSGANFNoESyNiOnb/l+3cUwzhySdlCmbleqfCtIU1tfH5sotCN/WXeVjVBMhRm2P2TRCbm/DnFT5RqFOSjrGETVWH8NIwRzEetZE1WFugHDh+Y9U+fgrMwzrYcdKvBSZ3VZUD6df0S7Lb5cVgKHJneSnupgZwAKwOhcAIwDKdOvV8+USEMkpjThQBMDCbT8eL4G7kEKDkiiCP64Q5VAqmWeJrWGcvQah3XijmXf1QP7fUqLhkxV0aHegFp1fp7kJtSfzJRF38LYYWnzFNb8PcjjIz9nTokOtEtykrJix3GkSdU2zfDAaIiT96CmTpGyhyhABFnnJU8TFLb1i2qluCiKC0blNjkeDUsCzxPtyZZnlYJHEvhu3ymd4SUpM/ZO5nlOhKdEfKmYfcV8JqK34JZEwQVi6/zQ0O3omfn6FcGlH8Unpyfevj/xUTs6po/qp6G6Kc+fVWet/CEJ7daeIM/9mo+GdWGu/lkYdpF21UChOjm9rfHiHs8jS0zRREm69HMM4JAjLFKTfpkbcH7TV0ijS+n3xenfRWU1GsH8JM1GA61//nv/1XSMQvS/HeKCr+axuw/rInr4sIdm8+FPm6+isqGF/f8uYBRHL05Aps9q96XvNoHLjwBb/Ro7E1hyhzUfBJFh6A7/mftVef2xAz9Qc9Ll0SrQwyNN8LfupYK9X6ZDx8qlsli6dPDtJhSXmarEVmD0KrT6u7Srwa+LFP/8f9L2H9WAdh++NOGeZMReQWsf5zq/mVNzGkeIQCeUDwspIq6KZvEt+1tZ4EX693QFnYD9b1D0S//E0y/6Px/1vqRgQDt8w6VtDQVHQixTZz47mIhCI5o9zF68sq0rH5PB9u10fQUsGcKeAADbVBtXZjgHcuC5LcYSbTG4ROGaW8+i31sJYFqbcnMedg7eZx/1RlNoQeFcKWcNLFEKNRnGFsTKaXNnyE68hMkGOxMEUaNCSDA38jfYJ5qaS8fv/RpvAzxDoYioS6derQ7P5jBA3p0HQ3v+JrSfcioczpj9vxtRDAZ19QgouHrQ//nTzBKusvl7lK4hhk4dClTs7ThcN9GewVVWeKn1iZkdq4Q2EQorUdmRYmIYSLhZdW2Das1DeRFE0V5SEbQYn3Wb7CIMV36JNpBtB+URS/IlVP/jRbu5fbAIcW5PZKAPVO0X38mL2gkpxAwsiDgNJ/JxpklTbib5ITo4uOUTKUwP3jBFQm4E3WAGIHNClsqWsp10UxszleZTmd2dZ3Hro804SRrP2PYq51Qk0vkVpLiIjbCPLz4KbuNhwerNU9v9pdRO76EOKmdeTdYKW0aGLX21qCmeLxo30UFaHvyHtphmkNWgwCJiPoicpdu9neb7pGDrwuBibrMAo0lT2SxesC2HinL5/vnwsIt9vK83z1zAKc7SSVu2qBj4F8DUhfh6uwxLrLeRT2JBHEI2KXDz90feowibkbiysRdb7++5Q9K3LN1r1XylWvAcF8SuyvaWSTrXe5BqRVO9VB0HatEw+YYTLh/45rQCrOgdOqHDXBB3sHyNs1J5FmX+4b6AxCMgNxcOqx5fYwbjInZdJ4n64WQcEIZ09EZcY/48R7jIfJ3b13xJ94O+amI+6HaspTqKx2xSz+6oINFS3wf1JxaDRAHAwVK7JYPzclgvCJbzzaqGoKNfJP04ntb5njIysZEIMzCONbPJOvRHOhbcARqEaAJNZtEBzspxBIdtGcJVmyugsygTfPEmXMFJc1nuD96sB7tig/P1FiVjF9sQPrbMrwMWfW13ioybIEgDLPq0unxL9vSf98D2V2YTghZtPMAp3t0djzkFtMOa2w36NfpjOkX3SD5lg7Z9H5hxLaHS/sxCDDzPYUhfI7geMLTXQwWITXGvGRcJ3MGDDmU2yUq5YPPusw5K1jpSvUJiqXLkp7BLPv8l/cNff2pw2axCFwcQ2oY/Fu65vuhX46JD1ZE6vYVAbZ6y62hcWbS/N/llhVCjeSKjL2XWCBOEkdYjlkiJelg2YoOCF9/KlXa4OxzFUuw1zHnFnBTCfgA8Cjhhwy8/087TuvN1pYgfmNZXbBrIokOh1J0KYLseJKGbQHGDzDLEq/7XHXyzf798g7kB4WLlCvfwK04/zYbbyOrAC3clFNcWXYkU2ceyXNuTfuudTRltcGdNU6j0gv4LVuQO8ZwZCeX1xQr7D55KTThoJVrMDjS4QkACRG8CUNO2y2/Re+wsMYU1VI2XGKOJyXMpKTQoR/5BKgR0VsmIjM+V9a9MWb4Z+1Wyzstcz4vBZd7DuQPw6mrlrclstdRUDVOSOIrpqmgQR+DV3pM6CYfb1OV5uVoIux2BRQhuWTV7IsSRmf47jIQcBvOQ0sNaUt2NITZZgx/C6/W3UwW7ceux/oMa7QtrV5qJvWt51EZKDOid1KaMVVNo9r9PZo1jKe8l8VfWLeFjHH1rmmtnaCYK/50u8H0uEJO9CmgCGauq17I7Jnh6YiiT+pGlc+MKuAyV8/2ymH4yd5NmkeK5FzazGzni8Ca+KZ6OIucKA6iGm3CjSJjY6u6C4+tfQVNH+oJhzfNK1cGoIph7i6FaghxIMr1qZyQjgSDb08Gqi/dJl1+zYx20Fapamt9M387Kc/zoGCdneZVlhA1cTAOpYPo1iI3CX9wleDcvoACrYWOnllMW557DGMLDDFWUgAEXV9TWuk/doXKavy1EUaR786RVKCa1lYQzAreDE9/Z8bPIkXcBxj0qPRRjG3BhbufGqD51GaIuXNaILrnNSSxo7GxvORrpRfrYaO1xDc/JG7AXowDt6a1lM2+b5G82RG2xcnLK9/dO5ZGYRjz8KHXy2x2n1FPFHA/xX65ASRuGtvIFf6f41q/yepRo1jZSRhaDpa492CxLu2yJZu5rgahrwFUzW04Rm2uR4G8BItF2C/CO6JVir+g9I14BNeiHSBwziEL5z9yu7i+Qx7HNqOKHtI3iVH42abvnu8pWLsERuHPhYPv6XWw8S7uA7tNsl6nyqOLzapRwHOCO9mXxbytlo/sSrE5zOs1VfXTRBy+wtD8Nsi8x7Np0+p3SeQCvwfdk8D3IUoYQ5iNp0WDmWfTzoJ94xqfC3g1bGUeNLwOMS4C8bDVKqgRTpa2rLQTH+RDg5spbX/khMkESc8eWt6pjQduZHJ/sMlDFfOBFSWZ7gfF6f6RYiZRLzg1M8IAlL/6ztmzp/wJ52I0uf1TxhjYvb5rmUPBXxV3V9FF30PDG+ITHA7Bxn7u/lUr9SuVUoINXt0avgBRDINQ49JiWG4VwC8tH/ubnN1jtTKD10Ez9yoK8x4lzo27xBVpRFAyzABX+cbF2gAJiO5AcOYz6J+aE0tBaosvFxCYJ5lACtLj6mtl4sJwoDMlA5un0CkVrh7S6asNeVuidUXuv5O7oIMw67jMide+avrZpI7MEYjrgVAx7CZB+ebabZ8Y/j5RLSQS40QReqMKfybMexof6KhtWBYWzVtHk674Dna6my3ys50unhD25hVfI0ZPEUZ/E91DqtF6vNxzpjrhZ/qlhduiKlL5o/0t0hEiktZEfyYB/DOfIsikdHevCKal70kGWp0X9WTeof8xjTKJz44AUXk8P8owkFLVvbslA/xy/7OrNWnCxS2NwhqR4PkC8Z8ynELcTYq3s+HfFEmivhQLDNwARJgyTXJ0gms1AiQRlL4qOW4qiQwKlKbMbAkSLm/V6XHojToUgSsUtPyXJJhMw03QjMmIsAt8fBNooWM5UjvgDtQsWpdba47xJGF5aHiN1Zel34jGl/oBjJH/faVxagzWaxAPB0p0Eahh1x9gsHmtbOT1RWoCx4f3yCNji/e04ubhKNbihO9pCa6ycKnv4REjIF2PTxbcuqKcYebpOSad+PxKru8efibaCfz+mQVPqiGqLmipNbffglsmANOO5sjJ6tOXHFE5yTkCXVzxnKowqePv70vcTHQEfSv30ntnfFzwbQJOap8dddidcmEXqCHBXEdwN7xxovmE0mcGcfl+2b2txo9PkFF7M5mRSG/XU3pWklTSGj8BDhr7P54aEV9X6xWf2Mr9p4mDoJu8co64ftzmGyTnPcQEGT7AN94URoTQ3Ewf2hK8ubpmGVhjjnkAiAIKWYZuhuVty/TJpkclyyqPBaLmoqOnphRsAAXB8yOBb8N4z8RQQezKHEOc5PBmda69x0qk4/MWONTieArPOXAJywlcHe7S/+9l2g1KtUlGCQ8j2VAvtUl2MzC183/z02sY4p9KNF2crE9tYvYb3ZPP60QAImm1bAuQdVtU+Ds/cb32pD++uhSNH6cG+ESQHU7CvRl5PMcCkS2TCstR57NxD3d4eILEoipEIBpYypA8yV5eAMHMKpTBviwcLB19Kvwb/XVnFor6U5l/buwjg9kCW0/Z1ggq4G4edE9YctFmjMpgCJXrYL+kdRGrST1RDgSa7GW9HMU/oSs0UFCpm/epbA5oReGVaEJI1mtEIlduzw26MZMovqxAd7uT8O27oMU7KzCd6KGxhkXGkxA2j6meiKt51LP3yc4fOMOZIfakDvUKzznB93QbBQ0KtD5VQbpy5r0pvCQQPWMFj8LgWQCDQcmIuzdQR28H1d+G+jIKbTQ9l6YUjzKV+gITy0f8UYce7dqtEJsPsB0FeKMY65ad3b8yktURxzTU62jFrl7XawYLRYED50gb8VewhRikMSe7yFi5awx94t92rkpugJvTnqw2YLtgd9LFgRaVuBQfemPSOfAAKDFXPkkSU95qgDy7yQtmCK3y9qXU/I2qpXIn28BAtEMp0J+Z/IdPudcUShB2GVTQ9WlWq0RYJRfujH4ILeH6vvCel0gclpm+0P2V57om1NfHwzX1iwPYw9wCGflCrtUiO82ov8Q5So+7H3yCgFRGtQaQsxbLt0OWufcyTK5JuH9X/11Q2jOE79KFRKH1Pl/E14VcsOaC3k8jhPaN9piewNwAHOgaeyb850wuvW8e7c/2AkwosbYXjIBV1fLub7nNeeQv0coo3wYsADRUldf8NKCwjOGQAjm5nLhQX7GAwbYx2ZbFMb++asN4qxIqJpPEy53lVdV4C0SolIXyWkKX+47LDqKRtBWCbc38RT5dgZynTDhWqbpSmMKi8rMZbU/IRv627De69tNwPlkwriXz1NA5MZt/JShbUEvojp9/TMmJTqk8GPO7U18JFwHbiAOBfAL6ixIfhKSEvO83+mgciQsKVC6TKapRUEpHBIWhjYBsZ9Novv6XkqW425rVxJaz/1JtAD5Z2+p5EiDCUHcPo+q3rvhzXH42kkiHplRWZorSwdBDC77VXY2qV9vvtqtFBwVjZuGOavyTIUE+1jCeSihRMbRD9VI2ZD0x0KL9imzVlluRp4g1OoNLLN/J3kLqiXoYtkha8E8AhIOnu9br9IpbZXam63y3/o+RtteJdAE9HW1rxik2FJGbVyuwv4fiC9Ww4Hy4H8bANjp92us/9NwylDe7kcE3qK95l1wrIh45GJpvWgk6c+mxyP5QApeTJg57dcoKGaWhzQ7cQ7UwVdVpS2yRksP/ehoX6YReTlJ2K0jlRG9KhVHN06zX5Fcb9wGXzS9soENmqxZYFUN+OIQnBlwUYbuMyaDkx94RF6KQAXuR8YM8foJdYGNO4pvWJ6QW8nw5IHIBNmz/UcaOtvHrHOstwsjeDLFS052czxffb640CpsDfP9wkBRPqWeqiIJwHJ1E9rvQ7kGLGzuQSw72H8RsKNCeKWM9Jr9U99PCQ0IBoA2u6mUzxaQejqwnJlrUg5//ZXb1JIZTBze7lbSw2RLJ/455ZvocNTjqU67MFjVJP28Xeqjhx6au8ZlJlhROl2EF1csqbj3IkMX+EwSLotSbZJb+swcjvCmkvvk6sKOEc+uriOZqyOkwP+8UZl6pm6LXKRojuuSGqBvW08EQeXCFBsdVulN4FqBaeYMpwykr6+GdkXwfuRwrj2TUmrqcJb+3XEBiYKSGjFkT14LmQzG3SwTM6tIr/G7QzF5HBa6nBfw8CfFHQ8tjA6b0E3T0PpaYba7+MWGKnpCKTOueG03MBKNzyOwflz/2DPemWF8USreKBr8L5957+7PbWsZv4yekhl5EZh4NgyYq5c1bUDA8pSW14xd4fUxKDeNZUILpzVmh6JJlWeahxFJMtMgpUM40bQO9dhlaI/spMnauzsSeX1c47SOdueOI4k+irLyGO/7Y1P1BQj5g7Ltx2ErbAXbLZ4Lcr4UOWV8KaOWqcyPmDHgsFz78yYXFsyqJHRHD5EzfOBNX7OP8T2jAYVgsea9cAq13mWlkIT0WOAti3Meo9U1nfspX+ftRHkCY3zSz48fpWqBP9fbtzCXrLRVLvgNkZbNKZQICswRuEk3vzzZvmb2s8bp34nfpZ4pz53JOcEO6F9/V6/MtXbTYnnPbA8fYBncC/2MsDItAYRmR+tgQJQ15ilkackQclePWKaqrUT+S50Mff9LiXG1s9r35pNzx6MeRAINjbuPs0ZT8wwe1UKiN/JRDKeTfybJR/BFaeSTkxoJzvTi99XrKl6v921NXKfxRHcWJA1twhwxZ8kKnyag0AsECXNNILkIVBqc9albF1h6JDaolGDRTG/16n4R25GUfnXKqILuEZ6SEY9NPGDtlILgBOytAokqw2AraTs+1E8ZlscJdX7aF0DiPrVbEmpbMCo1B0ZRqSevFuQaTHYI9ovd1MvWco8VnAxVsYIgWhrrZ12PzGVzTu/wvcU/UdhxiZKbPEGM6Tx/g/kXxHggGzsemjfyFeDK7+4OZwK5iMvJfE2V+GSR491soUkcX7XQyWo7HhgLN92NFIJokksN/BviE61zHj0jXv6r0+GwwawQ2ytzq+IZcZXajuOE5k5MQ+3b9EmC0b+PsLuna6JVFmNAKF1//oNqU7uaTr8KAhT5Llw1rT+3oRqOckDt+Kc9rSTD2ljDnqs9joBAlM19Neh/296MVKR/eVBfucMRy6l3URVMmXt2KXhjBYeIuibzPB1hGKiNLrk5+lHgn/FfbCn4Vzlz6Jchgr7u2eF09F+/JhKRpBne20F4JJuVIo/LkTaMKRF2jHTtVZYc/GP8L/urIR9YkXcpvoQNDNERYj08ZRm4/v5uyzMM4d7c+48qxebd/rMxe3CPD14SAPTLjBcMUHjTjlipbpn2sefncmzBfOSENaL6k64M2hOCmJoEavxfEJS2fFZrkbcZZfXIPCAmnr6SZhBS1q3nxKQrkJp1yub6AoCWTBwsR7j8spWaU2ihjA+PL+QSC6y45+YtVb/CNHs8PPdlLiFM0Y3uIp25hUU8ByOG23j2hBZ0nNl6I3/qhdIDwc9PXB60myb8J+fDWFwqAeSZb/DHxQc9gbBIfuZbkQMtNL9NoZwtzy8AQhMZ76GVJnm0hfPGzSmgqkjYIz/pCf8zwX2iI3mDZEZ7MFMp5Cj1t2XHmvge+dzByZSwTvVuKCV4dSkD0YRGXuW4cZ9spdX+yoJZGYzbGmzlU9JIdGxggIvFl4Vh+n3ED0EebYDH2+b0FCZjqSX5S+6PXKvxMOCQcALuOxRMO6DtkD5c6aMbr49RybvIYL2poal2RxtvcpMciaqAwG+I+ZTo6Keup3+oJswDZaRX4w7tj9YDN31M+45Xv4ZrJxsISYZKWShUFYPZZ1tzjQqK91xO5nBBn3r+c+IWZHPmfVxHd91yfocSVNmgwfM1HXCftcB+F/fxZ6umSF+/foj8Hexl/MqgPW20VWL3V+gsh+2gXM4ULw1JyrvKpa3QmZH4cv7xfqtK/2mQ8so3M4slKa6XLxTKkUrXZOFaRXHcsfdAxUm1qm12SA5T2NciAgFwcpAB1Q8u0ZFHBtubJkRfrrSyS7JMLi/0xm5/rNqctTiwyh32sis7VzyxgI3quWfHkP1CMDZgI/iqwL1qvi8c/DPKpEUNvXvbHP5IxZB09EsnrT6+2n63RNOJX3AE8OVk+ar/itvzuG8sAUUv2FwnroFmF8YetFZ9pjGXR92ytxBfP4ypel601j/V5nbHSH0nS9IajuDRUbzp+vGOZIUrm5AROWKYwOSO3kULyufpsMAp+wPcMSYQbZTF+PUNxxNdISvv55NmAbZn0hY1FaaXEbfcqXhiVKuxs4xvVffTOeNH2RzCVQ/hnvn7/eirG2N4+ABIvFtimPpOgyd6BXtmsRT3nXyny8RFF1rg7AICVcsTHis4fiLdAIqXtIZxz6SGdjOKiY+OCbYOkpRZgK0S56wYCaPcsdD9nNNKhau5tF7ug65Ejf+lvBlPITEICTRZXwznMeMDMxFwcj0VJKId1Yyyy+aYjgjmWrfJAky3n4PrHlWkVJOlS/FI1gUKknI1UEnWR2g2QS/xFnkUWlHK1WZZDRu8Pc8WngydKJC+v1V5KCA1GA/X/xS+2CyMQSvwWb1+9RZZvu67FZ+6kjTQlaNlTPWvEja+TufH8IHQ1jn1f6A8PEYRyi8tK1tVVzOhhPggSCQz1YENrfTnJ5uPnUoQatluO4h8Fnxh95lDYTcoTmwoNO8ucPGo9ktRu7bEQWkGnngqtH52c7/2Qqz62SXRv8fWM72/wG5Yb0OlqfT69e4gzuCZDglI94Zdlj83KxaJKwX/Jy3uv0rp22HY91SewiaPpy/2nUw9QmUOnti9c4/Lxt0ThdJ1ycCHyiHbtW0sf0vsbmbm5fRTKPy1Vq0wbNOVeckaTz6gxDzwbzbQu+4D4fD318/y9rSfds8TmuQ326+F4bBgST5+5d/B9C/uJdHDk7IY4OqmafdNZMHjXp2HqWktypTzuhrG2Q7N1NkTLYBPcVK/6S9ZpktGGu5/1CmtHUOsP9Lyc2H/r/w/YGYB+EgJGm2y7yRdr6G+mjFW8Ai4HC27kTl4Vbi5aCcNjqNPqQwLpYAQrMwKjdNaeWD0x6+SusrymO2WEvwz0VIcRu0Z8fS0IYSDXUwDZj7hxAEXhYZJjab+QV/G77v//yhZVCXHZotOiIKmfz1PhYc+ggHwKkgV/hGkWsFHkwCDqIYZjdcKLvfrsDD+gnqVY0VX4afdFX8uoojKkvzY0W4ZXWcaZroGozB8xUGbdiXnMSzad/o9UygPhitztBwFdKnNMYOZVkmgS6STTncOzjFDQ17dnrbPtq4s5fwWCxXDI6lfYR+0nwDe9Wg1zyw+SBYJlj1zIBdquv3e07v8Wvprqie0Iu/SpDx/xdfTRia9tech5OTIN0RZUeE4NjE8JPj7XQBME0yUnnZUGEiaoV2SNY5IVtzgWWGKIC0TXgqTvDBPgWRhAArWYD9KeCv/ToH8Krvs/wNgGk3j5sqiV9IMHOaN/ZWTJJ/FaRv8SJuUwCpzXbRfa9skL6a3a904Xgja99lmQk4uIryTDY89QGx5R2efmeWQ9IwQqdftT5F4VHzmyuRGPnVuRI1VK6VTlHAzqxXsY0fzt+BOYe7rM9qCQ+nnoVTQ1HklyNdcJQEEkc/7BC5c1Qk7ANy8NdSGoG7hHLeIm7Y96eO6YodqiNlRFOOAmucwaaY4flXQDjVFoHDMcylaGmsq45dZcIDg98uZ7CJAv2fAwVtmyod+VrJHijCJbIo7WNMqWNNPTfWLv2gPLfz9Kw3LN9inkBZdH077Kv+7fovoW4/OLcZyRL5cwZvQekyvb56H4ljhD0t6+seepBxcBF2Fx+llLvPKZ789CrxNV7klysc9GSY0gbspMazKDF643QMZg7w4exsSwe7lXjB3EB9SwS35QV61jENtLje67TEX6FNmVgr1T45e2hB0AO3yhUKC+a94GUhgYDf685XwoxGbJUTd9bN1oTody1fUn1Zy49YjZlMZMK2yz7lYqmPc/tvUxgD6q+ENXi02fUWGRKwS8RKi6Zxd0oXQUvFWVuF+bNsjS5FtMqQJ1g39JjvV2KkBPULS9n8DteN5cNB5yyg9b3LqPEtScNzMFzMyAcW7q6F0Hf+H7ikNPXHFf9tW1zgm9vHLkzw2WJHy4Da04Z5ACM1VHrjwmwHcMWrGl+LrwF3DIidduSLQzhUu/X80oNPGfrufRj1DsLfCtKTuFCvEeI8hsGercAq8QAPvWf4vjofbIJ9vw7NVJeNBhDVU1oNV+40wBy/JhJWBOZNFd1ur//T5017476r5AGzj6YfnKnqzxzcfr9vYZLWy/Jey3c6tSat3tB6OALca8WB/DWFVQeor3+/kpGlKsPX2nrdZgjsg0991rk9QvHkbzC9mAR16XEGbWNqaW8xwKA+Gl6nbGXqUFUo8gauhzc3MQEPg+YeTIXid57srrZyVlIMHt+h+vyuEavlLlmdbIP5kmEHQkxrPHb3yB9Fzw69ic9rAAKVK9SI2EIe2rtRCGpw7TIk8docjnZ2F9Lzvw/FiKpYVriTWfP+OQMHYGQ0WScF5/xPgHx73HnxsCcIQuJZdTDhB0SWS2yCqvAC4A122J6j38Xy/K84ytEhzzDXphgU5AdOlR5GD9jWvcwzH5AR9TJ9TtkHhPs/vSjk6ea/l6zfEJIHbkHO6yKbNwygdpq6AB6oivoiZ2LKRkI2nlK9hRmEN610t3HJlYFnyE9NPULiNDn+n1IpkWopGMPvO0xifU/SXz6Y55ZB94+xZtnSu2aL0v685HoNIf7eYAo28OakHwiEyw8Dwq/pyZZEKQdiWBxOEhChs5CYkI/Iv08sqTaU7koo0to9o00CPJUePScaVF8DBh7mi7L8idWv84neCLqWD8ObOxVtyBOcDy3YiYvYOTwuaMQUDHirWBRxW+Bqbsn5GAbWA5bmLlK96/2iF1m9QmzoZsGBWwRAPsSyy97GY5lFe859Jype9dFgF0P8N/pl4g9D+laRE48koZscvGHFPEfOrhbVd5gqJf2jrtqLGaM82eQo2PBYR34EsHRBv5WX1UnP5aZ4PsDuvPgQPH8zrDm4xU4vU+bF3/ux0cVthTEDWmaijhH0V1lxsQ0BHTglVygO4ZlfF8wLjp14JwcLtxbXtMEZQdrKVp9yQjeBFods6UOBrnRpNlf3Dxvfqc+ECZ1G8qMaZ+gVNF7QSuT5/mcOpVI7OZZTHDxp4h4f+0qDOFLfeUBJII0BFpVFe6xp39uwaCO5cPOJpdLzEqVDr/9uxIKf64SAK0sbVzd88jAe0BGt5J0GRytnoVh+W6SMX754Wzkv5bsEiBFs/jNAcuW+PgrI4czicCBGM42fQgqXYa3Ne+nZeeDSQJUI0q9d9CzmKDBpEhLNIb92IyR9y1zZoCwLNM2+SQa38w2SJCKhul5OwnQ+hcHQqZHzh08PRKnPuKXnL66WyT95SN9OlWbWe6mWcGHDQpncOUstNua45t9uH1pt3KCVTrGnGtbiym4L22bxlmGPeaNpiqLJI8NtoRUgmGe3pjt06t9EnhxGVST7y2sAwTNxmSfnMnK0r1o+Tr+07npYoMD8kSFM4H1FPMaPLwKwL2wJKREYCRq94NHPFZjeQCKzk5VZ7gOftON3Y/XU1TSAaRhqOfqfMeA5QWub3FQoWbOp7lqN0S0bIG3AzTzCRBZ+ZMJkscOftiFfZq7pe/hOqbVlqxTAp3xXi84+T1rzr6R3osoCu+A5hVX8PX62DqesUBn1fAJCdXWPzDK2wHOW5k5m9huGbWB4+4m6byEJ1h8gyFbNqLVSS3cVOacdFuWWeAjUJpXmGHGNsHUxziQgr2iBlKCThkiEc1YUgSxBgwBPqmDkiLdpbffYDOtYlsLzhxryc9zTIvIvgJfnieuM1R7F8mMNT/KzHFBZrRKQauq7RzKAUw+XIsNzjUJBiOjHHIAc/kR4qwljSkFp051s/TZZFM/MdTDkZIbwxwLcTm2Z3wE2urTq4Wj7uuVTGmof1U6aP6KFJXcRcabetAGMSpgjaTWqk/O+lLfYJ1XHeTIqvUcn6NEMhnIs32qdyh4XDOWM+JhYevNQeYjKTOKcnmaAIXPkc/f9q6QfvXV4JZ9+UdsEkyARN1AiM40KdfRZdB2Sv0Hu154URGFxSpTIujPPsZ6FhTtc96IQHRDj6B87wOGY+tfP7UqoMvJ+ngWG+lNwHFdsfgxep+i+FBVRgnuKdQ98BMEg+544pC0qiB6oLNhVZpAkhbp+21usUTn5JNTWw48d7sxgRM/PNqDJtMDHPMl6343KvtOPlG2WMqvQq2RY77alHOmT2pwoLUxe6cADKC6EMxnrxtlyYiy+4PUCCfhqC5WnXapCD72cv+RrOKz9ln9lhH5HIncZaSInbS6Fcf6orFGTs53bmEB2esl3R0+R/kZKiyA8/sX7pSoT6943JgXa8V/Wg19v4rw/iq+5jA7io53hyPtbufkdYfy4kHbPxgcpnetXs7VhVnAZT3XSUmFP8Y6gVwyJA/oJM7loVjB/7Dy+rFw/R2Wiu0Q7sDOAmmOTvMuo4s1G3wpTobbhNaNFnK7tqWF75PLgppg148h21kFt7TfK07WtbXTfzdtp7IpmEn7IclSMK2bJdk1FlSp+eEXFKRCIeTJu24vHVD9rPKxJtyyNoWHydnCU/YZjYldJVxFJwKcqWK1lnqQW2jlL9hKP6h/AOz8Mohj88Yin89nwKPyzygi0AKAJpUjghHkoFHvyiURFm9n064N/MNZhrbVdb+zbUVfxAJHVD8zKqEC6abd//KPVRuoCuBrWe4WwAgP7RkmWcbUMNdBiOi+7QE+QqXpaI3kBQv3IdbnhLNRPV5zoGFQ1H9LDq+f0ZWWH2bMyljGPjlv4kwFJyXAFkMKSb/2vkzE2T2gdPW4bRnpKBlE+7Rg+qNFn/bJD9ix7a4oZubi9HyktLZmv8TbUI2RXbXpubXM1NX+vsu7XJNZDJ1nW2h2J2CDDbE3CY6pYlSaCKzXM58nCVL90lxV9Qf8WFgJQPI1ddXRoqAXWOROYWcnFgvl2vQu0MwO+qe2AxgEwEdhXG1giS9tzV1+nN7FAepWi/FKzLGBZkf+FarAByFWYcaodcPGaNf6Ng8+gxs49ovrFIJ4jBWo7qJc+6dwcVPeVhhON7OcKPDdvPyGNczZtwR4Cs3FsOXb8HcBZmz754NwYj+KYYIuY7aH+y706H5pl7wCfXz+5Yr5VFUgp14Vv6bnKP9+s65WZo/Zfrb7G+zX2w7bQrgYKTdR8BZMgI+lO+jYwKKKZ664GZ1DUuEgiFYOZz1lwXbpIXezFWkv5h35lH7dQnq5OrcnyD9GfeIJuqP3w4iJcmcFrsD52OICO4ra9P2BJDuJHi6q77RJSqHQc7gImqLBq+kIFfIaevarxlbWu0pPXfZ7h+LZ6koVXC+JX/EbPB9XVWWfOMx1FNlJi1ieYxyAkTCtEPzHp7l9LgLtfXVAIohUgC02ETtHfe8g7gQC+Z76Y5b2UmSZWUFIXkIL+rxmnDjo2nWYSSqT0moDWqfBdtLbC0ggxagSCGbnSwq5zoXkB/TLZXJGRPxOkpozWyzpS97U+uEYNheEcDGonnnjpFLzqPyQAygOWR2YKL8UYlDBJylXbUqAuWZefeblrti5KUAo1LLldQ8whMyyo0qhl3tcAEsK7kUPefMLqKqDgLVmrlj+ocELwRfpUIpzRW1nMyz4jnhqEDYuQ5bErlV/QzHrx9SxXk7B/MmEK1w01sHQCwdvkZdMMXSobF70O9IwfG37+l+VN5bjuJgitiCHh4kkaywr5pjwA+1ctIORHfvbgY3H2Wx8XMwsWwO+1rHhk0O10jY6tHMtRox2pvUKusgyA8NDbfEIzTIxB9B4EOGDCsDjK77rNCZVwLlzH2H1yQI+36PHYi6GGYN6xAGuUzoTu2wrHYVY8cxxCWXEuR4gCP+h4cnPnjupN9/Zcw5Lmdp7gF6ipjJ+cgAlLDxPKT+JKAKZwOvKoZIdSQ/Lec5g237AJG7bUBk0eJczIUD3k+nrHcF2NEzAfK3op4B+nG39vvnFDbsQaAcwmp2494/XIRlkwPue2SylHBmt1Qb4dSSYxG+hadA+bsE0EqSyO7TlnWrRppqADhmjXAiIehGG980fciu9hdNcBcmQ23+iKKAy8OR/f8YxqAJL4c5alw6PwMtO9BVZ/3nJSJL+VD7hzePrXt2Z1QVhwCs1rghi+8K5pn8PyF5GrUXheul4v6hP4GGKsETb3GAa9iP2Kn80r+QoYpnPn8cUt0zapxgZZattzb9UtfFWhNYeouJpf0CJXzpQFf+/WRlYZM+90BnuUoUATSvtpEEQXSq4CbuHmbb3rl26zbDWLVxeDc2PvvjI7rQ7mG8wijkaTptFXUfo35lzmofBNukShFGNDZsE4tTM++au/BY4zMf2tRddo5+5tvp/pI+zXM7mjXkO9Bch3ZkYaQRKa7SzfKDT28122qZnv4fBbKyq1A05B905xxgF2Yald6oFXnaoN4yzdL88PovOtqOyasmGitFR3HOR5DXEX9x8P4CgsxGegJYSSj61MNKYKki4TJjVC4DcAL4roS6vwDJUWcHXOQAO+AkBS5BjbzrI/bDAJLstUg0xtiFjprRzb8DklXUOctAy2Xe/HVOok5Dv/Fhs32ZcYdHDt49nVJEQ6V25Qgxfg43Ky0+VyHamXXJwQyVd373FV7PkLOJVuIHTBdrX1uDr9qfNxfS87gn6RYpVCxSgNuXAGg0lRv0yyrv4GyqKUy/9sCpuOSwIs0U8EzGEKdnfZboDT62MxjslYP+GeJejmVEdevzh2phtVnq1rj35WMM+9rj9OX07+BcD6Qn+G1HlyL3xRG5cbdZqTtG2fVBzh8d0U7hMBFICG7NnIpMTdweEIbX2lBLv56ZF+uqEf/ckC46FFhALnP4YwtUvDqRuytsF1WrqBOIo+phurJk5EREizkwkqdRjpAJmgk2M1/iq8p6Fdx0aTrjFRhvdRxv+pOYZQ7ImN8D9QGW5WYelbsRlbbUvPgJtvFIuu4u7T1FPNgBAp9/Nnec1ccYfjf+cSlcGGqhjn6g40Ro4kc4WKvS8fpiCfRFebGqEWErs+lKDHBWAuGplorPjbBDAzkUBz7598BajaS1clqGxUlPrVLEgnlziH/5vXkhxjhDdD7+Eno4weUkL7IvY/9yfxWyQ9lxt56n8ZXkERtHP4702vc3fOF4dCONzige2Yc/IHWreK3Wtc3l7hO0Xyvuk8ucQtU4bSz445eAFT9IuEsQJ7VJk9PSmO40zlz2RCkNraZeFfDCbFQniZzHUwUkcx+B315FZgZlCMwVmpXAPZXfv5PebPuQgasabm1DWEqQVyWGYsiJqF0bBSjzz4f0P4RoEXNXeWSnki109RkXS6XZLcV3QnY2Q2DGbFp2ePV/v7h/Wm4MmvPEXZuu2Xs0L5X70K94xCHydkCDruWDYVGSfNAHsZg4kErnyaZPIjIwr8ncrYbo1MABq/29C62gMbXXAofGu5LFQBwrzMEdMhTRs47Vxk9pMY63dYeJNXRWpLOTMpNjrOYoapg6NIhbKcM2Auf5XSpJeow7FKgYxwOz6MqEdAPudxD+ohQs5XE/oQRiVRq6+W5ILoQApneKeCfhgfExUUB6vu+QoyXpclLsD/9aAMwrOFtGqxOWlm8/KalWbqjLY1A9izZHtwX8CIeVeYOBpFJ7gBvLbSJ24oXYAzj+oXtETkwOIlt+YVVAJ+16OJm5kgvb+CqyhC0s4LFTjMRoUeEWro7GNqqLHpWsOuAsmaGWltbbgUW080YccZuaWyOM5a/fBSoGY+UAWHLqLcDkv7tdEBDBo6c2OSTNwDQ+8Pqgvn4dUdRbiBNb5o6W6Z3hXBcgzRLvvTdVj5f6mASCePjlBkHJ4retPhQVCkPnTMapQlFwRBaIZo8JiG9A+Lsqu4Jw4wRkd/2xtDa0rHbpMMb8NPa38zruaHP3JNPACMfCqLntxtJmTCtRghq5Yn6Y302hZEcvE00XQ+ugOMq3gy/EISifpBR5fw5XQcsgj+eZR1z2dRR8BAd4U3ZfNjBph8ARG82g7Nj5GFP5T7ysrtwidRWdvApUZfzONv2SG1OB8je8SM9as5+o92VEKPD+5O+uWLREcuF5b0O2jXpzJgpsNq3we5p7gKbVnkCweiU3UMpv1l4EswQLeLWn+MV2yvMWpzchXCS6jB37lukKO6+4oBJSdm4hnQQGV3x+kiJAXcPg1SgIw+bnku/1bCAErkozdTodZE8Hm1TuJrGCjOEB72D+3fdrQa/ctfRNN9dV6oyJyhTaVYVaBOH3SKNnvkkjcPG5yC00Hj8MDG5bMGH2ueV/lwaxqpTuTYP33jjDSOa3JK2tSuN2p/0o+caxiBZ3zsnnFSTyVicnlxbnjLq34PHnAw2pvF0Y/NQaSnEjsIa9/d3Z3U65HhfV5HEKUTILiM9WViLbSq91zEBQJlePkLQrVhDtZ75DdD2e2yiZpuLjz7QS456Y/UBkV+fP5Z7CYsv5FCtDp681fEdQw5QO5Ib74zQnsOzJsumyrwTXe+eblRgA/BY5iHJqnqO7DJkqIiJdlqvvLoRRolX1wX988MmOjZ+BVO/Gcy5FoCEBQfVkqtNfJBoGIxFdRSYQe1Jpm1CB6l2mAZF3n6xarS83tYJ8KjCvGn0+g3X3R/+5o8YB1dXvrJ1oEAXAVF+orSrimsEJsK3USHWLJLBvQahWHzwCzHpCIozi2wqKKI+Om+Y/eTWn0kpgC3kl0+0mN3j7Eqew4bLc1F2uftuol2rLbaW9Id2epKM/PLLl5UXawcF432i5rKmd90Dgu30yfiia5a4nCrHJf2V/sG0OaUDtfwG9R+a+2WboG8++jIM8TtEmkeJjuU/637GeQTQs3QqfnBYEMw8I60wjaxgoiZBXGeWLfAyvImy8T78CGXRhlab5eVj7JKzgtr8OljFTBCDiqyF7HYCCARVNPVcK52kyp47jyo4TxAlFv6vPsvz2EWgAABFWElGwgAAAEV4aWYAAElJKgAIAAAABwASAQMAAQAAAAEAAAAaAQUAAQAAAGIAAAAbAQUAAQAAAGoAAAAoAQMAAQAAAAIAAAAxAQIABwAAAHIAAAASAgMAAgAAAAEAAQBphwQAAQAAAHoAAAAAAAAASAAAAAEAAABIAAAAAQAAAEdvb2dsZQAABQAAkAcABAAAADAyMjAAoAcABAAAADAxMDABoAMAAQAAAP//AAACoAQAAQAAAD8CAAADoAQAAQAAAHwBAAAAAAAA;clipPath=inset(0.51% 2.33% 5.56% 35.67%);" parent="1" vertex="1">
          <mxGeometry x="1896.827346205658" y="534.9452826086956" width="287.85660027790647" height="287.85660027790647" as="geometry" />
        </mxCell>
        <mxCell id="NP3fSsR0sqH5-8vcrBb5-11" value="" style="group;flipH=0;flipV=0;" parent="1" vertex="1" connectable="0">
          <mxGeometry x="2356.2640323304895" y="519.0373260869566" width="300.73596766951056" height="303.7662173913044" as="geometry" />
        </mxCell>
        <mxCell id="NP3fSsR0sqH5-8vcrBb5-9" value="" style="rounded=0;whiteSpace=wrap;html=1;fillColor=#1A1A1A;" parent="NP3fSsR0sqH5-8vcrBb5-11" vertex="1">
          <mxGeometry width="299.97844634036824" height="303.00869565217397" as="geometry" />
        </mxCell>
        <mxCell id="NP3fSsR0sqH5-8vcrBb5-10" value="" style="shape=image;verticalLabelPosition=bottom;labelBackgroundColor=default;verticalAlign=top;aspect=fixed;imageAspect=0;image=data:image/webp,UklGRvI+AABXRUJQVlA4WAoAAAAIAAAAPgIAewEAVlA4IAo+AAAQHQGdASo/AnwBPpFEnEslo6Kio7SaeLASCWc/OdUyA/rs6pDf8Dkzlx8rKBQmYZC+lxs1z7+J2sG5TogTwGvpGB13sL69TS8khmuetYWWCva8bepzt3XAehXZRstXzH+m8Bfzz7//d/mn8aF+f5Hwb+537/1v9p/0G1Bfy7+tf7fhKOl/3b0C5zHir2AfzW9h/Cx/Mf879pfgE/qv+W9ZD/Z8wP1/7CHSr/er2kiT8ub1I2dzJiQ0GTEhoMmJDQZMSGgyYkNBkwnQ4rgiU3CMZ3LwodiA8icfMaSML+sOefCjnVAgGSX3frQyHPwN2M1fjGPTaIJHkpyhTqBD1kS3LboAHkm9UCM4x+lSTeqlfqko+3CBDQ5oXtap0MhlJGFrGpkZrvlWElKW6BDxbw9w8eKz83B+YTYOzH2tie4lJR4VkJAeaHFkAH327mcLW6Tlj/TxJGMEwFDxx9UctLorvTfVadPl4RrOjj8kBmDSzlfKCAY3wyAujwIH6VkdxRODmnyAJ4gm6gSHJ/dRHjXRPazkIh7mKDwWAdNzbHzTkXl5chScuL2Y4e5zrkcdbBppAHSS94hE6jwvsyIUxqjAV6n6eoDNJ86Mq2wIARbLwLcX3Nh1Bo782bNrYJsnmYNLByIuPgxPjigG4nYxXRDfwGL0nBLkM1DO+xCxmJ0oDFPKo1syrC7EGKemW4bdBG3vYXob7mnmtz1W+zBT1xK8Ebie/oYo3m/2znpM/f8w7YDY8S8ry71S2Yh46aR7g+Gq0vT7OgbiB9Z9tvd4uwZX1ouAvrtVstiR3+PUNm3nI8+cdFPoSJNo+xdXvd6ot5dg1YwTC8oQmf4ScjwQNNpfWjp/WZAjRMDCQgTimjf5YBNSwYiqbcOsMG4oJZCDwC2ytlgc2K9cporx4AEgU/q9NrhPh0T7bVYjCkADiQeqxOV/h/fTv+0/4OpbXmHUEVDsobYl12U8WZW7tvCKA3e0lPGbQK9Ae3GmPwC1DMCy+SXjlT4Z3AEFW8Zuc2kpUNLMvN781ENZG1p5uqfdThpGJnzKnQmHyZdG3dXxnCuoqa3xuH/lkrhCGitujkNF91vnjh8KpoPJW2BxOTKa4e7OWtvblbKUx9ErkW0Lb6yCZOnGaMPjyDV7lHJGtbRAh/m2oU+gtJqXDnwDrwfLTy7d+tNLpAKBHeNU9ESHq/IsrSpFsz5ncLVIkxx7MsAxGUUUkKkPb9L7OZrhCzAq1J4Du9i6WXXaf3wOvRVwF6igHUD7gnzgV1C88hMo+H+JGMvk8Zu779pnXFu8gniFGBV3FUbo6KiY4/aOTedzNMHCTdgovN0UTmNw/von7NfCAi0bXZ5rl5tofTgMRxNatyK9vr2AytXEnsMg5bjcrBWAF3XAgeIjQkKnDqdJgxVYswt1JrQil6unvciCPTOmTwZ5ZEMU0QiY028J4z8F+yy/BxUPRT2ak0NRDLE/Fk8j/it8mD8DdhxH5xyh6jsbJSH9X7GdUvd20s2CSUX7sJmmo57oWMbAT5TNJnBSusvCLt4rvZ9XYc2Y90iykq8IaU3hU6fNwn7QDCIGZhKIZFJiQ+JKWpHohHx6z9kMxfPu5tT4grmSTuXoRetBr50LGhX8hplgI/SSGDM/Mj1+6f4IhfTQBE+8Fx1lR7v0m90R1sTq6AZledz+9MN8ac/zzbt6TkaOJSr1Z9FS60zgc4ffDZNwEErz0Wtzn5o+33tRvaqLx5IEV8WnjHru4tmFfdQXBY6lTA0SLggbEwzNKNDIdGLEtmiYguHjf6fD15yOt0dYvLfXxBar93DCkcnyxy1aXNor9kDbjLHkWZnv1DVj/v7YM8lrbkHk/UG2dUWpLbNXCQ00gIhSiJV7V2YdcPdLYaBF9MDBFeGglOK1Me8N9wheT8N36g0lw2kG6FLYMD1jPAO6Bcnv/Ugu7XrUtHdfEevKPAu8LnJMc1Q/1qaBZopM6yi6cR+d0rvVzF1iU3FYLPhleGTVrBkedKVoMmJIxJPZJzhhlSImGnNxlbV0LKrVrdtY+xZwyvCN5huTooDo5GFcXzHFhxGulgQGd4WtH3ZUHXetoaM3EyrTRleI5utVb4fUuFnWfatGp5uXD/IYgKE4K/t/Hsin+cFg757r/eFT6ZTAaCFnNFvpdjBoqsSwHgDmn41NyT0sv9o3Ag9FIl+fLgc4VXiyItjEPTrzNUUc1afgIt+bTysdWv59YuSJQZFgOHCeRPB21B6JlD02pNXvcPFL0wdgXH2uB1lwUqR+Vl5zNTskHPTGZXJZ9CqftdvbuO6osJ5Ewbh3wV/vmRJkRx0v+JLfrPyKgNsitfHiRVXsbxsuMN+ido0i/TfvyyDPk/2V8rYW8GvDKqF6v7aSUsxURFVkH7xk3FucCak3zij1h94eYFQdLapPtf8TyEkqS9t0iCTXWmXhZb7NEohs447DeiYGCyoDfB3a2ZBEDWKthoFgo92T0DdkskKdQWzu0SgKnytVEaTgMbv77hs4y7hFRduoIBL2d6pzZtnkrLDt7ECKUa1zACjX9wB+9vo1TDC/zQnQOsHbPAqX9UVPJU36hGgH8viDzTP06+BSwt6K5MVrEPBdvTdEHELnWMEXb2VpUbL/HQjqqUXxjXpxeMaKrM0qP4qVJNEjP7v9R4M2auHCvJ9nRIv2myxrWHG5Y8DlnQd7e2xNztbVFGnwVNdOmLZ2P2MFmvoPVFoW1bI56T4rUdf7K+IXprKlJfruz6o6ZSUcmZLcjf7uyNQIp28hePsq5Vppt3YIVO091joSTMXDizU3+gtg6MCErRbIbu4hB1g49K+2rmfD9N+jnCUlr+7xJu/qRozLer21jgjTHvvE7ueHX5QLkGh7fnetButB34kf0Y8O06kHpM+VBgt/R4M3RgNAI0N8IEtMyYaIJ/lRXHurMNk+NwG65VhZVvQcrMZvPbjzp8eSsV537oaUSrXygfYnNqXtfTwmVapdWiFACWUlLpggH38ZzQ6vV9pfYu+YRah2cP3pK4JbPSzf+rVKKHoD3m6Jg8PH73af8fHvmLiKdqN+uwAA/vG5D/F3NnUrmfrinrAehKAB/QADz96TkTIzHe9QJGMqkGONAAhCAABKoGgmAC5YwXqIUmm84xbJgAEARQUQRjANWtbAbnD0nzNme9P9IGxzr74KNFK7QAABtlosYf7KlszOgE7juA/Zen9OAAADIT4czqBL6BU32r1y98oJ3aH/U5pDQrX5ooFHEWpifz3X18PIgZ/UHlE3bxbo8lukEdfloJPITcJARAyZlE/9u9RyJ6LRdhr6I75tbG2/sBiM8OHsEp9RSi0DeBG4KcnmHwnuktEOzFDp8AIVkBrXWiE7G2j87IAQMXg/PEs2Sz81OzU3ik2Uyny6aHJEUFTYj6UqgxyIkrsw3M4DU2Iq+gDit3v+6V8R6IO45Pa+mILh9au+SiMLGXmTD0/Ss8hL2mU9qtm5eq/cjQK2ILFwOCM2xUZaJaCvivSytKb+2hfzdUBkdpHY7dZ6yAAASDtWvpXAAOhgAV2OTxAF8FCY7Qfe86CduhjezLH5hsDs0tQXUdGzRKj8zCaLCfdZuhJ/2UoB+p0f6H0skbvrJDiB43nj5HY+FvocZN5B1H2ng5caDbT01YkXMtdI14gx91BN5s0ah65VbPo51t4o2t/d+KjACktig7wJQmo0U6P4L5KUYF6GebcEyxfMFxix7WQaQJoLZnJdX/81cQjio1n/Rn0npBhSPC6BH1RQTDClfF5phwFZ0ES/OMsuUGj9gsDWFiueAzZcPdv3ybiiq/uDCJbT8I+mHiHrVodFzZQt6vGWxIniGjTeX/cNyvt1uixOz5OyTifHYS6g50WTb4GYzF5uR0rWwGoxGdOu0faW9O9I8Ie14RSdZdqQCwHW1+7xFIdOhptpTSjRGm+skEWMV5s9GnWwFw2TP0h1kf5r8AAD+AmE50rv1lr6RnXd1nW3uhcGNEZ4BXOPlvjmdVVnFHPFitMpNjyrj/DVuSe1k5ieAL9spILc6rklH2cQ+2ok07fJroPvWFFrcBaYi5ALNIhtycLVp0n9gRArzix5W2JMUV8g1n4yybGQjJw+lRGEkdUxEH4RpDTxEWf7xDggHmzI3YYeVm1QwCj+Vy71zC7jH34BXVP4F2PXgw7o7wwYo4iWhTSotD7scnlIDDDImJWL4cGiclMC1f6BcXq9FJf0Ig6HV9jqgn2OOyAbXTm3gZMtxmNsh0qJgiDc37520uF56k6FbeyEkUAITYC17LBj23YjYwwFljvJSYK1cUrrsC+8Dz0G3Gr2E+vTuulbb009sQ0582Y57VMYWBWKRXiws0KgLmwPSGANFNoESyNiOnb/l+3cUwzhySdlCmbleqfCtIU1tfH5sotCN/WXeVjVBMhRm2P2TRCbm/DnFT5RqFOSjrGETVWH8NIwRzEetZE1WFugHDh+Y9U+fgrMwzrYcdKvBSZ3VZUD6df0S7Lb5cVgKHJneSnupgZwAKwOhcAIwDKdOvV8+USEMkpjThQBMDCbT8eL4G7kEKDkiiCP64Q5VAqmWeJrWGcvQah3XijmXf1QP7fUqLhkxV0aHegFp1fp7kJtSfzJRF38LYYWnzFNb8PcjjIz9nTokOtEtykrJix3GkSdU2zfDAaIiT96CmTpGyhyhABFnnJU8TFLb1i2qluCiKC0blNjkeDUsCzxPtyZZnlYJHEvhu3ymd4SUpM/ZO5nlOhKdEfKmYfcV8JqK34JZEwQVi6/zQ0O3omfn6FcGlH8Unpyfevj/xUTs6po/qp6G6Kc+fVWet/CEJ7daeIM/9mo+GdWGu/lkYdpF21UChOjm9rfHiHs8jS0zRREm69HMM4JAjLFKTfpkbcH7TV0ijS+n3xenfRWU1GsH8JM1GA61//nv/1XSMQvS/HeKCr+axuw/rInr4sIdm8+FPm6+isqGF/f8uYBRHL05Aps9q96XvNoHLjwBb/Ro7E1hyhzUfBJFh6A7/mftVef2xAz9Qc9Ll0SrQwyNN8LfupYK9X6ZDx8qlsli6dPDtJhSXmarEVmD0KrT6u7Srwa+LFP/8f9L2H9WAdh++NOGeZMReQWsf5zq/mVNzGkeIQCeUDwspIq6KZvEt+1tZ4EX693QFnYD9b1D0S//E0y/6Px/1vqRgQDt8w6VtDQVHQixTZz47mIhCI5o9zF68sq0rH5PB9u10fQUsGcKeAADbVBtXZjgHcuC5LcYSbTG4ROGaW8+i31sJYFqbcnMedg7eZx/1RlNoQeFcKWcNLFEKNRnGFsTKaXNnyE68hMkGOxMEUaNCSDA38jfYJ5qaS8fv/RpvAzxDoYioS6derQ7P5jBA3p0HQ3v+JrSfcioczpj9vxtRDAZ19QgouHrQ//nTzBKusvl7lK4hhk4dClTs7ThcN9GewVVWeKn1iZkdq4Q2EQorUdmRYmIYSLhZdW2Das1DeRFE0V5SEbQYn3Wb7CIMV36JNpBtB+URS/IlVP/jRbu5fbAIcW5PZKAPVO0X38mL2gkpxAwsiDgNJ/JxpklTbib5ITo4uOUTKUwP3jBFQm4E3WAGIHNClsqWsp10UxszleZTmd2dZ3Hro804SRrP2PYq51Qk0vkVpLiIjbCPLz4KbuNhwerNU9v9pdRO76EOKmdeTdYKW0aGLX21qCmeLxo30UFaHvyHtphmkNWgwCJiPoicpdu9neb7pGDrwuBibrMAo0lT2SxesC2HinL5/vnwsIt9vK83z1zAKc7SSVu2qBj4F8DUhfh6uwxLrLeRT2JBHEI2KXDz90feowibkbiysRdb7++5Q9K3LN1r1XylWvAcF8SuyvaWSTrXe5BqRVO9VB0HatEw+YYTLh/45rQCrOgdOqHDXBB3sHyNs1J5FmX+4b6AxCMgNxcOqx5fYwbjInZdJ4n64WQcEIZ09EZcY/48R7jIfJ3b13xJ94O+amI+6HaspTqKx2xSz+6oINFS3wf1JxaDRAHAwVK7JYPzclgvCJbzzaqGoKNfJP04ntb5njIysZEIMzCONbPJOvRHOhbcARqEaAJNZtEBzspxBIdtGcJVmyugsygTfPEmXMFJc1nuD96sB7tig/P1FiVjF9sQPrbMrwMWfW13ioybIEgDLPq0unxL9vSf98D2V2YTghZtPMAp3t0djzkFtMOa2w36NfpjOkX3SD5lg7Z9H5hxLaHS/sxCDDzPYUhfI7geMLTXQwWITXGvGRcJ3MGDDmU2yUq5YPPusw5K1jpSvUJiqXLkp7BLPv8l/cNff2pw2axCFwcQ2oY/Fu65vuhX46JD1ZE6vYVAbZ6y62hcWbS/N/llhVCjeSKjL2XWCBOEkdYjlkiJelg2YoOCF9/KlXa4OxzFUuw1zHnFnBTCfgA8Cjhhwy8/087TuvN1pYgfmNZXbBrIokOh1J0KYLseJKGbQHGDzDLEq/7XHXyzf798g7kB4WLlCvfwK04/zYbbyOrAC3clFNcWXYkU2ceyXNuTfuudTRltcGdNU6j0gv4LVuQO8ZwZCeX1xQr7D55KTThoJVrMDjS4QkACRG8CUNO2y2/Re+wsMYU1VI2XGKOJyXMpKTQoR/5BKgR0VsmIjM+V9a9MWb4Z+1Wyzstcz4vBZd7DuQPw6mrlrclstdRUDVOSOIrpqmgQR+DV3pM6CYfb1OV5uVoIux2BRQhuWTV7IsSRmf47jIQcBvOQ0sNaUt2NITZZgx/C6/W3UwW7ceux/oMa7QtrV5qJvWt51EZKDOid1KaMVVNo9r9PZo1jKe8l8VfWLeFjHH1rmmtnaCYK/50u8H0uEJO9CmgCGauq17I7Jnh6YiiT+pGlc+MKuAyV8/2ymH4yd5NmkeK5FzazGzni8Ca+KZ6OIucKA6iGm3CjSJjY6u6C4+tfQVNH+oJhzfNK1cGoIph7i6FaghxIMr1qZyQjgSDb08Gqi/dJl1+zYx20Fapamt9M387Kc/zoGCdneZVlhA1cTAOpYPo1iI3CX9wleDcvoACrYWOnllMW557DGMLDDFWUgAEXV9TWuk/doXKavy1EUaR786RVKCa1lYQzAreDE9/Z8bPIkXcBxj0qPRRjG3BhbufGqD51GaIuXNaILrnNSSxo7GxvORrpRfrYaO1xDc/JG7AXowDt6a1lM2+b5G82RG2xcnLK9/dO5ZGYRjz8KHXy2x2n1FPFHA/xX65ASRuGtvIFf6f41q/yepRo1jZSRhaDpa492CxLu2yJZu5rgahrwFUzW04Rm2uR4G8BItF2C/CO6JVir+g9I14BNeiHSBwziEL5z9yu7i+Qx7HNqOKHtI3iVH42abvnu8pWLsERuHPhYPv6XWw8S7uA7tNsl6nyqOLzapRwHOCO9mXxbytlo/sSrE5zOs1VfXTRBy+wtD8Nsi8x7Np0+p3SeQCvwfdk8D3IUoYQ5iNp0WDmWfTzoJ94xqfC3g1bGUeNLwOMS4C8bDVKqgRTpa2rLQTH+RDg5spbX/khMkESc8eWt6pjQduZHJ/sMlDFfOBFSWZ7gfF6f6RYiZRLzg1M8IAlL/6ztmzp/wJ52I0uf1TxhjYvb5rmUPBXxV3V9FF30PDG+ITHA7Bxn7u/lUr9SuVUoINXt0avgBRDINQ49JiWG4VwC8tH/ubnN1jtTKD10Ez9yoK8x4lzo27xBVpRFAyzABX+cbF2gAJiO5AcOYz6J+aE0tBaosvFxCYJ5lACtLj6mtl4sJwoDMlA5un0CkVrh7S6asNeVuidUXuv5O7oIMw67jMide+avrZpI7MEYjrgVAx7CZB+ebabZ8Y/j5RLSQS40QReqMKfybMexof6KhtWBYWzVtHk674Dna6my3ys50unhD25hVfI0ZPEUZ/E91DqtF6vNxzpjrhZ/qlhduiKlL5o/0t0hEiktZEfyYB/DOfIsikdHevCKal70kGWp0X9WTeof8xjTKJz44AUXk8P8owkFLVvbslA/xy/7OrNWnCxS2NwhqR4PkC8Z8ynELcTYq3s+HfFEmivhQLDNwARJgyTXJ0gms1AiQRlL4qOW4qiQwKlKbMbAkSLm/V6XHojToUgSsUtPyXJJhMw03QjMmIsAt8fBNooWM5UjvgDtQsWpdba47xJGF5aHiN1Zel34jGl/oBjJH/faVxagzWaxAPB0p0Eahh1x9gsHmtbOT1RWoCx4f3yCNji/e04ubhKNbihO9pCa6ycKnv4REjIF2PTxbcuqKcYebpOSad+PxKru8efibaCfz+mQVPqiGqLmipNbffglsmANOO5sjJ6tOXHFE5yTkCXVzxnKowqePv70vcTHQEfSv30ntnfFzwbQJOap8dddidcmEXqCHBXEdwN7xxovmE0mcGcfl+2b2txo9PkFF7M5mRSG/XU3pWklTSGj8BDhr7P54aEV9X6xWf2Mr9p4mDoJu8co64ftzmGyTnPcQEGT7AN94URoTQ3Ewf2hK8ubpmGVhjjnkAiAIKWYZuhuVty/TJpkclyyqPBaLmoqOnphRsAAXB8yOBb8N4z8RQQezKHEOc5PBmda69x0qk4/MWONTieArPOXAJywlcHe7S/+9l2g1KtUlGCQ8j2VAvtUl2MzC183/z02sY4p9KNF2crE9tYvYb3ZPP60QAImm1bAuQdVtU+Ds/cb32pD++uhSNH6cG+ESQHU7CvRl5PMcCkS2TCstR57NxD3d4eILEoipEIBpYypA8yV5eAMHMKpTBviwcLB19Kvwb/XVnFor6U5l/buwjg9kCW0/Z1ggq4G4edE9YctFmjMpgCJXrYL+kdRGrST1RDgSa7GW9HMU/oSs0UFCpm/epbA5oReGVaEJI1mtEIlduzw26MZMovqxAd7uT8O27oMU7KzCd6KGxhkXGkxA2j6meiKt51LP3yc4fOMOZIfakDvUKzznB93QbBQ0KtD5VQbpy5r0pvCQQPWMFj8LgWQCDQcmIuzdQR28H1d+G+jIKbTQ9l6YUjzKV+gITy0f8UYce7dqtEJsPsB0FeKMY65ad3b8yktURxzTU62jFrl7XawYLRYED50gb8VewhRikMSe7yFi5awx94t92rkpugJvTnqw2YLtgd9LFgRaVuBQfemPSOfAAKDFXPkkSU95qgDy7yQtmCK3y9qXU/I2qpXIn28BAtEMp0J+Z/IdPudcUShB2GVTQ9WlWq0RYJRfujH4ILeH6vvCel0gclpm+0P2V57om1NfHwzX1iwPYw9wCGflCrtUiO82ov8Q5So+7H3yCgFRGtQaQsxbLt0OWufcyTK5JuH9X/11Q2jOE79KFRKH1Pl/E14VcsOaC3k8jhPaN9piewNwAHOgaeyb850wuvW8e7c/2AkwosbYXjIBV1fLub7nNeeQv0coo3wYsADRUldf8NKCwjOGQAjm5nLhQX7GAwbYx2ZbFMb++asN4qxIqJpPEy53lVdV4C0SolIXyWkKX+47LDqKRtBWCbc38RT5dgZynTDhWqbpSmMKi8rMZbU/IRv627De69tNwPlkwriXz1NA5MZt/JShbUEvojp9/TMmJTqk8GPO7U18JFwHbiAOBfAL6ixIfhKSEvO83+mgciQsKVC6TKapRUEpHBIWhjYBsZ9Novv6XkqW425rVxJaz/1JtAD5Z2+p5EiDCUHcPo+q3rvhzXH42kkiHplRWZorSwdBDC77VXY2qV9vvtqtFBwVjZuGOavyTIUE+1jCeSihRMbRD9VI2ZD0x0KL9imzVlluRp4g1OoNLLN/J3kLqiXoYtkha8E8AhIOnu9br9IpbZXam63y3/o+RtteJdAE9HW1rxik2FJGbVyuwv4fiC9Ww4Hy4H8bANjp92us/9NwylDe7kcE3qK95l1wrIh45GJpvWgk6c+mxyP5QApeTJg57dcoKGaWhzQ7cQ7UwVdVpS2yRksP/ehoX6YReTlJ2K0jlRG9KhVHN06zX5Fcb9wGXzS9soENmqxZYFUN+OIQnBlwUYbuMyaDkx94RF6KQAXuR8YM8foJdYGNO4pvWJ6QW8nw5IHIBNmz/UcaOtvHrHOstwsjeDLFS052czxffb640CpsDfP9wkBRPqWeqiIJwHJ1E9rvQ7kGLGzuQSw72H8RsKNCeKWM9Jr9U99PCQ0IBoA2u6mUzxaQejqwnJlrUg5//ZXb1JIZTBze7lbSw2RLJ/455ZvocNTjqU67MFjVJP28Xeqjhx6au8ZlJlhROl2EF1csqbj3IkMX+EwSLotSbZJb+swcjvCmkvvk6sKOEc+uriOZqyOkwP+8UZl6pm6LXKRojuuSGqBvW08EQeXCFBsdVulN4FqBaeYMpwykr6+GdkXwfuRwrj2TUmrqcJb+3XEBiYKSGjFkT14LmQzG3SwTM6tIr/G7QzF5HBa6nBfw8CfFHQ8tjA6b0E3T0PpaYba7+MWGKnpCKTOueG03MBKNzyOwflz/2DPemWF8USreKBr8L5957+7PbWsZv4yekhl5EZh4NgyYq5c1bUDA8pSW14xd4fUxKDeNZUILpzVmh6JJlWeahxFJMtMgpUM40bQO9dhlaI/spMnauzsSeX1c47SOdueOI4k+irLyGO/7Y1P1BQj5g7Ltx2ErbAXbLZ4Lcr4UOWV8KaOWqcyPmDHgsFz78yYXFsyqJHRHD5EzfOBNX7OP8T2jAYVgsea9cAq13mWlkIT0WOAti3Meo9U1nfspX+ftRHkCY3zSz48fpWqBP9fbtzCXrLRVLvgNkZbNKZQICswRuEk3vzzZvmb2s8bp34nfpZ4pz53JOcEO6F9/V6/MtXbTYnnPbA8fYBncC/2MsDItAYRmR+tgQJQ15ilkackQclePWKaqrUT+S50Mff9LiXG1s9r35pNzx6MeRAINjbuPs0ZT8wwe1UKiN/JRDKeTfybJR/BFaeSTkxoJzvTi99XrKl6v921NXKfxRHcWJA1twhwxZ8kKnyag0AsECXNNILkIVBqc9albF1h6JDaolGDRTG/16n4R25GUfnXKqILuEZ6SEY9NPGDtlILgBOytAokqw2AraTs+1E8ZlscJdX7aF0DiPrVbEmpbMCo1B0ZRqSevFuQaTHYI9ovd1MvWco8VnAxVsYIgWhrrZ12PzGVzTu/wvcU/UdhxiZKbPEGM6Tx/g/kXxHggGzsemjfyFeDK7+4OZwK5iMvJfE2V+GSR491soUkcX7XQyWo7HhgLN92NFIJokksN/BviE61zHj0jXv6r0+GwwawQ2ytzq+IZcZXajuOE5k5MQ+3b9EmC0b+PsLuna6JVFmNAKF1//oNqU7uaTr8KAhT5Llw1rT+3oRqOckDt+Kc9rSTD2ljDnqs9joBAlM19Neh/296MVKR/eVBfucMRy6l3URVMmXt2KXhjBYeIuibzPB1hGKiNLrk5+lHgn/FfbCn4Vzlz6Jchgr7u2eF09F+/JhKRpBne20F4JJuVIo/LkTaMKRF2jHTtVZYc/GP8L/urIR9YkXcpvoQNDNERYj08ZRm4/v5uyzMM4d7c+48qxebd/rMxe3CPD14SAPTLjBcMUHjTjlipbpn2sefncmzBfOSENaL6k64M2hOCmJoEavxfEJS2fFZrkbcZZfXIPCAmnr6SZhBS1q3nxKQrkJp1yub6AoCWTBwsR7j8spWaU2ihjA+PL+QSC6y45+YtVb/CNHs8PPdlLiFM0Y3uIp25hUU8ByOG23j2hBZ0nNl6I3/qhdIDwc9PXB60myb8J+fDWFwqAeSZb/DHxQc9gbBIfuZbkQMtNL9NoZwtzy8AQhMZ76GVJnm0hfPGzSmgqkjYIz/pCf8zwX2iI3mDZEZ7MFMp5Cj1t2XHmvge+dzByZSwTvVuKCV4dSkD0YRGXuW4cZ9spdX+yoJZGYzbGmzlU9JIdGxggIvFl4Vh+n3ED0EebYDH2+b0FCZjqSX5S+6PXKvxMOCQcALuOxRMO6DtkD5c6aMbr49RybvIYL2poal2RxtvcpMciaqAwG+I+ZTo6Keup3+oJswDZaRX4w7tj9YDN31M+45Xv4ZrJxsISYZKWShUFYPZZ1tzjQqK91xO5nBBn3r+c+IWZHPmfVxHd91yfocSVNmgwfM1HXCftcB+F/fxZ6umSF+/foj8Hexl/MqgPW20VWL3V+gsh+2gXM4ULw1JyrvKpa3QmZH4cv7xfqtK/2mQ8so3M4slKa6XLxTKkUrXZOFaRXHcsfdAxUm1qm12SA5T2NciAgFwcpAB1Q8u0ZFHBtubJkRfrrSyS7JMLi/0xm5/rNqctTiwyh32sis7VzyxgI3quWfHkP1CMDZgI/iqwL1qvi8c/DPKpEUNvXvbHP5IxZB09EsnrT6+2n63RNOJX3AE8OVk+ar/itvzuG8sAUUv2FwnroFmF8YetFZ9pjGXR92ytxBfP4ypel601j/V5nbHSH0nS9IajuDRUbzp+vGOZIUrm5AROWKYwOSO3kULyufpsMAp+wPcMSYQbZTF+PUNxxNdISvv55NmAbZn0hY1FaaXEbfcqXhiVKuxs4xvVffTOeNH2RzCVQ/hnvn7/eirG2N4+ABIvFtimPpOgyd6BXtmsRT3nXyny8RFF1rg7AICVcsTHis4fiLdAIqXtIZxz6SGdjOKiY+OCbYOkpRZgK0S56wYCaPcsdD9nNNKhau5tF7ug65Ejf+lvBlPITEICTRZXwznMeMDMxFwcj0VJKId1Yyyy+aYjgjmWrfJAky3n4PrHlWkVJOlS/FI1gUKknI1UEnWR2g2QS/xFnkUWlHK1WZZDRu8Pc8WngydKJC+v1V5KCA1GA/X/xS+2CyMQSvwWb1+9RZZvu67FZ+6kjTQlaNlTPWvEja+TufH8IHQ1jn1f6A8PEYRyi8tK1tVVzOhhPggSCQz1YENrfTnJ5uPnUoQatluO4h8Fnxh95lDYTcoTmwoNO8ucPGo9ktRu7bEQWkGnngqtH52c7/2Qqz62SXRv8fWM72/wG5Yb0OlqfT69e4gzuCZDglI94Zdlj83KxaJKwX/Jy3uv0rp22HY91SewiaPpy/2nUw9QmUOnti9c4/Lxt0ThdJ1ycCHyiHbtW0sf0vsbmbm5fRTKPy1Vq0wbNOVeckaTz6gxDzwbzbQu+4D4fD318/y9rSfds8TmuQ326+F4bBgST5+5d/B9C/uJdHDk7IY4OqmafdNZMHjXp2HqWktypTzuhrG2Q7N1NkTLYBPcVK/6S9ZpktGGu5/1CmtHUOsP9Lyc2H/r/w/YGYB+EgJGm2y7yRdr6G+mjFW8Ai4HC27kTl4Vbi5aCcNjqNPqQwLpYAQrMwKjdNaeWD0x6+SusrymO2WEvwz0VIcRu0Z8fS0IYSDXUwDZj7hxAEXhYZJjab+QV/G77v//yhZVCXHZotOiIKmfz1PhYc+ggHwKkgV/hGkWsFHkwCDqIYZjdcKLvfrsDD+gnqVY0VX4afdFX8uoojKkvzY0W4ZXWcaZroGozB8xUGbdiXnMSzad/o9UygPhitztBwFdKnNMYOZVkmgS6STTncOzjFDQ17dnrbPtq4s5fwWCxXDI6lfYR+0nwDe9Wg1zyw+SBYJlj1zIBdquv3e07v8Wvprqie0Iu/SpDx/xdfTRia9tech5OTIN0RZUeE4NjE8JPj7XQBME0yUnnZUGEiaoV2SNY5IVtzgWWGKIC0TXgqTvDBPgWRhAArWYD9KeCv/ToH8Krvs/wNgGk3j5sqiV9IMHOaN/ZWTJJ/FaRv8SJuUwCpzXbRfa9skL6a3a904Xgja99lmQk4uIryTDY89QGx5R2efmeWQ9IwQqdftT5F4VHzmyuRGPnVuRI1VK6VTlHAzqxXsY0fzt+BOYe7rM9qCQ+nnoVTQ1HklyNdcJQEEkc/7BC5c1Qk7ANy8NdSGoG7hHLeIm7Y96eO6YodqiNlRFOOAmucwaaY4flXQDjVFoHDMcylaGmsq45dZcIDg98uZ7CJAv2fAwVtmyod+VrJHijCJbIo7WNMqWNNPTfWLv2gPLfz9Kw3LN9inkBZdH077Kv+7fovoW4/OLcZyRL5cwZvQekyvb56H4ljhD0t6+seepBxcBF2Fx+llLvPKZ789CrxNV7klysc9GSY0gbspMazKDF643QMZg7w4exsSwe7lXjB3EB9SwS35QV61jENtLje67TEX6FNmVgr1T45e2hB0AO3yhUKC+a94GUhgYDf685XwoxGbJUTd9bN1oTody1fUn1Zy49YjZlMZMK2yz7lYqmPc/tvUxgD6q+ENXi02fUWGRKwS8RKi6Zxd0oXQUvFWVuF+bNsjS5FtMqQJ1g39JjvV2KkBPULS9n8DteN5cNB5yyg9b3LqPEtScNzMFzMyAcW7q6F0Hf+H7ikNPXHFf9tW1zgm9vHLkzw2WJHy4Da04Z5ACM1VHrjwmwHcMWrGl+LrwF3DIidduSLQzhUu/X80oNPGfrufRj1DsLfCtKTuFCvEeI8hsGercAq8QAPvWf4vjofbIJ9vw7NVJeNBhDVU1oNV+40wBy/JhJWBOZNFd1ur//T5017476r5AGzj6YfnKnqzxzcfr9vYZLWy/Jey3c6tSat3tB6OALca8WB/DWFVQeor3+/kpGlKsPX2nrdZgjsg0991rk9QvHkbzC9mAR16XEGbWNqaW8xwKA+Gl6nbGXqUFUo8gauhzc3MQEPg+YeTIXid57srrZyVlIMHt+h+vyuEavlLlmdbIP5kmEHQkxrPHb3yB9Fzw69ic9rAAKVK9SI2EIe2rtRCGpw7TIk8docjnZ2F9Lzvw/FiKpYVriTWfP+OQMHYGQ0WScF5/xPgHx73HnxsCcIQuJZdTDhB0SWS2yCqvAC4A122J6j38Xy/K84ytEhzzDXphgU5AdOlR5GD9jWvcwzH5AR9TJ9TtkHhPs/vSjk6ea/l6zfEJIHbkHO6yKbNwygdpq6AB6oivoiZ2LKRkI2nlK9hRmEN610t3HJlYFnyE9NPULiNDn+n1IpkWopGMPvO0xifU/SXz6Y55ZB94+xZtnSu2aL0v685HoNIf7eYAo28OakHwiEyw8Dwq/pyZZEKQdiWBxOEhChs5CYkI/Iv08sqTaU7koo0to9o00CPJUePScaVF8DBh7mi7L8idWv84neCLqWD8ObOxVtyBOcDy3YiYvYOTwuaMQUDHirWBRxW+Bqbsn5GAbWA5bmLlK96/2iF1m9QmzoZsGBWwRAPsSyy97GY5lFe859Jype9dFgF0P8N/pl4g9D+laRE48koZscvGHFPEfOrhbVd5gqJf2jrtqLGaM82eQo2PBYR34EsHRBv5WX1UnP5aZ4PsDuvPgQPH8zrDm4xU4vU+bF3/ux0cVthTEDWmaijhH0V1lxsQ0BHTglVygO4ZlfF8wLjp14JwcLtxbXtMEZQdrKVp9yQjeBFods6UOBrnRpNlf3Dxvfqc+ECZ1G8qMaZ+gVNF7QSuT5/mcOpVI7OZZTHDxp4h4f+0qDOFLfeUBJII0BFpVFe6xp39uwaCO5cPOJpdLzEqVDr/9uxIKf64SAK0sbVzd88jAe0BGt5J0GRytnoVh+W6SMX754Wzkv5bsEiBFs/jNAcuW+PgrI4czicCBGM42fQgqXYa3Ne+nZeeDSQJUI0q9d9CzmKDBpEhLNIb92IyR9y1zZoCwLNM2+SQa38w2SJCKhul5OwnQ+hcHQqZHzh08PRKnPuKXnL66WyT95SN9OlWbWe6mWcGHDQpncOUstNua45t9uH1pt3KCVTrGnGtbiym4L22bxlmGPeaNpiqLJI8NtoRUgmGe3pjt06t9EnhxGVST7y2sAwTNxmSfnMnK0r1o+Tr+07npYoMD8kSFM4H1FPMaPLwKwL2wJKREYCRq94NHPFZjeQCKzk5VZ7gOftON3Y/XU1TSAaRhqOfqfMeA5QWub3FQoWbOp7lqN0S0bIG3AzTzCRBZ+ZMJkscOftiFfZq7pe/hOqbVlqxTAp3xXi84+T1rzr6R3osoCu+A5hVX8PX62DqesUBn1fAJCdXWPzDK2wHOW5k5m9huGbWB4+4m6byEJ1h8gyFbNqLVSS3cVOacdFuWWeAjUJpXmGHGNsHUxziQgr2iBlKCThkiEc1YUgSxBgwBPqmDkiLdpbffYDOtYlsLzhxryc9zTIvIvgJfnieuM1R7F8mMNT/KzHFBZrRKQauq7RzKAUw+XIsNzjUJBiOjHHIAc/kR4qwljSkFp051s/TZZFM/MdTDkZIbwxwLcTm2Z3wE2urTq4Wj7uuVTGmof1U6aP6KFJXcRcabetAGMSpgjaTWqk/O+lLfYJ1XHeTIqvUcn6NEMhnIs32qdyh4XDOWM+JhYevNQeYjKTOKcnmaAIXPkc/f9q6QfvXV4JZ9+UdsEkyARN1AiM40KdfRZdB2Sv0Hu154URGFxSpTIujPPsZ6FhTtc96IQHRDj6B87wOGY+tfP7UqoMvJ+ngWG+lNwHFdsfgxep+i+FBVRgnuKdQ98BMEg+544pC0qiB6oLNhVZpAkhbp+21usUTn5JNTWw48d7sxgRM/PNqDJtMDHPMl6343KvtOPlG2WMqvQq2RY77alHOmT2pwoLUxe6cADKC6EMxnrxtlyYiy+4PUCCfhqC5WnXapCD72cv+RrOKz9ln9lhH5HIncZaSInbS6Fcf6orFGTs53bmEB2esl3R0+R/kZKiyA8/sX7pSoT6943JgXa8V/Wg19v4rw/iq+5jA7io53hyPtbufkdYfy4kHbPxgcpnetXs7VhVnAZT3XSUmFP8Y6gVwyJA/oJM7loVjB/7Dy+rFw/R2Wiu0Q7sDOAmmOTvMuo4s1G3wpTobbhNaNFnK7tqWF75PLgppg148h21kFt7TfK07WtbXTfzdtp7IpmEn7IclSMK2bJdk1FlSp+eEXFKRCIeTJu24vHVD9rPKxJtyyNoWHydnCU/YZjYldJVxFJwKcqWK1lnqQW2jlL9hKP6h/AOz8Mohj88Yin89nwKPyzygi0AKAJpUjghHkoFHvyiURFm9n064N/MNZhrbVdb+zbUVfxAJHVD8zKqEC6abd//KPVRuoCuBrWe4WwAgP7RkmWcbUMNdBiOi+7QE+QqXpaI3kBQv3IdbnhLNRPV5zoGFQ1H9LDq+f0ZWWH2bMyljGPjlv4kwFJyXAFkMKSb/2vkzE2T2gdPW4bRnpKBlE+7Rg+qNFn/bJD9ix7a4oZubi9HyktLZmv8TbUI2RXbXpubXM1NX+vsu7XJNZDJ1nW2h2J2CDDbE3CY6pYlSaCKzXM58nCVL90lxV9Qf8WFgJQPI1ddXRoqAXWOROYWcnFgvl2vQu0MwO+qe2AxgEwEdhXG1giS9tzV1+nN7FAepWi/FKzLGBZkf+FarAByFWYcaodcPGaNf6Ng8+gxs49ovrFIJ4jBWo7qJc+6dwcVPeVhhON7OcKPDdvPyGNczZtwR4Cs3FsOXb8HcBZmz754NwYj+KYYIuY7aH+y706H5pl7wCfXz+5Yr5VFUgp14Vv6bnKP9+s65WZo/Zfrb7G+zX2w7bQrgYKTdR8BZMgI+lO+jYwKKKZ664GZ1DUuEgiFYOZz1lwXbpIXezFWkv5h35lH7dQnq5OrcnyD9GfeIJuqP3w4iJcmcFrsD52OICO4ra9P2BJDuJHi6q77RJSqHQc7gImqLBq+kIFfIaevarxlbWu0pPXfZ7h+LZ6koVXC+JX/EbPB9XVWWfOMx1FNlJi1ieYxyAkTCtEPzHp7l9LgLtfXVAIohUgC02ETtHfe8g7gQC+Z76Y5b2UmSZWUFIXkIL+rxmnDjo2nWYSSqT0moDWqfBdtLbC0ggxagSCGbnSwq5zoXkB/TLZXJGRPxOkpozWyzpS97U+uEYNheEcDGonnnjpFLzqPyQAygOWR2YKL8UYlDBJylXbUqAuWZefeblrti5KUAo1LLldQ8whMyyo0qhl3tcAEsK7kUPefMLqKqDgLVmrlj+ocELwRfpUIpzRW1nMyz4jnhqEDYuQ5bErlV/QzHrx9SxXk7B/MmEK1w01sHQCwdvkZdMMXSobF70O9IwfG37+l+VN5bjuJgitiCHh4kkaywr5pjwA+1ctIORHfvbgY3H2Wx8XMwsWwO+1rHhk0O10jY6tHMtRox2pvUKusgyA8NDbfEIzTIxB9B4EOGDCsDjK77rNCZVwLlzH2H1yQI+36PHYi6GGYN6xAGuUzoTu2wrHYVY8cxxCWXEuR4gCP+h4cnPnjupN9/Zcw5Lmdp7gF6ipjJ+cgAlLDxPKT+JKAKZwOvKoZIdSQ/Lec5g237AJG7bUBk0eJczIUD3k+nrHcF2NEzAfK3op4B+nG39vvnFDbsQaAcwmp2494/XIRlkwPue2SylHBmt1Qb4dSSYxG+hadA+bsE0EqSyO7TlnWrRppqADhmjXAiIehGG980fciu9hdNcBcmQ23+iKKAy8OR/f8YxqAJL4c5alw6PwMtO9BVZ/3nJSJL+VD7hzePrXt2Z1QVhwCs1rghi+8K5pn8PyF5GrUXheul4v6hP4GGKsETb3GAa9iP2Kn80r+QoYpnPn8cUt0zapxgZZattzb9UtfFWhNYeouJpf0CJXzpQFf+/WRlYZM+90BnuUoUATSvtpEEQXSq4CbuHmbb3rl26zbDWLVxeDc2PvvjI7rQ7mG8wijkaTptFXUfo35lzmofBNukShFGNDZsE4tTM++au/BY4zMf2tRddo5+5tvp/pI+zXM7mjXkO9Bch3ZkYaQRKa7SzfKDT28122qZnv4fBbKyq1A05B905xxgF2Yald6oFXnaoN4yzdL88PovOtqOyasmGitFR3HOR5DXEX9x8P4CgsxGegJYSSj61MNKYKki4TJjVC4DcAL4roS6vwDJUWcHXOQAO+AkBS5BjbzrI/bDAJLstUg0xtiFjprRzb8DklXUOctAy2Xe/HVOok5Dv/Fhs32ZcYdHDt49nVJEQ6V25Qgxfg43Ky0+VyHamXXJwQyVd373FV7PkLOJVuIHTBdrX1uDr9qfNxfS87gn6RYpVCxSgNuXAGg0lRv0yyrv4GyqKUy/9sCpuOSwIs0U8EzGEKdnfZboDT62MxjslYP+GeJejmVEdevzh2phtVnq1rj35WMM+9rj9OX07+BcD6Qn+G1HlyL3xRG5cbdZqTtG2fVBzh8d0U7hMBFICG7NnIpMTdweEIbX2lBLv56ZF+uqEf/ckC46FFhALnP4YwtUvDqRuytsF1WrqBOIo+phurJk5EREizkwkqdRjpAJmgk2M1/iq8p6Fdx0aTrjFRhvdRxv+pOYZQ7ImN8D9QGW5WYelbsRlbbUvPgJtvFIuu4u7T1FPNgBAp9/Nnec1ccYfjf+cSlcGGqhjn6g40Ro4kc4WKvS8fpiCfRFebGqEWErs+lKDHBWAuGplorPjbBDAzkUBz7598BajaS1clqGxUlPrVLEgnlziH/5vXkhxjhDdD7+Eno4weUkL7IvY/9yfxWyQ9lxt56n8ZXkERtHP4702vc3fOF4dCONzige2Yc/IHWreK3Wtc3l7hO0Xyvuk8ucQtU4bSz445eAFT9IuEsQJ7VJk9PSmO40zlz2RCkNraZeFfDCbFQniZzHUwUkcx+B315FZgZlCMwVmpXAPZXfv5PebPuQgasabm1DWEqQVyWGYsiJqF0bBSjzz4f0P4RoEXNXeWSnki109RkXS6XZLcV3QnY2Q2DGbFp2ePV/v7h/Wm4MmvPEXZuu2Xs0L5X70K94xCHydkCDruWDYVGSfNAHsZg4kErnyaZPIjIwr8ncrYbo1MABq/29C62gMbXXAofGu5LFQBwrzMEdMhTRs47Vxk9pMY63dYeJNXRWpLOTMpNjrOYoapg6NIhbKcM2Auf5XSpJeow7FKgYxwOz6MqEdAPudxD+ohQs5XE/oQRiVRq6+W5ILoQApneKeCfhgfExUUB6vu+QoyXpclLsD/9aAMwrOFtGqxOWlm8/KalWbqjLY1A9izZHtwX8CIeVeYOBpFJ7gBvLbSJ24oXYAzj+oXtETkwOIlt+YVVAJ+16OJm5kgvb+CqyhC0s4LFTjMRoUeEWro7GNqqLHpWsOuAsmaGWltbbgUW080YccZuaWyOM5a/fBSoGY+UAWHLqLcDkv7tdEBDBo6c2OSTNwDQ+8Pqgvn4dUdRbiBNb5o6W6Z3hXBcgzRLvvTdVj5f6mASCePjlBkHJ4retPhQVCkPnTMapQlFwRBaIZo8JiG9A+Lsqu4Jw4wRkd/2xtDa0rHbpMMb8NPa38zruaHP3JNPACMfCqLntxtJmTCtRghq5Yn6Y302hZEcvE00XQ+ugOMq3gy/EISifpBR5fw5XQcsgj+eZR1z2dRR8BAd4U3ZfNjBph8ARG82g7Nj5GFP5T7ysrtwidRWdvApUZfzONv2SG1OB8je8SM9as5+o92VEKPD+5O+uWLREcuF5b0O2jXpzJgpsNq3we5p7gKbVnkCweiU3UMpv1l4EswQLeLWn+MV2yvMWpzchXCS6jB37lukKO6+4oBJSdm4hnQQGV3x+kiJAXcPg1SgIw+bnku/1bCAErkozdTodZE8Hm1TuJrGCjOEB72D+3fdrQa/ctfRNN9dV6oyJyhTaVYVaBOH3SKNnvkkjcPG5yC00Hj8MDG5bMGH2ueV/lwaxqpTuTYP33jjDSOa3JK2tSuN2p/0o+caxiBZ3zsnnFSTyVicnlxbnjLq34PHnAw2pvF0Y/NQaSnEjsIa9/d3Z3U65HhfV5HEKUTILiM9WViLbSq91zEBQJlePkLQrVhDtZ75DdD2e2yiZpuLjz7QS456Y/UBkV+fP5Z7CYsv5FCtDp681fEdQw5QO5Ib74zQnsOzJsumyrwTXe+eblRgA/BY5iHJqnqO7DJkqIiJdlqvvLoRRolX1wX988MmOjZ+BVO/Gcy5FoCEBQfVkqtNfJBoGIxFdRSYQe1Jpm1CB6l2mAZF3n6xarS83tYJ8KjCvGn0+g3X3R/+5o8YB1dXvrJ1oEAXAVF+orSrimsEJsK3USHWLJLBvQahWHzwCzHpCIozi2wqKKI+Om+Y/eTWn0kpgC3kl0+0mN3j7Eqew4bLc1F2uftuol2rLbaW9Id2epKM/PLLl5UXawcF432i5rKmd90Dgu30yfiia5a4nCrHJf2V/sG0OaUDtfwG9R+a+2WboG8++jIM8TtEmkeJjuU/637GeQTQs3QqfnBYEMw8I60wjaxgoiZBXGeWLfAyvImy8T78CGXRhlab5eVj7JKzgtr8OljFTBCDiqyF7HYCCARVNPVcK52kyp47jyo4TxAlFv6vPsvz2EWgAABFWElGwgAAAEV4aWYAAElJKgAIAAAABwASAQMAAQAAAAEAAAAaAQUAAQAAAGIAAAAbAQUAAQAAAGoAAAAoAQMAAQAAAAIAAAAxAQIABwAAAHIAAAASAgMAAgAAAAEAAQBphwQAAQAAAHoAAAAAAAAASAAAAAEAAABIAAAAAQAAAEdvb2dsZQAABQAAkAcABAAAADAyMjAAoAcABAAAADAxMDABoAMAAQAAAP//AAACoAQAAQAAAD8CAAADoAQAAQAAAHwBAAAAAAAA;clipPath=inset(0.51% 2.33% 5.56% 35.67%);flipH=1;" parent="NP3fSsR0sqH5-8vcrBb5-11" vertex="1">
          <mxGeometry y="15.1504347826087" width="287.8566002779065" height="287.8566002779065" as="geometry" />
        </mxCell>
        <mxCell id="NP3fSsR0sqH5-8vcrBb5-20" style="edgeStyle=orthogonalEdgeStyle;rounded=0;orthogonalLoop=1;jettySize=auto;html=1;entryX=0;entryY=0.5;entryDx=0;entryDy=0;strokeWidth=13;" parent="1" source="NP3fSsR0sqH5-8vcrBb5-6" target="NP3fSsR0sqH5-8vcrBb5-10" edge="1">
          <mxGeometry relative="1" as="geometry" />
        </mxCell>
        <mxCell id="NP3fSsR0sqH5-8vcrBb5-12" value="&lt;font style=&quot;font-size: 30px;&quot;&gt;original image&lt;/font&gt;" style="text;html=1;strokeColor=none;fillColor=none;align=center;verticalAlign=middle;whiteSpace=wrap;rounded=0;" parent="1" vertex="1">
          <mxGeometry x="1010.4399999999999" y="443.66" width="206.97" height="37.88" as="geometry" />
        </mxCell>
        <mxCell id="NP3fSsR0sqH5-8vcrBb5-13" value="&lt;font style=&quot;font-size: 30px;&quot;&gt;padding&lt;/font&gt;" style="text;html=1;strokeColor=none;fillColor=none;align=center;verticalAlign=middle;whiteSpace=wrap;rounded=0;" parent="1" vertex="1">
          <mxGeometry x="1481.3268971710822" y="443.66391304347826" width="174.22990570273913" height="37.876086956521746" as="geometry" />
        </mxCell>
        <mxCell id="NP3fSsR0sqH5-8vcrBb5-15" value="&lt;font style=&quot;font-size: 30px;&quot;&gt;random crop&lt;/font&gt;" style="text;html=1;strokeColor=none;fillColor=none;align=center;verticalAlign=middle;whiteSpace=wrap;rounded=0;" parent="1" vertex="1">
          <mxGeometry x="1947.2025145936236" y="443.66391304347826" width="174.22990570273913" height="37.876086956521746" as="geometry" />
        </mxCell>
        <mxCell id="NP3fSsR0sqH5-8vcrBb5-16" value="&lt;span style=&quot;font-size: 30px;&quot;&gt;random flip&lt;/span&gt;" style="text;html=1;strokeColor=none;fillColor=none;align=center;verticalAlign=middle;whiteSpace=wrap;rounded=0;" parent="1" vertex="1">
          <mxGeometry x="2416.865738661877" y="443.66391304347826" width="174.22990570273913" height="37.876086956521746" as="geometry" />
        </mxCell>
        <mxCell id="NP3fSsR0sqH5-8vcrBb5-21" value="&lt;font style=&quot;font-size: 50px;&quot;&gt;Data Augmentation Pipeline&lt;/font&gt;" style="text;html=1;strokeColor=none;fillColor=none;align=center;verticalAlign=middle;whiteSpace=wrap;rounded=0;" parent="1" vertex="1">
          <mxGeometry x="1460" y="330" width="745" height="68.18" as="geometry" />
        </mxCell>
      </root>
    </mxGraphModel>
  </diagram>
  <diagram id="ZVuS7O5KOJ-Jky2rGoQX" name="Page-2">
    <mxGraphModel dx="2261" dy="843" grid="1" gridSize="10" guides="1" tooltips="1" connect="1" arrows="1" fold="1" page="1" pageScale="1" pageWidth="827" pageHeight="1169" math="0" shadow="0">
      <root>
        <mxCell id="0" />
        <mxCell id="1" parent="0" />
        <mxCell id="AcXJn_AeSf_NBsKi_YKP-1" value="" style="rounded=0;whiteSpace=wrap;html=1;fillColor=#fff2cc;strokeColor=#d6b656;" parent="1" vertex="1">
          <mxGeometry x="80" y="200" width="120" height="120" as="geometry" />
        </mxCell>
        <mxCell id="AcXJn_AeSf_NBsKi_YKP-7" value="" style="edgeStyle=orthogonalEdgeStyle;rounded=0;orthogonalLoop=1;jettySize=auto;html=1;strokeWidth=4;" parent="1" source="AcXJn_AeSf_NBsKi_YKP-4" target="AcXJn_AeSf_NBsKi_YKP-6" edge="1">
          <mxGeometry relative="1" as="geometry" />
        </mxCell>
        <mxCell id="AcXJn_AeSf_NBsKi_YKP-4" value="" style="rounded=0;whiteSpace=wrap;html=1;fillColor=#f8cecc;strokeColor=#b85450;" parent="1" vertex="1">
          <mxGeometry x="480" y="200" width="120" height="120" as="geometry" />
        </mxCell>
        <mxCell id="AcXJn_AeSf_NBsKi_YKP-9" value="" style="edgeStyle=orthogonalEdgeStyle;rounded=0;orthogonalLoop=1;jettySize=auto;html=1;strokeWidth=4;" parent="1" source="AcXJn_AeSf_NBsKi_YKP-6" target="AcXJn_AeSf_NBsKi_YKP-8" edge="1">
          <mxGeometry relative="1" as="geometry" />
        </mxCell>
        <mxCell id="AcXJn_AeSf_NBsKi_YKP-6" value="" style="rounded=0;whiteSpace=wrap;html=1;fillColor=#f8cecc;strokeColor=#b85450;" parent="1" vertex="1">
          <mxGeometry x="680" y="200" width="120" height="120" as="geometry" />
        </mxCell>
        <mxCell id="AcXJn_AeSf_NBsKi_YKP-8" value="" style="rounded=0;whiteSpace=wrap;html=1;fillColor=#fff2cc;strokeColor=#d6b656;" parent="1" vertex="1">
          <mxGeometry x="880" y="200" width="120" height="120" as="geometry" />
        </mxCell>
        <mxCell id="AcXJn_AeSf_NBsKi_YKP-10" value="&lt;font style=&quot;font-size: 23px;&quot;&gt;Initial weights &lt;i&gt;w&lt;sub&gt;0&lt;/sub&gt;&lt;/i&gt;&lt;/font&gt;" style="text;html=1;strokeColor=none;fillColor=none;align=center;verticalAlign=middle;whiteSpace=wrap;rounded=0;" parent="1" vertex="1">
          <mxGeometry x="35" y="110" width="210" height="70" as="geometry" />
        </mxCell>
        <mxCell id="AcXJn_AeSf_NBsKi_YKP-11" value="&lt;span style=&quot;font-size: 23px;&quot;&gt;trained weights &lt;/span&gt;&lt;i style=&quot;&quot;&gt;&lt;span style=&quot;font-size: 23px;&quot;&gt;w&lt;/span&gt;&lt;span style=&quot;font-size: 19.1667px;&quot;&gt;&lt;sub&gt;n&lt;/sub&gt;&lt;/span&gt;&lt;/i&gt;" style="text;html=1;strokeColor=none;fillColor=none;align=center;verticalAlign=middle;whiteSpace=wrap;rounded=0;" parent="1" vertex="1">
          <mxGeometry x="435" y="110" width="210" height="70" as="geometry" />
        </mxCell>
        <mxCell id="AcXJn_AeSf_NBsKi_YKP-13" value="&lt;span style=&quot;font-size: 23px;&quot;&gt;magnitude pruning&lt;/span&gt;" style="text;html=1;strokeColor=none;fillColor=none;align=center;verticalAlign=middle;whiteSpace=wrap;rounded=0;" parent="1" vertex="1">
          <mxGeometry x="652.5" y="110" width="175" height="70" as="geometry" />
        </mxCell>
        <mxCell id="AcXJn_AeSf_NBsKi_YKP-15" value="&lt;span style=&quot;font-size: 23px;&quot;&gt;weights rewinded to &lt;i&gt;w&lt;sub&gt;0&lt;/sub&gt;&lt;/i&gt;&amp;nbsp;&lt;/span&gt;" style="text;html=1;strokeColor=none;fillColor=none;align=center;verticalAlign=middle;whiteSpace=wrap;rounded=0;" parent="1" vertex="1">
          <mxGeometry x="852.5" y="110" width="175" height="70" as="geometry" />
        </mxCell>
        <mxCell id="AcXJn_AeSf_NBsKi_YKP-33" value="" style="rounded=0;whiteSpace=wrap;html=1;fillColor=#D4C9A9;strokeColor=#d6b656;" parent="1" vertex="1">
          <mxGeometry x="80" y="200" width="30" height="30" as="geometry" />
        </mxCell>
        <mxCell id="AcXJn_AeSf_NBsKi_YKP-34" value="" style="rounded=0;whiteSpace=wrap;html=1;fillColor=#fff2cc;strokeColor=#d6b656;" parent="1" vertex="1">
          <mxGeometry x="110" y="200" width="30" height="30" as="geometry" />
        </mxCell>
        <mxCell id="AcXJn_AeSf_NBsKi_YKP-35" value="" style="rounded=0;whiteSpace=wrap;html=1;fillColor=#fff2cc;strokeColor=#d6b656;" parent="1" vertex="1">
          <mxGeometry x="140" y="200" width="30" height="30" as="geometry" />
        </mxCell>
        <mxCell id="AcXJn_AeSf_NBsKi_YKP-36" value="" style="rounded=0;whiteSpace=wrap;html=1;fillColor=#fff2cc;strokeColor=#d6b656;" parent="1" vertex="1">
          <mxGeometry x="170" y="200" width="30" height="30" as="geometry" />
        </mxCell>
        <mxCell id="AcXJn_AeSf_NBsKi_YKP-37" value="" style="rounded=0;whiteSpace=wrap;html=1;fillColor=#fff2cc;strokeColor=#d6b656;" parent="1" vertex="1">
          <mxGeometry x="80" y="230" width="30" height="30" as="geometry" />
        </mxCell>
        <mxCell id="AcXJn_AeSf_NBsKi_YKP-38" value="" style="rounded=0;whiteSpace=wrap;html=1;fillColor=#fff2cc;strokeColor=#d6b656;" parent="1" vertex="1">
          <mxGeometry x="110" y="230" width="30" height="30" as="geometry" />
        </mxCell>
        <mxCell id="AcXJn_AeSf_NBsKi_YKP-39" value="" style="rounded=0;whiteSpace=wrap;html=1;fillColor=#D4C9A9;strokeColor=#d6b656;" parent="1" vertex="1">
          <mxGeometry x="140" y="230" width="30" height="30" as="geometry" />
        </mxCell>
        <mxCell id="AcXJn_AeSf_NBsKi_YKP-40" value="" style="rounded=0;whiteSpace=wrap;html=1;fillColor=#fff2cc;strokeColor=#d6b656;" parent="1" vertex="1">
          <mxGeometry x="170" y="230" width="30" height="30" as="geometry" />
        </mxCell>
        <mxCell id="AcXJn_AeSf_NBsKi_YKP-41" value="" style="rounded=0;whiteSpace=wrap;html=1;fillColor=#fff2cc;strokeColor=#d6b656;" parent="1" vertex="1">
          <mxGeometry x="80" y="260" width="30" height="30" as="geometry" />
        </mxCell>
        <mxCell id="AcXJn_AeSf_NBsKi_YKP-42" value="" style="rounded=0;whiteSpace=wrap;html=1;fillColor=#D4C9A9;strokeColor=#d6b656;" parent="1" vertex="1">
          <mxGeometry x="110" y="260" width="30" height="30" as="geometry" />
        </mxCell>
        <mxCell id="AcXJn_AeSf_NBsKi_YKP-43" value="" style="rounded=0;whiteSpace=wrap;html=1;fillColor=#fff2cc;strokeColor=#d6b656;" parent="1" vertex="1">
          <mxGeometry x="140" y="260" width="30" height="30" as="geometry" />
        </mxCell>
        <mxCell id="AcXJn_AeSf_NBsKi_YKP-44" value="" style="rounded=0;whiteSpace=wrap;html=1;fillColor=#fff2cc;strokeColor=#d6b656;" parent="1" vertex="1">
          <mxGeometry x="170" y="260" width="30" height="30" as="geometry" />
        </mxCell>
        <mxCell id="AcXJn_AeSf_NBsKi_YKP-45" value="" style="rounded=0;whiteSpace=wrap;html=1;fillColor=#fff2cc;strokeColor=#d6b656;" parent="1" vertex="1">
          <mxGeometry x="80" y="290" width="30" height="30" as="geometry" />
        </mxCell>
        <mxCell id="AcXJn_AeSf_NBsKi_YKP-46" value="" style="rounded=0;whiteSpace=wrap;html=1;fillColor=#fff2cc;strokeColor=#d6b656;" parent="1" vertex="1">
          <mxGeometry x="110" y="290" width="30" height="30" as="geometry" />
        </mxCell>
        <mxCell id="AcXJn_AeSf_NBsKi_YKP-47" value="" style="rounded=0;whiteSpace=wrap;html=1;fillColor=#D4C9A9;strokeColor=#d6b656;" parent="1" vertex="1">
          <mxGeometry x="140" y="290" width="30" height="30" as="geometry" />
        </mxCell>
        <mxCell id="AcXJn_AeSf_NBsKi_YKP-48" value="" style="rounded=0;whiteSpace=wrap;html=1;fillColor=#D4C9A9;strokeColor=#d6b656;" parent="1" vertex="1">
          <mxGeometry x="170" y="290" width="30" height="30" as="geometry" />
        </mxCell>
        <mxCell id="AcXJn_AeSf_NBsKi_YKP-65" value="" style="rounded=0;whiteSpace=wrap;html=1;fillColor=#C4A3A2;strokeColor=#b85450;" parent="1" vertex="1">
          <mxGeometry x="480" y="200" width="30" height="30" as="geometry" />
        </mxCell>
        <mxCell id="AcXJn_AeSf_NBsKi_YKP-66" value="" style="rounded=0;whiteSpace=wrap;html=1;fillColor=#f8cecc;strokeColor=#b85450;" parent="1" vertex="1">
          <mxGeometry x="510" y="200" width="30" height="30" as="geometry" />
        </mxCell>
        <mxCell id="AcXJn_AeSf_NBsKi_YKP-67" value="" style="rounded=0;whiteSpace=wrap;html=1;fillColor=#EA6B66;strokeColor=#b85450;" parent="1" vertex="1">
          <mxGeometry x="540" y="200" width="30" height="30" as="geometry" />
        </mxCell>
        <mxCell id="AcXJn_AeSf_NBsKi_YKP-68" value="" style="rounded=0;whiteSpace=wrap;html=1;fillColor=#f8cecc;strokeColor=#b85450;" parent="1" vertex="1">
          <mxGeometry x="570" y="200" width="30" height="30" as="geometry" />
        </mxCell>
        <mxCell id="AcXJn_AeSf_NBsKi_YKP-69" value="" style="rounded=0;whiteSpace=wrap;html=1;fillColor=#f8cecc;strokeColor=#b85450;" parent="1" vertex="1">
          <mxGeometry x="480" y="230" width="30" height="30" as="geometry" />
        </mxCell>
        <mxCell id="AcXJn_AeSf_NBsKi_YKP-70" value="" style="rounded=0;whiteSpace=wrap;html=1;fillColor=#C4A3A2;strokeColor=#b85450;" parent="1" vertex="1">
          <mxGeometry x="510" y="230" width="30" height="30" as="geometry" />
        </mxCell>
        <mxCell id="AcXJn_AeSf_NBsKi_YKP-71" value="" style="rounded=0;whiteSpace=wrap;html=1;fillColor=#C4A3A2;strokeColor=#b85450;" parent="1" vertex="1">
          <mxGeometry x="540" y="230" width="30" height="30" as="geometry" />
        </mxCell>
        <mxCell id="AcXJn_AeSf_NBsKi_YKP-72" value="" style="rounded=0;whiteSpace=wrap;html=1;fillColor=#EA6B66;strokeColor=#b85450;" parent="1" vertex="1">
          <mxGeometry x="570" y="230" width="30" height="30" as="geometry" />
        </mxCell>
        <mxCell id="AcXJn_AeSf_NBsKi_YKP-73" value="" style="rounded=0;whiteSpace=wrap;html=1;fillColor=#C4A3A2;strokeColor=#b85450;" parent="1" vertex="1">
          <mxGeometry x="480" y="260" width="30" height="30" as="geometry" />
        </mxCell>
        <mxCell id="AcXJn_AeSf_NBsKi_YKP-74" value="" style="rounded=0;whiteSpace=wrap;html=1;fillColor=#f8cecc;strokeColor=#b85450;" parent="1" vertex="1">
          <mxGeometry x="510" y="260" width="30" height="30" as="geometry" />
        </mxCell>
        <mxCell id="AcXJn_AeSf_NBsKi_YKP-75" value="" style="rounded=0;whiteSpace=wrap;html=1;fillColor=#EA6B66;strokeColor=#b85450;" parent="1" vertex="1">
          <mxGeometry x="540" y="260" width="30" height="30" as="geometry" />
        </mxCell>
        <mxCell id="AcXJn_AeSf_NBsKi_YKP-76" value="" style="rounded=0;whiteSpace=wrap;html=1;fillColor=#C4A3A2;strokeColor=#b85450;" parent="1" vertex="1">
          <mxGeometry x="570" y="260" width="30" height="30" as="geometry" />
        </mxCell>
        <mxCell id="AcXJn_AeSf_NBsKi_YKP-77" value="" style="rounded=0;whiteSpace=wrap;html=1;fillColor=#EA6B66;strokeColor=#b85450;" parent="1" vertex="1">
          <mxGeometry x="480" y="290" width="30" height="30" as="geometry" />
        </mxCell>
        <mxCell id="AcXJn_AeSf_NBsKi_YKP-78" value="" style="rounded=0;whiteSpace=wrap;html=1;fillColor=#f8cecc;strokeColor=#b85450;" parent="1" vertex="1">
          <mxGeometry x="510" y="290" width="30" height="30" as="geometry" />
        </mxCell>
        <mxCell id="AcXJn_AeSf_NBsKi_YKP-79" value="" style="rounded=0;whiteSpace=wrap;html=1;fillColor=#f8cecc;strokeColor=#b85450;" parent="1" vertex="1">
          <mxGeometry x="540" y="290" width="30" height="30" as="geometry" />
        </mxCell>
        <mxCell id="AcXJn_AeSf_NBsKi_YKP-80" value="" style="rounded=0;whiteSpace=wrap;html=1;fillColor=#C4A3A2;strokeColor=#b85450;" parent="1" vertex="1">
          <mxGeometry x="570" y="290" width="30" height="30" as="geometry" />
        </mxCell>
        <mxCell id="AcXJn_AeSf_NBsKi_YKP-81" value="" style="rounded=0;whiteSpace=wrap;html=1;fillColor=#f8cecc;strokeColor=#b85450;" parent="1" vertex="1">
          <mxGeometry x="680" y="200" width="120" height="120" as="geometry" />
        </mxCell>
        <mxCell id="AcXJn_AeSf_NBsKi_YKP-82" value="" style="rounded=0;whiteSpace=wrap;html=1;fillColor=#C4A3A2;strokeColor=#b85450;" parent="1" vertex="1">
          <mxGeometry x="680" y="200" width="30" height="30" as="geometry" />
        </mxCell>
        <mxCell id="AcXJn_AeSf_NBsKi_YKP-83" value="" style="rounded=0;whiteSpace=wrap;html=1;fillColor=default;strokeColor=#b85450;gradientColor=none;" parent="1" vertex="1">
          <mxGeometry x="710" y="200" width="30" height="30" as="geometry" />
        </mxCell>
        <mxCell id="AcXJn_AeSf_NBsKi_YKP-84" value="" style="rounded=0;whiteSpace=wrap;html=1;fillColor=#EA6B66;strokeColor=#b85450;" parent="1" vertex="1">
          <mxGeometry x="740" y="200" width="30" height="30" as="geometry" />
        </mxCell>
        <mxCell id="AcXJn_AeSf_NBsKi_YKP-85" value="" style="rounded=0;whiteSpace=wrap;html=1;fillColor=#000000;strokeColor=#b85450;gradientColor=none;" parent="1" vertex="1">
          <mxGeometry x="770" y="200" width="30" height="30" as="geometry" />
        </mxCell>
        <mxCell id="AcXJn_AeSf_NBsKi_YKP-86" value="" style="rounded=0;whiteSpace=wrap;html=1;fillColor=default;strokeColor=#b85450;gradientColor=none;" parent="1" vertex="1">
          <mxGeometry x="680" y="230" width="30" height="30" as="geometry" />
        </mxCell>
        <mxCell id="AcXJn_AeSf_NBsKi_YKP-88" value="" style="rounded=0;whiteSpace=wrap;html=1;fillColor=#C4A3A2;strokeColor=#b85450;" parent="1" vertex="1">
          <mxGeometry x="740" y="230" width="30" height="30" as="geometry" />
        </mxCell>
        <mxCell id="AcXJn_AeSf_NBsKi_YKP-89" value="" style="rounded=0;whiteSpace=wrap;html=1;fillColor=#EA6B66;strokeColor=#b85450;" parent="1" vertex="1">
          <mxGeometry x="770" y="230" width="30" height="30" as="geometry" />
        </mxCell>
        <mxCell id="AcXJn_AeSf_NBsKi_YKP-90" value="" style="rounded=0;whiteSpace=wrap;html=1;fillColor=#C4A3A2;strokeColor=#b85450;" parent="1" vertex="1">
          <mxGeometry x="680" y="260" width="30" height="30" as="geometry" />
        </mxCell>
        <mxCell id="AcXJn_AeSf_NBsKi_YKP-91" value="" style="rounded=0;whiteSpace=wrap;html=1;fillColor=default;strokeColor=#b85450;gradientColor=none;" parent="1" vertex="1">
          <mxGeometry x="710" y="260" width="30" height="30" as="geometry" />
        </mxCell>
        <mxCell id="AcXJn_AeSf_NBsKi_YKP-92" value="" style="rounded=0;whiteSpace=wrap;html=1;fillColor=#EA6B66;strokeColor=#b85450;" parent="1" vertex="1">
          <mxGeometry x="740" y="260" width="30" height="30" as="geometry" />
        </mxCell>
        <mxCell id="AcXJn_AeSf_NBsKi_YKP-93" value="" style="rounded=0;whiteSpace=wrap;html=1;fillColor=#C4A3A2;strokeColor=#b85450;" parent="1" vertex="1">
          <mxGeometry x="770" y="260" width="30" height="30" as="geometry" />
        </mxCell>
        <mxCell id="AcXJn_AeSf_NBsKi_YKP-94" value="" style="rounded=0;whiteSpace=wrap;html=1;fillColor=#EA6B66;strokeColor=#b85450;" parent="1" vertex="1">
          <mxGeometry x="680" y="290" width="30" height="30" as="geometry" />
        </mxCell>
        <mxCell id="AcXJn_AeSf_NBsKi_YKP-95" value="" style="rounded=0;whiteSpace=wrap;html=1;fillColor=default;strokeColor=#b85450;gradientColor=none;" parent="1" vertex="1">
          <mxGeometry x="710" y="290" width="30" height="30" as="geometry" />
        </mxCell>
        <mxCell id="AcXJn_AeSf_NBsKi_YKP-96" value="" style="rounded=0;whiteSpace=wrap;html=1;fillColor=default;strokeColor=#b85450;gradientColor=none;" parent="1" vertex="1">
          <mxGeometry x="740" y="290" width="30" height="30" as="geometry" />
        </mxCell>
        <mxCell id="AcXJn_AeSf_NBsKi_YKP-97" value="" style="rounded=0;whiteSpace=wrap;html=1;fillColor=#C4A3A2;strokeColor=#b85450;" parent="1" vertex="1">
          <mxGeometry x="770" y="290" width="30" height="30" as="geometry" />
        </mxCell>
        <mxCell id="AcXJn_AeSf_NBsKi_YKP-98" value="" style="rounded=0;whiteSpace=wrap;html=1;fillColor=#C4A3A2;strokeColor=#b85450;" parent="1" vertex="1">
          <mxGeometry x="710" y="230" width="30" height="30" as="geometry" />
        </mxCell>
        <mxCell id="AcXJn_AeSf_NBsKi_YKP-99" value="" style="rounded=0;whiteSpace=wrap;html=1;fillColor=#fff2cc;strokeColor=#d6b656;" parent="1" vertex="1">
          <mxGeometry x="880" y="200" width="120" height="120" as="geometry" />
        </mxCell>
        <mxCell id="AcXJn_AeSf_NBsKi_YKP-100" value="" style="rounded=0;whiteSpace=wrap;html=1;fillColor=#D4C9A9;strokeColor=#d6b656;" parent="1" vertex="1">
          <mxGeometry x="880" y="200" width="30" height="30" as="geometry" />
        </mxCell>
        <mxCell id="AcXJn_AeSf_NBsKi_YKP-101" value="" style="rounded=0;whiteSpace=wrap;html=1;fillColor=#000000;strokeColor=#d6b656;" parent="1" vertex="1">
          <mxGeometry x="910" y="200" width="30" height="30" as="geometry" />
        </mxCell>
        <mxCell id="AcXJn_AeSf_NBsKi_YKP-102" value="" style="rounded=0;whiteSpace=wrap;html=1;fillColor=#fff2cc;strokeColor=#d6b656;" parent="1" vertex="1">
          <mxGeometry x="940" y="200" width="30" height="30" as="geometry" />
        </mxCell>
        <mxCell id="AcXJn_AeSf_NBsKi_YKP-103" value="" style="rounded=0;whiteSpace=wrap;html=1;fillColor=#000000;strokeColor=#d6b656;" parent="1" vertex="1">
          <mxGeometry x="970" y="200" width="30" height="30" as="geometry" />
        </mxCell>
        <mxCell id="AcXJn_AeSf_NBsKi_YKP-104" value="" style="rounded=0;whiteSpace=wrap;html=1;fillColor=#000000;strokeColor=#d6b656;" parent="1" vertex="1">
          <mxGeometry x="880" y="230" width="30" height="30" as="geometry" />
        </mxCell>
        <mxCell id="AcXJn_AeSf_NBsKi_YKP-105" value="" style="rounded=0;whiteSpace=wrap;html=1;fillColor=#fff2cc;strokeColor=#d6b656;" parent="1" vertex="1">
          <mxGeometry x="910" y="230" width="30" height="30" as="geometry" />
        </mxCell>
        <mxCell id="AcXJn_AeSf_NBsKi_YKP-106" value="" style="rounded=0;whiteSpace=wrap;html=1;fillColor=#D4C9A9;strokeColor=#d6b656;" parent="1" vertex="1">
          <mxGeometry x="940" y="230" width="30" height="30" as="geometry" />
        </mxCell>
        <mxCell id="AcXJn_AeSf_NBsKi_YKP-107" value="" style="rounded=0;whiteSpace=wrap;html=1;fillColor=#fff2cc;strokeColor=#d6b656;" parent="1" vertex="1">
          <mxGeometry x="970" y="230" width="30" height="30" as="geometry" />
        </mxCell>
        <mxCell id="AcXJn_AeSf_NBsKi_YKP-108" value="" style="rounded=0;whiteSpace=wrap;html=1;fillColor=#fff2cc;strokeColor=#d6b656;" parent="1" vertex="1">
          <mxGeometry x="880" y="260" width="30" height="30" as="geometry" />
        </mxCell>
        <mxCell id="AcXJn_AeSf_NBsKi_YKP-109" value="" style="rounded=0;whiteSpace=wrap;html=1;fillColor=#000000;strokeColor=#d6b656;" parent="1" vertex="1">
          <mxGeometry x="910" y="260" width="30" height="30" as="geometry" />
        </mxCell>
        <mxCell id="AcXJn_AeSf_NBsKi_YKP-110" value="" style="rounded=0;whiteSpace=wrap;html=1;fillColor=#fff2cc;strokeColor=#d6b656;" parent="1" vertex="1">
          <mxGeometry x="940" y="260" width="30" height="30" as="geometry" />
        </mxCell>
        <mxCell id="AcXJn_AeSf_NBsKi_YKP-111" value="" style="rounded=0;whiteSpace=wrap;html=1;fillColor=#fff2cc;strokeColor=#d6b656;" parent="1" vertex="1">
          <mxGeometry x="970" y="260" width="30" height="30" as="geometry" />
        </mxCell>
        <mxCell id="AcXJn_AeSf_NBsKi_YKP-112" value="" style="rounded=0;whiteSpace=wrap;html=1;fillColor=#fff2cc;strokeColor=#d6b656;" parent="1" vertex="1">
          <mxGeometry x="880" y="290" width="30" height="30" as="geometry" />
        </mxCell>
        <mxCell id="AcXJn_AeSf_NBsKi_YKP-113" value="" style="rounded=0;whiteSpace=wrap;html=1;fillColor=#000000;strokeColor=#d6b656;" parent="1" vertex="1">
          <mxGeometry x="910" y="290" width="30" height="30" as="geometry" />
        </mxCell>
        <mxCell id="AcXJn_AeSf_NBsKi_YKP-114" value="" style="rounded=0;whiteSpace=wrap;html=1;fillColor=#000000;strokeColor=#d6b656;" parent="1" vertex="1">
          <mxGeometry x="940" y="290" width="30" height="30" as="geometry" />
        </mxCell>
        <mxCell id="AcXJn_AeSf_NBsKi_YKP-115" value="" style="rounded=0;whiteSpace=wrap;html=1;fillColor=#D4C9A9;strokeColor=#d6b656;" parent="1" vertex="1">
          <mxGeometry x="970" y="290" width="30" height="30" as="geometry" />
        </mxCell>
        <mxCell id="AcXJn_AeSf_NBsKi_YKP-116" value="" style="rounded=0;whiteSpace=wrap;html=1;fillColor=#000000;strokeColor=#b85450;gradientColor=none;" parent="1" vertex="1">
          <mxGeometry x="740" y="290" width="30" height="30" as="geometry" />
        </mxCell>
        <mxCell id="AcXJn_AeSf_NBsKi_YKP-117" value="" style="rounded=0;whiteSpace=wrap;html=1;fillColor=#000000;strokeColor=#b85450;gradientColor=none;" parent="1" vertex="1">
          <mxGeometry x="710" y="290" width="30" height="30" as="geometry" />
        </mxCell>
        <mxCell id="AcXJn_AeSf_NBsKi_YKP-118" value="" style="rounded=0;whiteSpace=wrap;html=1;fillColor=#000000;strokeColor=#b85450;gradientColor=none;" parent="1" vertex="1">
          <mxGeometry x="710" y="260" width="30" height="30" as="geometry" />
        </mxCell>
        <mxCell id="AcXJn_AeSf_NBsKi_YKP-119" value="" style="rounded=0;whiteSpace=wrap;html=1;fillColor=#000000;strokeColor=#b85450;gradientColor=none;" parent="1" vertex="1">
          <mxGeometry x="680" y="230" width="30" height="30" as="geometry" />
        </mxCell>
        <mxCell id="AcXJn_AeSf_NBsKi_YKP-120" value="" style="rounded=0;whiteSpace=wrap;html=1;fillColor=#000000;strokeColor=#b85450;gradientColor=none;" parent="1" vertex="1">
          <mxGeometry x="710" y="200" width="30" height="30" as="geometry" />
        </mxCell>
        <mxCell id="AcXJn_AeSf_NBsKi_YKP-121" value="" style="edgeStyle=orthogonalEdgeStyle;rounded=0;orthogonalLoop=1;jettySize=auto;html=1;strokeWidth=4;" parent="1" source="AcXJn_AeSf_NBsKi_YKP-122" edge="1">
          <mxGeometry relative="1" as="geometry">
            <mxPoint x="279.75" y="539" as="targetPoint" />
          </mxGeometry>
        </mxCell>
        <mxCell id="AcXJn_AeSf_NBsKi_YKP-122" value="" style="rounded=0;whiteSpace=wrap;html=1;fillColor=#fff2cc;strokeColor=#d6b656;" parent="1" vertex="1">
          <mxGeometry x="79.75" y="479" width="120" height="120" as="geometry" />
        </mxCell>
        <mxCell id="AcXJn_AeSf_NBsKi_YKP-123" value="" style="edgeStyle=orthogonalEdgeStyle;rounded=0;orthogonalLoop=1;jettySize=auto;html=1;strokeWidth=4;" parent="1" target="AcXJn_AeSf_NBsKi_YKP-126" edge="1">
          <mxGeometry relative="1" as="geometry">
            <mxPoint x="399.75" y="539" as="sourcePoint" />
          </mxGeometry>
        </mxCell>
        <mxCell id="AcXJn_AeSf_NBsKi_YKP-125" value="" style="edgeStyle=orthogonalEdgeStyle;rounded=0;orthogonalLoop=1;jettySize=auto;html=1;strokeWidth=4;" parent="1" source="AcXJn_AeSf_NBsKi_YKP-126" target="AcXJn_AeSf_NBsKi_YKP-128" edge="1">
          <mxGeometry relative="1" as="geometry" />
        </mxCell>
        <mxCell id="AcXJn_AeSf_NBsKi_YKP-126" value="" style="rounded=0;whiteSpace=wrap;html=1;fillColor=#f8cecc;strokeColor=#b85450;" parent="1" vertex="1">
          <mxGeometry x="479.75" y="479" width="120" height="120" as="geometry" />
        </mxCell>
        <mxCell id="AcXJn_AeSf_NBsKi_YKP-127" value="" style="edgeStyle=orthogonalEdgeStyle;rounded=0;orthogonalLoop=1;jettySize=auto;html=1;strokeWidth=4;" parent="1" source="AcXJn_AeSf_NBsKi_YKP-128" edge="1">
          <mxGeometry relative="1" as="geometry">
            <mxPoint x="879.75" y="539" as="targetPoint" />
          </mxGeometry>
        </mxCell>
        <mxCell id="AcXJn_AeSf_NBsKi_YKP-128" value="" style="rounded=0;whiteSpace=wrap;html=1;fillColor=#f8cecc;strokeColor=#b85450;" parent="1" vertex="1">
          <mxGeometry x="679.75" y="479" width="120" height="120" as="geometry" />
        </mxCell>
        <mxCell id="AcXJn_AeSf_NBsKi_YKP-130" value="&lt;font style=&quot;font-size: 23px;&quot;&gt;Initial weights &lt;i&gt;w&lt;sub&gt;0&lt;/sub&gt;&lt;/i&gt;&lt;/font&gt;" style="text;html=1;strokeColor=none;fillColor=none;align=center;verticalAlign=middle;whiteSpace=wrap;rounded=0;" parent="1" vertex="1">
          <mxGeometry x="34.75" y="389" width="210" height="70" as="geometry" />
        </mxCell>
        <mxCell id="AcXJn_AeSf_NBsKi_YKP-131" value="&lt;span style=&quot;font-size: 23px;&quot;&gt;trained weights &lt;/span&gt;&lt;i style=&quot;&quot;&gt;&lt;span style=&quot;font-size: 23px;&quot;&gt;w&lt;/span&gt;&lt;span style=&quot;font-size: 19.1667px;&quot;&gt;&lt;sub&gt;n&lt;/sub&gt;&lt;/span&gt;&lt;/i&gt;" style="text;html=1;strokeColor=none;fillColor=none;align=center;verticalAlign=middle;whiteSpace=wrap;rounded=0;" parent="1" vertex="1">
          <mxGeometry x="434.75" y="389" width="210" height="70" as="geometry" />
        </mxCell>
        <mxCell id="AcXJn_AeSf_NBsKi_YKP-132" value="&lt;span style=&quot;font-size: 23px;&quot;&gt;magnitude pruning&lt;/span&gt;" style="text;html=1;strokeColor=none;fillColor=none;align=center;verticalAlign=middle;whiteSpace=wrap;rounded=0;" parent="1" vertex="1">
          <mxGeometry x="652.25" y="389" width="175" height="70" as="geometry" />
        </mxCell>
        <mxCell id="AcXJn_AeSf_NBsKi_YKP-133" value="&lt;span style=&quot;font-size: 23px;&quot;&gt;weights rewinded to &lt;/span&gt;&lt;i style=&quot;&quot;&gt;&lt;span style=&quot;font-size: 23px;&quot;&gt;w&lt;/span&gt;&lt;span style=&quot;font-size: 19.1667px;&quot;&gt;&lt;sub&gt;k&lt;/sub&gt;&lt;/span&gt;&lt;/i&gt;&lt;span style=&quot;font-size: 23px;&quot;&gt;&amp;nbsp;&lt;/span&gt;" style="text;html=1;strokeColor=none;fillColor=none;align=center;verticalAlign=middle;whiteSpace=wrap;rounded=0;" parent="1" vertex="1">
          <mxGeometry x="852.25" y="389" width="175" height="70" as="geometry" />
        </mxCell>
        <mxCell id="AcXJn_AeSf_NBsKi_YKP-134" value="" style="rounded=0;whiteSpace=wrap;html=1;fillColor=#D4C9A9;strokeColor=#d6b656;" parent="1" vertex="1">
          <mxGeometry x="79.75" y="479" width="30" height="30" as="geometry" />
        </mxCell>
        <mxCell id="AcXJn_AeSf_NBsKi_YKP-135" value="" style="rounded=0;whiteSpace=wrap;html=1;fillColor=#fff2cc;strokeColor=#d6b656;" parent="1" vertex="1">
          <mxGeometry x="109.75" y="479" width="30" height="30" as="geometry" />
        </mxCell>
        <mxCell id="AcXJn_AeSf_NBsKi_YKP-136" value="" style="rounded=0;whiteSpace=wrap;html=1;fillColor=#fff2cc;strokeColor=#d6b656;" parent="1" vertex="1">
          <mxGeometry x="139.75" y="479" width="30" height="30" as="geometry" />
        </mxCell>
        <mxCell id="AcXJn_AeSf_NBsKi_YKP-137" value="" style="rounded=0;whiteSpace=wrap;html=1;fillColor=#fff2cc;strokeColor=#d6b656;" parent="1" vertex="1">
          <mxGeometry x="169.75" y="479" width="30" height="30" as="geometry" />
        </mxCell>
        <mxCell id="AcXJn_AeSf_NBsKi_YKP-138" value="" style="rounded=0;whiteSpace=wrap;html=1;fillColor=#fff2cc;strokeColor=#d6b656;" parent="1" vertex="1">
          <mxGeometry x="79.75" y="509" width="30" height="30" as="geometry" />
        </mxCell>
        <mxCell id="AcXJn_AeSf_NBsKi_YKP-139" value="" style="rounded=0;whiteSpace=wrap;html=1;fillColor=#fff2cc;strokeColor=#d6b656;" parent="1" vertex="1">
          <mxGeometry x="109.75" y="509" width="30" height="30" as="geometry" />
        </mxCell>
        <mxCell id="AcXJn_AeSf_NBsKi_YKP-140" value="" style="rounded=0;whiteSpace=wrap;html=1;fillColor=#D4C9A9;strokeColor=#d6b656;" parent="1" vertex="1">
          <mxGeometry x="139.75" y="509" width="30" height="30" as="geometry" />
        </mxCell>
        <mxCell id="AcXJn_AeSf_NBsKi_YKP-141" value="" style="rounded=0;whiteSpace=wrap;html=1;fillColor=#fff2cc;strokeColor=#d6b656;" parent="1" vertex="1">
          <mxGeometry x="169.75" y="509" width="30" height="30" as="geometry" />
        </mxCell>
        <mxCell id="AcXJn_AeSf_NBsKi_YKP-142" value="" style="rounded=0;whiteSpace=wrap;html=1;fillColor=#fff2cc;strokeColor=#d6b656;" parent="1" vertex="1">
          <mxGeometry x="79.75" y="539" width="30" height="30" as="geometry" />
        </mxCell>
        <mxCell id="AcXJn_AeSf_NBsKi_YKP-143" value="" style="rounded=0;whiteSpace=wrap;html=1;fillColor=#D4C9A9;strokeColor=#d6b656;" parent="1" vertex="1">
          <mxGeometry x="109.75" y="539" width="30" height="30" as="geometry" />
        </mxCell>
        <mxCell id="AcXJn_AeSf_NBsKi_YKP-144" value="" style="rounded=0;whiteSpace=wrap;html=1;fillColor=#fff2cc;strokeColor=#d6b656;" parent="1" vertex="1">
          <mxGeometry x="139.75" y="539" width="30" height="30" as="geometry" />
        </mxCell>
        <mxCell id="AcXJn_AeSf_NBsKi_YKP-145" value="" style="rounded=0;whiteSpace=wrap;html=1;fillColor=#fff2cc;strokeColor=#d6b656;" parent="1" vertex="1">
          <mxGeometry x="169.75" y="539" width="30" height="30" as="geometry" />
        </mxCell>
        <mxCell id="AcXJn_AeSf_NBsKi_YKP-146" value="" style="rounded=0;whiteSpace=wrap;html=1;fillColor=#fff2cc;strokeColor=#d6b656;" parent="1" vertex="1">
          <mxGeometry x="79.75" y="569" width="30" height="30" as="geometry" />
        </mxCell>
        <mxCell id="AcXJn_AeSf_NBsKi_YKP-147" value="" style="rounded=0;whiteSpace=wrap;html=1;fillColor=#fff2cc;strokeColor=#d6b656;" parent="1" vertex="1">
          <mxGeometry x="109.75" y="569" width="30" height="30" as="geometry" />
        </mxCell>
        <mxCell id="AcXJn_AeSf_NBsKi_YKP-148" value="" style="rounded=0;whiteSpace=wrap;html=1;fillColor=#D4C9A9;strokeColor=#d6b656;" parent="1" vertex="1">
          <mxGeometry x="139.75" y="569" width="30" height="30" as="geometry" />
        </mxCell>
        <mxCell id="AcXJn_AeSf_NBsKi_YKP-149" value="" style="rounded=0;whiteSpace=wrap;html=1;fillColor=#D4C9A9;strokeColor=#d6b656;" parent="1" vertex="1">
          <mxGeometry x="169.75" y="569" width="30" height="30" as="geometry" />
        </mxCell>
        <mxCell id="AcXJn_AeSf_NBsKi_YKP-166" value="" style="rounded=0;whiteSpace=wrap;html=1;fillColor=#C4A3A2;strokeColor=#b85450;" parent="1" vertex="1">
          <mxGeometry x="479.75" y="479" width="30" height="30" as="geometry" />
        </mxCell>
        <mxCell id="AcXJn_AeSf_NBsKi_YKP-167" value="" style="rounded=0;whiteSpace=wrap;html=1;fillColor=#f8cecc;strokeColor=#b85450;" parent="1" vertex="1">
          <mxGeometry x="509.75" y="479" width="30" height="30" as="geometry" />
        </mxCell>
        <mxCell id="AcXJn_AeSf_NBsKi_YKP-168" value="" style="rounded=0;whiteSpace=wrap;html=1;fillColor=#EA6B66;strokeColor=#b85450;" parent="1" vertex="1">
          <mxGeometry x="539.75" y="479" width="30" height="30" as="geometry" />
        </mxCell>
        <mxCell id="AcXJn_AeSf_NBsKi_YKP-169" value="" style="rounded=0;whiteSpace=wrap;html=1;fillColor=#f8cecc;strokeColor=#b85450;" parent="1" vertex="1">
          <mxGeometry x="569.75" y="479" width="30" height="30" as="geometry" />
        </mxCell>
        <mxCell id="AcXJn_AeSf_NBsKi_YKP-170" value="" style="rounded=0;whiteSpace=wrap;html=1;fillColor=#f8cecc;strokeColor=#b85450;" parent="1" vertex="1">
          <mxGeometry x="479.75" y="509" width="30" height="30" as="geometry" />
        </mxCell>
        <mxCell id="AcXJn_AeSf_NBsKi_YKP-171" value="" style="rounded=0;whiteSpace=wrap;html=1;fillColor=#C4A3A2;strokeColor=#b85450;" parent="1" vertex="1">
          <mxGeometry x="509.75" y="509" width="30" height="30" as="geometry" />
        </mxCell>
        <mxCell id="AcXJn_AeSf_NBsKi_YKP-172" value="" style="rounded=0;whiteSpace=wrap;html=1;fillColor=#C4A3A2;strokeColor=#b85450;" parent="1" vertex="1">
          <mxGeometry x="539.75" y="509" width="30" height="30" as="geometry" />
        </mxCell>
        <mxCell id="AcXJn_AeSf_NBsKi_YKP-173" value="" style="rounded=0;whiteSpace=wrap;html=1;fillColor=#EA6B66;strokeColor=#b85450;" parent="1" vertex="1">
          <mxGeometry x="569.75" y="509" width="30" height="30" as="geometry" />
        </mxCell>
        <mxCell id="AcXJn_AeSf_NBsKi_YKP-174" value="" style="rounded=0;whiteSpace=wrap;html=1;fillColor=#C4A3A2;strokeColor=#b85450;" parent="1" vertex="1">
          <mxGeometry x="479.75" y="539" width="30" height="30" as="geometry" />
        </mxCell>
        <mxCell id="AcXJn_AeSf_NBsKi_YKP-175" value="" style="rounded=0;whiteSpace=wrap;html=1;fillColor=#f8cecc;strokeColor=#b85450;" parent="1" vertex="1">
          <mxGeometry x="509.75" y="539" width="30" height="30" as="geometry" />
        </mxCell>
        <mxCell id="AcXJn_AeSf_NBsKi_YKP-176" value="" style="rounded=0;whiteSpace=wrap;html=1;fillColor=#EA6B66;strokeColor=#b85450;" parent="1" vertex="1">
          <mxGeometry x="539.75" y="539" width="30" height="30" as="geometry" />
        </mxCell>
        <mxCell id="AcXJn_AeSf_NBsKi_YKP-177" value="" style="rounded=0;whiteSpace=wrap;html=1;fillColor=#C4A3A2;strokeColor=#b85450;" parent="1" vertex="1">
          <mxGeometry x="569.75" y="539" width="30" height="30" as="geometry" />
        </mxCell>
        <mxCell id="AcXJn_AeSf_NBsKi_YKP-178" value="" style="rounded=0;whiteSpace=wrap;html=1;fillColor=#EA6B66;strokeColor=#b85450;" parent="1" vertex="1">
          <mxGeometry x="479.75" y="569" width="30" height="30" as="geometry" />
        </mxCell>
        <mxCell id="AcXJn_AeSf_NBsKi_YKP-179" value="" style="rounded=0;whiteSpace=wrap;html=1;fillColor=#f8cecc;strokeColor=#b85450;" parent="1" vertex="1">
          <mxGeometry x="509.75" y="569" width="30" height="30" as="geometry" />
        </mxCell>
        <mxCell id="AcXJn_AeSf_NBsKi_YKP-180" value="" style="rounded=0;whiteSpace=wrap;html=1;fillColor=#f8cecc;strokeColor=#b85450;" parent="1" vertex="1">
          <mxGeometry x="539.75" y="569" width="30" height="30" as="geometry" />
        </mxCell>
        <mxCell id="AcXJn_AeSf_NBsKi_YKP-181" value="" style="rounded=0;whiteSpace=wrap;html=1;fillColor=#C4A3A2;strokeColor=#b85450;" parent="1" vertex="1">
          <mxGeometry x="569.75" y="569" width="30" height="30" as="geometry" />
        </mxCell>
        <mxCell id="AcXJn_AeSf_NBsKi_YKP-182" value="" style="rounded=0;whiteSpace=wrap;html=1;fillColor=#f8cecc;strokeColor=#b85450;" parent="1" vertex="1">
          <mxGeometry x="679.75" y="479" width="120" height="120" as="geometry" />
        </mxCell>
        <mxCell id="AcXJn_AeSf_NBsKi_YKP-183" value="" style="rounded=0;whiteSpace=wrap;html=1;fillColor=#C4A3A2;strokeColor=#b85450;" parent="1" vertex="1">
          <mxGeometry x="679.75" y="479" width="30" height="30" as="geometry" />
        </mxCell>
        <mxCell id="AcXJn_AeSf_NBsKi_YKP-184" value="" style="rounded=0;whiteSpace=wrap;html=1;fillColor=default;strokeColor=#b85450;gradientColor=none;" parent="1" vertex="1">
          <mxGeometry x="709.75" y="479" width="30" height="30" as="geometry" />
        </mxCell>
        <mxCell id="AcXJn_AeSf_NBsKi_YKP-185" value="" style="rounded=0;whiteSpace=wrap;html=1;fillColor=#EA6B66;strokeColor=#b85450;" parent="1" vertex="1">
          <mxGeometry x="739.75" y="479" width="30" height="30" as="geometry" />
        </mxCell>
        <mxCell id="AcXJn_AeSf_NBsKi_YKP-186" value="" style="rounded=0;whiteSpace=wrap;html=1;fillColor=#000000;strokeColor=#b85450;gradientColor=none;" parent="1" vertex="1">
          <mxGeometry x="769.75" y="479" width="30" height="30" as="geometry" />
        </mxCell>
        <mxCell id="AcXJn_AeSf_NBsKi_YKP-187" value="" style="rounded=0;whiteSpace=wrap;html=1;fillColor=default;strokeColor=#b85450;gradientColor=none;" parent="1" vertex="1">
          <mxGeometry x="679.75" y="509" width="30" height="30" as="geometry" />
        </mxCell>
        <mxCell id="AcXJn_AeSf_NBsKi_YKP-188" value="" style="rounded=0;whiteSpace=wrap;html=1;fillColor=#C4A3A2;strokeColor=#b85450;" parent="1" vertex="1">
          <mxGeometry x="739.75" y="509" width="30" height="30" as="geometry" />
        </mxCell>
        <mxCell id="AcXJn_AeSf_NBsKi_YKP-189" value="" style="rounded=0;whiteSpace=wrap;html=1;fillColor=#EA6B66;strokeColor=#b85450;" parent="1" vertex="1">
          <mxGeometry x="769.75" y="509" width="30" height="30" as="geometry" />
        </mxCell>
        <mxCell id="AcXJn_AeSf_NBsKi_YKP-190" value="" style="rounded=0;whiteSpace=wrap;html=1;fillColor=#C4A3A2;strokeColor=#b85450;" parent="1" vertex="1">
          <mxGeometry x="679.75" y="539" width="30" height="30" as="geometry" />
        </mxCell>
        <mxCell id="AcXJn_AeSf_NBsKi_YKP-191" value="" style="rounded=0;whiteSpace=wrap;html=1;fillColor=default;strokeColor=#b85450;gradientColor=none;" parent="1" vertex="1">
          <mxGeometry x="709.75" y="539" width="30" height="30" as="geometry" />
        </mxCell>
        <mxCell id="AcXJn_AeSf_NBsKi_YKP-192" value="" style="rounded=0;whiteSpace=wrap;html=1;fillColor=#EA6B66;strokeColor=#b85450;" parent="1" vertex="1">
          <mxGeometry x="739.75" y="539" width="30" height="30" as="geometry" />
        </mxCell>
        <mxCell id="AcXJn_AeSf_NBsKi_YKP-193" value="" style="rounded=0;whiteSpace=wrap;html=1;fillColor=#C4A3A2;strokeColor=#b85450;" parent="1" vertex="1">
          <mxGeometry x="769.75" y="539" width="30" height="30" as="geometry" />
        </mxCell>
        <mxCell id="AcXJn_AeSf_NBsKi_YKP-194" value="" style="rounded=0;whiteSpace=wrap;html=1;fillColor=#EA6B66;strokeColor=#b85450;" parent="1" vertex="1">
          <mxGeometry x="679.75" y="569" width="30" height="30" as="geometry" />
        </mxCell>
        <mxCell id="AcXJn_AeSf_NBsKi_YKP-195" value="" style="rounded=0;whiteSpace=wrap;html=1;fillColor=default;strokeColor=#b85450;gradientColor=none;" parent="1" vertex="1">
          <mxGeometry x="709.75" y="569" width="30" height="30" as="geometry" />
        </mxCell>
        <mxCell id="AcXJn_AeSf_NBsKi_YKP-196" value="" style="rounded=0;whiteSpace=wrap;html=1;fillColor=default;strokeColor=#b85450;gradientColor=none;" parent="1" vertex="1">
          <mxGeometry x="739.75" y="569" width="30" height="30" as="geometry" />
        </mxCell>
        <mxCell id="AcXJn_AeSf_NBsKi_YKP-197" value="" style="rounded=0;whiteSpace=wrap;html=1;fillColor=#C4A3A2;strokeColor=#b85450;" parent="1" vertex="1">
          <mxGeometry x="769.75" y="569" width="30" height="30" as="geometry" />
        </mxCell>
        <mxCell id="AcXJn_AeSf_NBsKi_YKP-198" value="" style="rounded=0;whiteSpace=wrap;html=1;fillColor=#C4A3A2;strokeColor=#b85450;" parent="1" vertex="1">
          <mxGeometry x="709.75" y="509" width="30" height="30" as="geometry" />
        </mxCell>
        <mxCell id="AcXJn_AeSf_NBsKi_YKP-216" value="" style="rounded=0;whiteSpace=wrap;html=1;fillColor=#000000;strokeColor=#b85450;gradientColor=none;" parent="1" vertex="1">
          <mxGeometry x="739.75" y="569" width="30" height="30" as="geometry" />
        </mxCell>
        <mxCell id="AcXJn_AeSf_NBsKi_YKP-217" value="" style="rounded=0;whiteSpace=wrap;html=1;fillColor=#000000;strokeColor=#b85450;gradientColor=none;" parent="1" vertex="1">
          <mxGeometry x="709.75" y="569" width="30" height="30" as="geometry" />
        </mxCell>
        <mxCell id="AcXJn_AeSf_NBsKi_YKP-218" value="" style="rounded=0;whiteSpace=wrap;html=1;fillColor=#000000;strokeColor=#b85450;gradientColor=none;" parent="1" vertex="1">
          <mxGeometry x="709.75" y="539" width="30" height="30" as="geometry" />
        </mxCell>
        <mxCell id="AcXJn_AeSf_NBsKi_YKP-219" value="" style="rounded=0;whiteSpace=wrap;html=1;fillColor=#000000;strokeColor=#b85450;gradientColor=none;" parent="1" vertex="1">
          <mxGeometry x="679.75" y="509" width="30" height="30" as="geometry" />
        </mxCell>
        <mxCell id="AcXJn_AeSf_NBsKi_YKP-220" value="" style="rounded=0;whiteSpace=wrap;html=1;fillColor=#000000;strokeColor=#b85450;gradientColor=none;" parent="1" vertex="1">
          <mxGeometry x="709.75" y="479" width="30" height="30" as="geometry" />
        </mxCell>
        <mxCell id="AcXJn_AeSf_NBsKi_YKP-238" value="&lt;span style=&quot;font-size: 23px;&quot;&gt;weights at early stage &lt;i&gt;w&lt;sub&gt;k&lt;/sub&gt;&lt;/i&gt;&lt;/span&gt;" style="text;html=1;strokeColor=none;fillColor=none;align=center;verticalAlign=middle;whiteSpace=wrap;rounded=0;" parent="1" vertex="1">
          <mxGeometry x="235" y="389" width="210" height="70" as="geometry" />
        </mxCell>
        <mxCell id="AcXJn_AeSf_NBsKi_YKP-256" value="" style="rounded=0;whiteSpace=wrap;html=1;fillColor=#FFD8A6;strokeColor=#d79b00;" parent="1" vertex="1">
          <mxGeometry x="280" y="479" width="120" height="120" as="geometry" />
        </mxCell>
        <mxCell id="AcXJn_AeSf_NBsKi_YKP-257" value="" style="rounded=0;whiteSpace=wrap;html=1;fillColor=#FFD8A6;strokeColor=#d79b00;" parent="1" vertex="1">
          <mxGeometry x="280" y="479" width="30" height="30" as="geometry" />
        </mxCell>
        <mxCell id="AcXJn_AeSf_NBsKi_YKP-258" value="" style="rounded=0;whiteSpace=wrap;html=1;fillColor=#CCAD85;strokeColor=#d79b00;" parent="1" vertex="1">
          <mxGeometry x="310" y="479" width="30" height="30" as="geometry" />
        </mxCell>
        <mxCell id="AcXJn_AeSf_NBsKi_YKP-259" value="" style="rounded=0;whiteSpace=wrap;html=1;fillColor=#FFD8A6;strokeColor=#d79b00;" parent="1" vertex="1">
          <mxGeometry x="340" y="479" width="30" height="30" as="geometry" />
        </mxCell>
        <mxCell id="AcXJn_AeSf_NBsKi_YKP-260" value="" style="rounded=0;whiteSpace=wrap;html=1;fillColor=#FFD8A6;strokeColor=#d79b00;" parent="1" vertex="1">
          <mxGeometry x="370" y="479" width="30" height="30" as="geometry" />
        </mxCell>
        <mxCell id="AcXJn_AeSf_NBsKi_YKP-261" value="" style="rounded=0;whiteSpace=wrap;html=1;fillColor=#FFD8A6;strokeColor=#d79b00;" parent="1" vertex="1">
          <mxGeometry x="280" y="509" width="30" height="30" as="geometry" />
        </mxCell>
        <mxCell id="AcXJn_AeSf_NBsKi_YKP-262" value="" style="rounded=0;whiteSpace=wrap;html=1;fillColor=#FFD8A6;strokeColor=#d79b00;" parent="1" vertex="1">
          <mxGeometry x="310" y="509" width="30" height="30" as="geometry" />
        </mxCell>
        <mxCell id="AcXJn_AeSf_NBsKi_YKP-263" value="" style="rounded=0;whiteSpace=wrap;html=1;fillColor=#FFD8A6;strokeColor=#d79b00;" parent="1" vertex="1">
          <mxGeometry x="340" y="509" width="30" height="30" as="geometry" />
        </mxCell>
        <mxCell id="AcXJn_AeSf_NBsKi_YKP-264" value="" style="rounded=0;whiteSpace=wrap;html=1;fillColor=#CCAD85;strokeColor=#d79b00;" parent="1" vertex="1">
          <mxGeometry x="370" y="509" width="30" height="30" as="geometry" />
        </mxCell>
        <mxCell id="AcXJn_AeSf_NBsKi_YKP-265" value="" style="rounded=0;whiteSpace=wrap;html=1;fillColor=#CCAD85;strokeColor=#d79b00;" parent="1" vertex="1">
          <mxGeometry x="280" y="539" width="30" height="30" as="geometry" />
        </mxCell>
        <mxCell id="AcXJn_AeSf_NBsKi_YKP-266" value="" style="rounded=0;whiteSpace=wrap;html=1;fillColor=#FFD8A6;strokeColor=#d79b00;" parent="1" vertex="1">
          <mxGeometry x="310" y="539" width="30" height="30" as="geometry" />
        </mxCell>
        <mxCell id="AcXJn_AeSf_NBsKi_YKP-267" value="" style="rounded=0;whiteSpace=wrap;html=1;fillColor=#CCAD85;strokeColor=#d79b00;" parent="1" vertex="1">
          <mxGeometry x="340" y="539" width="30" height="30" as="geometry" />
        </mxCell>
        <mxCell id="AcXJn_AeSf_NBsKi_YKP-268" value="" style="rounded=0;whiteSpace=wrap;html=1;fillColor=#FFD8A6;strokeColor=#d79b00;" parent="1" vertex="1">
          <mxGeometry x="370" y="539" width="30" height="30" as="geometry" />
        </mxCell>
        <mxCell id="AcXJn_AeSf_NBsKi_YKP-269" value="" style="rounded=0;whiteSpace=wrap;html=1;fillColor=#CCAD85;strokeColor=#d79b00;" parent="1" vertex="1">
          <mxGeometry x="280" y="569" width="30" height="30" as="geometry" />
        </mxCell>
        <mxCell id="AcXJn_AeSf_NBsKi_YKP-270" value="" style="rounded=0;whiteSpace=wrap;html=1;fillColor=#FFD8A6;strokeColor=#d79b00;" parent="1" vertex="1">
          <mxGeometry x="310" y="569" width="30" height="30" as="geometry" />
        </mxCell>
        <mxCell id="AcXJn_AeSf_NBsKi_YKP-271" value="" style="rounded=0;whiteSpace=wrap;html=1;fillColor=#FFD8A6;strokeColor=#d79b00;" parent="1" vertex="1">
          <mxGeometry x="340" y="569" width="30" height="30" as="geometry" />
        </mxCell>
        <mxCell id="AcXJn_AeSf_NBsKi_YKP-272" value="" style="rounded=0;whiteSpace=wrap;html=1;fillColor=#FFD8A6;strokeColor=#d79b00;" parent="1" vertex="1">
          <mxGeometry x="370" y="569" width="30" height="30" as="geometry" />
        </mxCell>
        <mxCell id="AcXJn_AeSf_NBsKi_YKP-273" value="" style="rounded=0;whiteSpace=wrap;html=1;fillColor=#FFD8A6;strokeColor=#d79b00;" parent="1" vertex="1">
          <mxGeometry x="879.75" y="479" width="120" height="120" as="geometry" />
        </mxCell>
        <mxCell id="AcXJn_AeSf_NBsKi_YKP-274" value="" style="rounded=0;whiteSpace=wrap;html=1;fillColor=#FFD8A6;strokeColor=#d79b00;" parent="1" vertex="1">
          <mxGeometry x="879.75" y="479" width="30" height="30" as="geometry" />
        </mxCell>
        <mxCell id="AcXJn_AeSf_NBsKi_YKP-275" value="" style="rounded=0;whiteSpace=wrap;html=1;fillColor=#000000;strokeColor=#d79b00;" parent="1" vertex="1">
          <mxGeometry x="909.75" y="479" width="30" height="30" as="geometry" />
        </mxCell>
        <mxCell id="AcXJn_AeSf_NBsKi_YKP-276" value="" style="rounded=0;whiteSpace=wrap;html=1;fillColor=#FFD8A6;strokeColor=#d79b00;" parent="1" vertex="1">
          <mxGeometry x="939.75" y="479" width="30" height="30" as="geometry" />
        </mxCell>
        <mxCell id="AcXJn_AeSf_NBsKi_YKP-277" value="" style="rounded=0;whiteSpace=wrap;html=1;fillColor=#000000;strokeColor=#d79b00;" parent="1" vertex="1">
          <mxGeometry x="969.75" y="479" width="30" height="30" as="geometry" />
        </mxCell>
        <mxCell id="AcXJn_AeSf_NBsKi_YKP-278" value="" style="rounded=0;whiteSpace=wrap;html=1;fillColor=#000000;strokeColor=#d79b00;" parent="1" vertex="1">
          <mxGeometry x="879.75" y="509" width="30" height="30" as="geometry" />
        </mxCell>
        <mxCell id="AcXJn_AeSf_NBsKi_YKP-279" value="" style="rounded=0;whiteSpace=wrap;html=1;fillColor=#FFD8A6;strokeColor=#d79b00;" parent="1" vertex="1">
          <mxGeometry x="909.75" y="509" width="30" height="30" as="geometry" />
        </mxCell>
        <mxCell id="AcXJn_AeSf_NBsKi_YKP-280" value="" style="rounded=0;whiteSpace=wrap;html=1;fillColor=#FFD8A6;strokeColor=#d79b00;" parent="1" vertex="1">
          <mxGeometry x="939.75" y="509" width="30" height="30" as="geometry" />
        </mxCell>
        <mxCell id="AcXJn_AeSf_NBsKi_YKP-281" value="" style="rounded=0;whiteSpace=wrap;html=1;fillColor=#CCAD85;strokeColor=#d79b00;" parent="1" vertex="1">
          <mxGeometry x="969.75" y="509" width="30" height="30" as="geometry" />
        </mxCell>
        <mxCell id="AcXJn_AeSf_NBsKi_YKP-282" value="" style="rounded=0;whiteSpace=wrap;html=1;fillColor=#CCAD85;strokeColor=#d79b00;" parent="1" vertex="1">
          <mxGeometry x="879.75" y="539" width="30" height="30" as="geometry" />
        </mxCell>
        <mxCell id="AcXJn_AeSf_NBsKi_YKP-283" value="" style="rounded=0;whiteSpace=wrap;html=1;fillColor=#000000;strokeColor=#d79b00;" parent="1" vertex="1">
          <mxGeometry x="909.75" y="539" width="30" height="30" as="geometry" />
        </mxCell>
        <mxCell id="AcXJn_AeSf_NBsKi_YKP-284" value="" style="rounded=0;whiteSpace=wrap;html=1;fillColor=#CCAD85;strokeColor=#d79b00;" parent="1" vertex="1">
          <mxGeometry x="939.75" y="539" width="30" height="30" as="geometry" />
        </mxCell>
        <mxCell id="AcXJn_AeSf_NBsKi_YKP-285" value="" style="rounded=0;whiteSpace=wrap;html=1;fillColor=#FFD8A6;strokeColor=#d79b00;" parent="1" vertex="1">
          <mxGeometry x="969.75" y="539" width="30" height="30" as="geometry" />
        </mxCell>
        <mxCell id="AcXJn_AeSf_NBsKi_YKP-286" value="" style="rounded=0;whiteSpace=wrap;html=1;fillColor=#CCAD85;strokeColor=#d79b00;" parent="1" vertex="1">
          <mxGeometry x="879.75" y="569" width="30" height="30" as="geometry" />
        </mxCell>
        <mxCell id="AcXJn_AeSf_NBsKi_YKP-287" value="" style="rounded=0;whiteSpace=wrap;html=1;fillColor=#000000;strokeColor=#d79b00;" parent="1" vertex="1">
          <mxGeometry x="909.75" y="569" width="30" height="30" as="geometry" />
        </mxCell>
        <mxCell id="AcXJn_AeSf_NBsKi_YKP-288" value="" style="rounded=0;whiteSpace=wrap;html=1;fillColor=#000000;strokeColor=#d79b00;" parent="1" vertex="1">
          <mxGeometry x="939.75" y="569" width="30" height="30" as="geometry" />
        </mxCell>
        <mxCell id="AcXJn_AeSf_NBsKi_YKP-289" value="" style="rounded=0;whiteSpace=wrap;html=1;fillColor=#FFD8A6;strokeColor=#d79b00;" parent="1" vertex="1">
          <mxGeometry x="969.75" y="569" width="30" height="30" as="geometry" />
        </mxCell>
        <mxCell id="AcXJn_AeSf_NBsKi_YKP-290" value="" style="edgeStyle=orthogonalEdgeStyle;rounded=0;orthogonalLoop=1;jettySize=auto;html=1;exitX=1;exitY=0;exitDx=0;exitDy=0;strokeWidth=4;" parent="1" source="AcXJn_AeSf_NBsKi_YKP-44" edge="1">
          <mxGeometry relative="1" as="geometry">
            <mxPoint x="210" y="260" as="sourcePoint" />
            <mxPoint x="479.75" y="260" as="targetPoint" />
            <Array as="points">
              <mxPoint x="270" y="260" />
              <mxPoint x="270" y="260" />
            </Array>
          </mxGeometry>
        </mxCell>
        <mxCell id="AcXJn_AeSf_NBsKi_YKP-291" value="" style="edgeStyle=orthogonalEdgeStyle;rounded=0;orthogonalLoop=1;jettySize=auto;html=1;strokeWidth=4;" parent="1" source="AcXJn_AeSf_NBsKi_YKP-292" edge="1">
          <mxGeometry relative="1" as="geometry">
            <mxPoint x="279.5" y="820" as="targetPoint" />
          </mxGeometry>
        </mxCell>
        <mxCell id="AcXJn_AeSf_NBsKi_YKP-292" value="" style="rounded=0;whiteSpace=wrap;html=1;fillColor=#fff2cc;strokeColor=#d6b656;" parent="1" vertex="1">
          <mxGeometry x="79.5" y="760" width="120" height="120" as="geometry" />
        </mxCell>
        <mxCell id="AcXJn_AeSf_NBsKi_YKP-298" value="&lt;font style=&quot;font-size: 23px;&quot;&gt;Initial weights &lt;i&gt;w&lt;sub&gt;0&lt;/sub&gt;&lt;/i&gt;&lt;/font&gt;" style="text;html=1;strokeColor=none;fillColor=none;align=center;verticalAlign=middle;whiteSpace=wrap;rounded=0;" parent="1" vertex="1">
          <mxGeometry x="34.5" y="670" width="210" height="70" as="geometry" />
        </mxCell>
        <mxCell id="AcXJn_AeSf_NBsKi_YKP-302" value="" style="rounded=0;whiteSpace=wrap;html=1;fillColor=#D4C9A9;strokeColor=#d6b656;" parent="1" vertex="1">
          <mxGeometry x="79.5" y="760" width="30" height="30" as="geometry" />
        </mxCell>
        <mxCell id="AcXJn_AeSf_NBsKi_YKP-303" value="" style="rounded=0;whiteSpace=wrap;html=1;fillColor=#fff2cc;strokeColor=#d6b656;" parent="1" vertex="1">
          <mxGeometry x="109.5" y="760" width="30" height="30" as="geometry" />
        </mxCell>
        <mxCell id="AcXJn_AeSf_NBsKi_YKP-304" value="" style="rounded=0;whiteSpace=wrap;html=1;fillColor=#fff2cc;strokeColor=#d6b656;" parent="1" vertex="1">
          <mxGeometry x="139.5" y="760" width="30" height="30" as="geometry" />
        </mxCell>
        <mxCell id="AcXJn_AeSf_NBsKi_YKP-305" value="" style="rounded=0;whiteSpace=wrap;html=1;fillColor=#fff2cc;strokeColor=#d6b656;" parent="1" vertex="1">
          <mxGeometry x="169.5" y="760" width="30" height="30" as="geometry" />
        </mxCell>
        <mxCell id="AcXJn_AeSf_NBsKi_YKP-306" value="" style="rounded=0;whiteSpace=wrap;html=1;fillColor=#fff2cc;strokeColor=#d6b656;" parent="1" vertex="1">
          <mxGeometry x="79.5" y="790" width="30" height="30" as="geometry" />
        </mxCell>
        <mxCell id="AcXJn_AeSf_NBsKi_YKP-307" value="" style="rounded=0;whiteSpace=wrap;html=1;fillColor=#fff2cc;strokeColor=#d6b656;" parent="1" vertex="1">
          <mxGeometry x="109.5" y="790" width="30" height="30" as="geometry" />
        </mxCell>
        <mxCell id="AcXJn_AeSf_NBsKi_YKP-308" value="" style="rounded=0;whiteSpace=wrap;html=1;fillColor=#D4C9A9;strokeColor=#d6b656;" parent="1" vertex="1">
          <mxGeometry x="139.5" y="790" width="30" height="30" as="geometry" />
        </mxCell>
        <mxCell id="AcXJn_AeSf_NBsKi_YKP-309" value="" style="rounded=0;whiteSpace=wrap;html=1;fillColor=#fff2cc;strokeColor=#d6b656;" parent="1" vertex="1">
          <mxGeometry x="169.5" y="790" width="30" height="30" as="geometry" />
        </mxCell>
        <mxCell id="AcXJn_AeSf_NBsKi_YKP-310" value="" style="rounded=0;whiteSpace=wrap;html=1;fillColor=#fff2cc;strokeColor=#d6b656;" parent="1" vertex="1">
          <mxGeometry x="79.5" y="820" width="30" height="30" as="geometry" />
        </mxCell>
        <mxCell id="AcXJn_AeSf_NBsKi_YKP-311" value="" style="rounded=0;whiteSpace=wrap;html=1;fillColor=#D4C9A9;strokeColor=#d6b656;" parent="1" vertex="1">
          <mxGeometry x="109.5" y="820" width="30" height="30" as="geometry" />
        </mxCell>
        <mxCell id="AcXJn_AeSf_NBsKi_YKP-312" value="" style="rounded=0;whiteSpace=wrap;html=1;fillColor=#fff2cc;strokeColor=#d6b656;" parent="1" vertex="1">
          <mxGeometry x="139.5" y="820" width="30" height="30" as="geometry" />
        </mxCell>
        <mxCell id="AcXJn_AeSf_NBsKi_YKP-313" value="" style="rounded=0;whiteSpace=wrap;html=1;fillColor=#fff2cc;strokeColor=#d6b656;" parent="1" vertex="1">
          <mxGeometry x="169.5" y="820" width="30" height="30" as="geometry" />
        </mxCell>
        <mxCell id="AcXJn_AeSf_NBsKi_YKP-314" value="" style="rounded=0;whiteSpace=wrap;html=1;fillColor=#fff2cc;strokeColor=#d6b656;" parent="1" vertex="1">
          <mxGeometry x="79.5" y="850" width="30" height="30" as="geometry" />
        </mxCell>
        <mxCell id="AcXJn_AeSf_NBsKi_YKP-315" value="" style="rounded=0;whiteSpace=wrap;html=1;fillColor=#fff2cc;strokeColor=#d6b656;" parent="1" vertex="1">
          <mxGeometry x="109.5" y="850" width="30" height="30" as="geometry" />
        </mxCell>
        <mxCell id="AcXJn_AeSf_NBsKi_YKP-316" value="" style="rounded=0;whiteSpace=wrap;html=1;fillColor=#D4C9A9;strokeColor=#d6b656;" parent="1" vertex="1">
          <mxGeometry x="139.5" y="850" width="30" height="30" as="geometry" />
        </mxCell>
        <mxCell id="AcXJn_AeSf_NBsKi_YKP-317" value="" style="rounded=0;whiteSpace=wrap;html=1;fillColor=#D4C9A9;strokeColor=#d6b656;" parent="1" vertex="1">
          <mxGeometry x="169.5" y="850" width="30" height="30" as="geometry" />
        </mxCell>
        <mxCell id="AcXJn_AeSf_NBsKi_YKP-356" value="&lt;span style=&quot;font-size: 23px;&quot;&gt;weights at stage &lt;i&gt;w&lt;sub&gt;k&lt;/sub&gt;&lt;/i&gt;&lt;/span&gt;" style="text;html=1;strokeColor=none;fillColor=none;align=center;verticalAlign=middle;whiteSpace=wrap;rounded=0;" parent="1" vertex="1">
          <mxGeometry x="257.38" y="670" width="164.75" height="70" as="geometry" />
        </mxCell>
        <mxCell id="AcXJn_AeSf_NBsKi_YKP-357" value="" style="rounded=0;whiteSpace=wrap;html=1;fillColor=#FFD8A6;strokeColor=#d79b00;" parent="1" vertex="1">
          <mxGeometry x="279.75" y="760" width="120" height="120" as="geometry" />
        </mxCell>
        <mxCell id="AcXJn_AeSf_NBsKi_YKP-358" value="" style="rounded=0;whiteSpace=wrap;html=1;fillColor=#FFD8A6;strokeColor=#d79b00;" parent="1" vertex="1">
          <mxGeometry x="279.75" y="760" width="30" height="30" as="geometry" />
        </mxCell>
        <mxCell id="AcXJn_AeSf_NBsKi_YKP-359" value="" style="rounded=0;whiteSpace=wrap;html=1;fillColor=#CCAD85;strokeColor=#d79b00;" parent="1" vertex="1">
          <mxGeometry x="309.75" y="760" width="30" height="30" as="geometry" />
        </mxCell>
        <mxCell id="AcXJn_AeSf_NBsKi_YKP-360" value="" style="rounded=0;whiteSpace=wrap;html=1;fillColor=#FFD8A6;strokeColor=#d79b00;" parent="1" vertex="1">
          <mxGeometry x="339.75" y="760" width="30" height="30" as="geometry" />
        </mxCell>
        <mxCell id="AcXJn_AeSf_NBsKi_YKP-361" value="" style="rounded=0;whiteSpace=wrap;html=1;fillColor=#FFD8A6;strokeColor=#d79b00;" parent="1" vertex="1">
          <mxGeometry x="369.75" y="760" width="30" height="30" as="geometry" />
        </mxCell>
        <mxCell id="AcXJn_AeSf_NBsKi_YKP-362" value="" style="rounded=0;whiteSpace=wrap;html=1;fillColor=#FFD8A6;strokeColor=#d79b00;" parent="1" vertex="1">
          <mxGeometry x="279.75" y="790" width="30" height="30" as="geometry" />
        </mxCell>
        <mxCell id="AcXJn_AeSf_NBsKi_YKP-363" value="" style="rounded=0;whiteSpace=wrap;html=1;fillColor=#FFD8A6;strokeColor=#d79b00;" parent="1" vertex="1">
          <mxGeometry x="309.75" y="790" width="30" height="30" as="geometry" />
        </mxCell>
        <mxCell id="AcXJn_AeSf_NBsKi_YKP-364" value="" style="rounded=0;whiteSpace=wrap;html=1;fillColor=#FFD8A6;strokeColor=#d79b00;" parent="1" vertex="1">
          <mxGeometry x="339.75" y="790" width="30" height="30" as="geometry" />
        </mxCell>
        <mxCell id="AcXJn_AeSf_NBsKi_YKP-365" value="" style="rounded=0;whiteSpace=wrap;html=1;fillColor=#CCAD85;strokeColor=#d79b00;" parent="1" vertex="1">
          <mxGeometry x="369.75" y="790" width="30" height="30" as="geometry" />
        </mxCell>
        <mxCell id="AcXJn_AeSf_NBsKi_YKP-366" value="" style="rounded=0;whiteSpace=wrap;html=1;fillColor=#CCAD85;strokeColor=#d79b00;" parent="1" vertex="1">
          <mxGeometry x="279.75" y="820" width="30" height="30" as="geometry" />
        </mxCell>
        <mxCell id="AcXJn_AeSf_NBsKi_YKP-367" value="" style="rounded=0;whiteSpace=wrap;html=1;fillColor=#FFD8A6;strokeColor=#d79b00;" parent="1" vertex="1">
          <mxGeometry x="309.75" y="820" width="30" height="30" as="geometry" />
        </mxCell>
        <mxCell id="AcXJn_AeSf_NBsKi_YKP-368" value="" style="rounded=0;whiteSpace=wrap;html=1;fillColor=#CCAD85;strokeColor=#d79b00;" parent="1" vertex="1">
          <mxGeometry x="339.75" y="820" width="30" height="30" as="geometry" />
        </mxCell>
        <mxCell id="AcXJn_AeSf_NBsKi_YKP-369" value="" style="rounded=0;whiteSpace=wrap;html=1;fillColor=#FFD8A6;strokeColor=#d79b00;" parent="1" vertex="1">
          <mxGeometry x="369.75" y="820" width="30" height="30" as="geometry" />
        </mxCell>
        <mxCell id="AcXJn_AeSf_NBsKi_YKP-370" value="" style="rounded=0;whiteSpace=wrap;html=1;fillColor=#CCAD85;strokeColor=#d79b00;" parent="1" vertex="1">
          <mxGeometry x="279.75" y="850" width="30" height="30" as="geometry" />
        </mxCell>
        <mxCell id="AcXJn_AeSf_NBsKi_YKP-371" value="" style="rounded=0;whiteSpace=wrap;html=1;fillColor=#FFD8A6;strokeColor=#d79b00;" parent="1" vertex="1">
          <mxGeometry x="309.75" y="850" width="30" height="30" as="geometry" />
        </mxCell>
        <mxCell id="AcXJn_AeSf_NBsKi_YKP-372" value="" style="rounded=0;whiteSpace=wrap;html=1;fillColor=#FFD8A6;strokeColor=#d79b00;" parent="1" vertex="1">
          <mxGeometry x="339.75" y="850" width="30" height="30" as="geometry" />
        </mxCell>
        <mxCell id="AcXJn_AeSf_NBsKi_YKP-373" value="" style="rounded=0;whiteSpace=wrap;html=1;fillColor=#FFD8A6;strokeColor=#d79b00;" parent="1" vertex="1">
          <mxGeometry x="369.75" y="850" width="30" height="30" as="geometry" />
        </mxCell>
        <mxCell id="AcXJn_AeSf_NBsKi_YKP-391" value="" style="rounded=0;whiteSpace=wrap;html=1;fillColor=#000000;strokeColor=none;" parent="1" vertex="1">
          <mxGeometry x="880" y="1070" width="30" height="30" as="geometry" />
        </mxCell>
        <mxCell id="AcXJn_AeSf_NBsKi_YKP-392" value="&lt;span style=&quot;font-size: 23px;&quot;&gt;pruned weight&lt;/span&gt;" style="text;html=1;strokeColor=none;fillColor=none;align=left;verticalAlign=middle;whiteSpace=wrap;rounded=0;" parent="1" vertex="1">
          <mxGeometry x="920" y="1050" width="210" height="70" as="geometry" />
        </mxCell>
        <mxCell id="AcXJn_AeSf_NBsKi_YKP-456" value="" style="edgeStyle=orthogonalEdgeStyle;rounded=0;orthogonalLoop=1;jettySize=auto;html=1;entryX=0;entryY=1;entryDx=0;entryDy=0;strokeWidth=4;" parent="1" target="AcXJn_AeSf_NBsKi_YKP-462" edge="1">
          <mxGeometry relative="1" as="geometry">
            <mxPoint x="340.25" y="960" as="targetPoint" />
            <mxPoint x="400" y="820" as="sourcePoint" />
            <Array as="points">
              <mxPoint x="460" y="820" />
              <mxPoint x="460" y="820" />
            </Array>
          </mxGeometry>
        </mxCell>
        <mxCell id="AcXJn_AeSf_NBsKi_YKP-457" value="" style="rounded=0;whiteSpace=wrap;html=1;fillColor=#FFD8A6;strokeColor=#d79b00;" parent="1" vertex="1">
          <mxGeometry x="479.75" y="760" width="120" height="120" as="geometry" />
        </mxCell>
        <mxCell id="AcXJn_AeSf_NBsKi_YKP-458" value="" style="rounded=0;whiteSpace=wrap;html=1;fillColor=#FFD8A6;strokeColor=#d79b00;" parent="1" vertex="1">
          <mxGeometry x="479.75" y="760" width="30" height="30" as="geometry" />
        </mxCell>
        <mxCell id="AcXJn_AeSf_NBsKi_YKP-459" value="" style="rounded=0;whiteSpace=wrap;html=1;fillColor=#CCAD85;strokeColor=#d79b00;" parent="1" vertex="1">
          <mxGeometry x="509.75" y="760" width="30" height="30" as="geometry" />
        </mxCell>
        <mxCell id="AcXJn_AeSf_NBsKi_YKP-460" value="" style="rounded=0;whiteSpace=wrap;html=1;fillColor=#FFD8A6;strokeColor=#d79b00;" parent="1" vertex="1">
          <mxGeometry x="539.75" y="760" width="30" height="30" as="geometry" />
        </mxCell>
        <mxCell id="AcXJn_AeSf_NBsKi_YKP-461" value="" style="rounded=0;whiteSpace=wrap;html=1;fillColor=#000000;strokeColor=#d79b00;" parent="1" vertex="1">
          <mxGeometry x="569.75" y="760" width="30" height="30" as="geometry" />
        </mxCell>
        <mxCell id="AcXJn_AeSf_NBsKi_YKP-462" value="" style="rounded=0;whiteSpace=wrap;html=1;fillColor=#FFD8A6;strokeColor=#d79b00;" parent="1" vertex="1">
          <mxGeometry x="479.75" y="790" width="30" height="30" as="geometry" />
        </mxCell>
        <mxCell id="AcXJn_AeSf_NBsKi_YKP-463" value="" style="rounded=0;whiteSpace=wrap;html=1;fillColor=#FFD8A6;strokeColor=#d79b00;" parent="1" vertex="1">
          <mxGeometry x="509.75" y="790" width="30" height="30" as="geometry" />
        </mxCell>
        <mxCell id="AcXJn_AeSf_NBsKi_YKP-464" value="" style="rounded=0;whiteSpace=wrap;html=1;fillColor=#FFD8A6;strokeColor=#d79b00;" parent="1" vertex="1">
          <mxGeometry x="539.75" y="790" width="30" height="30" as="geometry" />
        </mxCell>
        <mxCell id="AcXJn_AeSf_NBsKi_YKP-465" value="" style="rounded=0;whiteSpace=wrap;html=1;fillColor=#CCAD85;strokeColor=#d79b00;" parent="1" vertex="1">
          <mxGeometry x="569.75" y="790" width="30" height="30" as="geometry" />
        </mxCell>
        <mxCell id="AcXJn_AeSf_NBsKi_YKP-466" value="" style="rounded=0;whiteSpace=wrap;html=1;fillColor=#CCAD85;strokeColor=#d79b00;" parent="1" vertex="1">
          <mxGeometry x="479.75" y="820" width="30" height="30" as="geometry" />
        </mxCell>
        <mxCell id="AcXJn_AeSf_NBsKi_YKP-467" value="" style="rounded=0;whiteSpace=wrap;html=1;fillColor=#000000;strokeColor=#d79b00;" parent="1" vertex="1">
          <mxGeometry x="509.75" y="820" width="30" height="30" as="geometry" />
        </mxCell>
        <mxCell id="AcXJn_AeSf_NBsKi_YKP-468" value="" style="rounded=0;whiteSpace=wrap;html=1;fillColor=#CCAD85;strokeColor=#d79b00;" parent="1" vertex="1">
          <mxGeometry x="539.75" y="820" width="30" height="30" as="geometry" />
        </mxCell>
        <mxCell id="AcXJn_AeSf_NBsKi_YKP-469" value="" style="rounded=0;whiteSpace=wrap;html=1;fillColor=#FFD8A6;strokeColor=#d79b00;" parent="1" vertex="1">
          <mxGeometry x="569.75" y="820" width="30" height="30" as="geometry" />
        </mxCell>
        <mxCell id="AcXJn_AeSf_NBsKi_YKP-470" value="" style="rounded=0;whiteSpace=wrap;html=1;fillColor=#CCAD85;strokeColor=#d79b00;" parent="1" vertex="1">
          <mxGeometry x="479.75" y="850" width="30" height="30" as="geometry" />
        </mxCell>
        <mxCell id="AcXJn_AeSf_NBsKi_YKP-471" value="" style="rounded=0;whiteSpace=wrap;html=1;fillColor=#FFD8A6;strokeColor=#d79b00;" parent="1" vertex="1">
          <mxGeometry x="509.75" y="850" width="30" height="30" as="geometry" />
        </mxCell>
        <mxCell id="AcXJn_AeSf_NBsKi_YKP-472" value="" style="rounded=0;whiteSpace=wrap;html=1;fillColor=#FFD8A6;strokeColor=#d79b00;" parent="1" vertex="1">
          <mxGeometry x="539.75" y="850" width="30" height="30" as="geometry" />
        </mxCell>
        <mxCell id="AcXJn_AeSf_NBsKi_YKP-473" value="" style="rounded=0;whiteSpace=wrap;html=1;fillColor=#FFD8A6;strokeColor=#d79b00;" parent="1" vertex="1">
          <mxGeometry x="569.75" y="850" width="30" height="30" as="geometry" />
        </mxCell>
        <mxCell id="AcXJn_AeSf_NBsKi_YKP-474" value="&lt;span style=&quot;font-size: 23px;&quot;&gt;magnitude pruning&lt;/span&gt;" style="text;html=1;strokeColor=none;fillColor=none;align=center;verticalAlign=middle;whiteSpace=wrap;rounded=0;" parent="1" vertex="1">
          <mxGeometry x="452.5" y="680" width="175" height="70" as="geometry" />
        </mxCell>
        <mxCell id="AcXJn_AeSf_NBsKi_YKP-476" value="" style="rounded=0;whiteSpace=wrap;html=1;fillColor=#FFD8A6;strokeColor=#d79b00;" parent="1" vertex="1">
          <mxGeometry x="279.75" y="1000" width="120" height="120" as="geometry" />
        </mxCell>
        <mxCell id="AcXJn_AeSf_NBsKi_YKP-477" value="" style="rounded=0;whiteSpace=wrap;html=1;fillColor=#C4A3A2;strokeColor=#d79b00;" parent="1" vertex="1">
          <mxGeometry x="279.75" y="1000" width="30" height="30" as="geometry" />
        </mxCell>
        <mxCell id="AcXJn_AeSf_NBsKi_YKP-478" value="" style="rounded=0;whiteSpace=wrap;html=1;fillColor=#CCAD85;strokeColor=#d79b00;" parent="1" vertex="1">
          <mxGeometry x="309.75" y="1000" width="30" height="30" as="geometry" />
        </mxCell>
        <mxCell id="AcXJn_AeSf_NBsKi_YKP-479" value="" style="rounded=0;whiteSpace=wrap;html=1;fillColor=#EA6B66;strokeColor=#b85450;" parent="1" vertex="1">
          <mxGeometry x="339.75" y="1000" width="30" height="30" as="geometry" />
        </mxCell>
        <mxCell id="AcXJn_AeSf_NBsKi_YKP-480" value="" style="rounded=0;whiteSpace=wrap;html=1;fillColor=#000000;strokeColor=#d79b00;" parent="1" vertex="1">
          <mxGeometry x="369.75" y="1000" width="30" height="30" as="geometry" />
        </mxCell>
        <mxCell id="AcXJn_AeSf_NBsKi_YKP-481" value="" style="rounded=0;whiteSpace=wrap;html=1;fillColor=#FFD8A6;strokeColor=#d79b00;" parent="1" vertex="1">
          <mxGeometry x="279.75" y="1030" width="30" height="30" as="geometry" />
        </mxCell>
        <mxCell id="AcXJn_AeSf_NBsKi_YKP-482" value="" style="rounded=0;whiteSpace=wrap;html=1;fillColor=#C4A3A2;strokeColor=#d79b00;" parent="1" vertex="1">
          <mxGeometry x="309.75" y="1030" width="30" height="30" as="geometry" />
        </mxCell>
        <mxCell id="AcXJn_AeSf_NBsKi_YKP-483" value="" style="rounded=0;whiteSpace=wrap;html=1;fillColor=#FFD8A6;strokeColor=#d79b00;" parent="1" vertex="1">
          <mxGeometry x="339.75" y="1030" width="30" height="30" as="geometry" />
        </mxCell>
        <mxCell id="AcXJn_AeSf_NBsKi_YKP-484" value="" style="rounded=0;whiteSpace=wrap;html=1;fillColor=#EA6B66;strokeColor=#d79b00;" parent="1" vertex="1">
          <mxGeometry x="369.75" y="1030" width="30" height="30" as="geometry" />
        </mxCell>
        <mxCell id="AcXJn_AeSf_NBsKi_YKP-485" value="" style="rounded=0;whiteSpace=wrap;html=1;fillColor=#CCAD85;strokeColor=#d79b00;" parent="1" vertex="1">
          <mxGeometry x="279.75" y="1060" width="30" height="30" as="geometry" />
        </mxCell>
        <mxCell id="AcXJn_AeSf_NBsKi_YKP-486" value="" style="rounded=0;whiteSpace=wrap;html=1;fillColor=#000000;strokeColor=#d79b00;" parent="1" vertex="1">
          <mxGeometry x="309.75" y="1060" width="30" height="30" as="geometry" />
        </mxCell>
        <mxCell id="AcXJn_AeSf_NBsKi_YKP-487" value="" style="rounded=0;whiteSpace=wrap;html=1;fillColor=#EA6B66;strokeColor=#d79b00;" parent="1" vertex="1">
          <mxGeometry x="339.75" y="1060" width="30" height="30" as="geometry" />
        </mxCell>
        <mxCell id="AcXJn_AeSf_NBsKi_YKP-488" value="" style="rounded=0;whiteSpace=wrap;html=1;fillColor=#C4A3A2;strokeColor=#b85450;" parent="1" vertex="1">
          <mxGeometry x="369.75" y="1060" width="30" height="30" as="geometry" />
        </mxCell>
        <mxCell id="AcXJn_AeSf_NBsKi_YKP-489" value="" style="rounded=0;whiteSpace=wrap;html=1;fillColor=#CCAD85;strokeColor=#d79b00;" parent="1" vertex="1">
          <mxGeometry x="279.75" y="1090" width="30" height="30" as="geometry" />
        </mxCell>
        <mxCell id="AcXJn_AeSf_NBsKi_YKP-490" value="" style="rounded=0;whiteSpace=wrap;html=1;fillColor=#FFD8A6;strokeColor=#d79b00;" parent="1" vertex="1">
          <mxGeometry x="309.75" y="1090" width="30" height="30" as="geometry" />
        </mxCell>
        <mxCell id="AcXJn_AeSf_NBsKi_YKP-491" value="" style="rounded=0;whiteSpace=wrap;html=1;fillColor=#FFD8A6;strokeColor=#d79b00;" parent="1" vertex="1">
          <mxGeometry x="339.75" y="1090" width="30" height="30" as="geometry" />
        </mxCell>
        <mxCell id="AcXJn_AeSf_NBsKi_YKP-492" value="" style="rounded=0;whiteSpace=wrap;html=1;fillColor=#FFD8A6;strokeColor=#d79b00;" parent="1" vertex="1">
          <mxGeometry x="369.75" y="1090" width="30" height="30" as="geometry" />
        </mxCell>
        <mxCell id="AcXJn_AeSf_NBsKi_YKP-493" value="" style="endArrow=classic;html=1;rounded=0;exitX=0;exitY=1;exitDx=0;exitDy=0;entryX=0;entryY=0;entryDx=0;entryDy=0;strokeWidth=4;" parent="1" source="AcXJn_AeSf_NBsKi_YKP-472" target="AcXJn_AeSf_NBsKi_YKP-479" edge="1">
          <mxGeometry width="50" height="50" relative="1" as="geometry">
            <mxPoint x="450" y="890" as="sourcePoint" />
            <mxPoint x="500" y="840" as="targetPoint" />
            <Array as="points">
              <mxPoint x="540" y="920" />
              <mxPoint x="340" y="920" />
            </Array>
          </mxGeometry>
        </mxCell>
        <mxCell id="AcXJn_AeSf_NBsKi_YKP-494" value="&lt;span style=&quot;font-size: 23px;&quot;&gt;weights at stage &lt;/span&gt;&lt;i style=&quot;&quot;&gt;&lt;span style=&quot;font-size: 23px;&quot;&gt;w&lt;/span&gt;&lt;span style=&quot;font-size: 19.1667px;&quot;&gt;&lt;sub&gt;2k&lt;/sub&gt;&lt;/span&gt;&lt;/i&gt;" style="text;html=1;strokeColor=none;fillColor=none;align=center;verticalAlign=middle;whiteSpace=wrap;rounded=0;" parent="1" vertex="1">
          <mxGeometry x="85.25" y="1025" width="164.75" height="70" as="geometry" />
        </mxCell>
        <mxCell id="AcXJn_AeSf_NBsKi_YKP-495" value="" style="rounded=0;whiteSpace=wrap;html=1;fillColor=#FFD8A6;strokeColor=#d79b00;" parent="1" vertex="1">
          <mxGeometry x="479.75" y="1000" width="120" height="120" as="geometry" />
        </mxCell>
        <mxCell id="AcXJn_AeSf_NBsKi_YKP-496" value="" style="rounded=0;whiteSpace=wrap;html=1;fillColor=#FFD8A6;strokeColor=#d79b00;" parent="1" vertex="1">
          <mxGeometry x="479.75" y="1000" width="30" height="30" as="geometry" />
        </mxCell>
        <mxCell id="AcXJn_AeSf_NBsKi_YKP-497" value="" style="rounded=0;whiteSpace=wrap;html=1;fillColor=#000000;strokeColor=#d79b00;" parent="1" vertex="1">
          <mxGeometry x="509.75" y="1000" width="30" height="30" as="geometry" />
        </mxCell>
        <mxCell id="AcXJn_AeSf_NBsKi_YKP-498" value="" style="rounded=0;whiteSpace=wrap;html=1;fillColor=#EA6B66;strokeColor=#b85450;" parent="1" vertex="1">
          <mxGeometry x="539.75" y="1000" width="30" height="30" as="geometry" />
        </mxCell>
        <mxCell id="AcXJn_AeSf_NBsKi_YKP-499" value="" style="rounded=0;whiteSpace=wrap;html=1;fillColor=#000000;strokeColor=#d79b00;" parent="1" vertex="1">
          <mxGeometry x="569.75" y="1000" width="30" height="30" as="geometry" />
        </mxCell>
        <mxCell id="AcXJn_AeSf_NBsKi_YKP-500" value="" style="rounded=0;whiteSpace=wrap;html=1;fillColor=#FFD8A6;strokeColor=#d79b00;" parent="1" vertex="1">
          <mxGeometry x="479.75" y="1030" width="30" height="30" as="geometry" />
        </mxCell>
        <mxCell id="AcXJn_AeSf_NBsKi_YKP-501" value="" style="rounded=0;whiteSpace=wrap;html=1;fillColor=#FFD8A6;strokeColor=#d79b00;" parent="1" vertex="1">
          <mxGeometry x="509.75" y="1030" width="30" height="30" as="geometry" />
        </mxCell>
        <mxCell id="AcXJn_AeSf_NBsKi_YKP-502" value="" style="rounded=0;whiteSpace=wrap;html=1;fillColor=#FFD8A6;strokeColor=#d79b00;" parent="1" vertex="1">
          <mxGeometry x="539.75" y="1030" width="30" height="30" as="geometry" />
        </mxCell>
        <mxCell id="AcXJn_AeSf_NBsKi_YKP-503" value="" style="rounded=0;whiteSpace=wrap;html=1;fillColor=#EA6B66;strokeColor=#d79b00;" parent="1" vertex="1">
          <mxGeometry x="569.75" y="1030" width="30" height="30" as="geometry" />
        </mxCell>
        <mxCell id="AcXJn_AeSf_NBsKi_YKP-504" value="" style="rounded=0;whiteSpace=wrap;html=1;fillColor=#CCAD85;strokeColor=#d79b00;" parent="1" vertex="1">
          <mxGeometry x="479.75" y="1060" width="30" height="30" as="geometry" />
        </mxCell>
        <mxCell id="AcXJn_AeSf_NBsKi_YKP-505" value="" style="rounded=0;whiteSpace=wrap;html=1;fillColor=#000000;strokeColor=#d79b00;" parent="1" vertex="1">
          <mxGeometry x="509.75" y="1060" width="30" height="30" as="geometry" />
        </mxCell>
        <mxCell id="AcXJn_AeSf_NBsKi_YKP-506" value="" style="rounded=0;whiteSpace=wrap;html=1;fillColor=#EA6B66;strokeColor=#d79b00;" parent="1" vertex="1">
          <mxGeometry x="539.75" y="1060" width="30" height="30" as="geometry" />
        </mxCell>
        <mxCell id="AcXJn_AeSf_NBsKi_YKP-507" value="" style="rounded=0;whiteSpace=wrap;html=1;fillColor=#f8cecc;strokeColor=#b85450;" parent="1" vertex="1">
          <mxGeometry x="569.75" y="1060" width="30" height="30" as="geometry" />
        </mxCell>
        <mxCell id="AcXJn_AeSf_NBsKi_YKP-508" value="" style="rounded=0;whiteSpace=wrap;html=1;fillColor=#CCAD85;strokeColor=#d79b00;" parent="1" vertex="1">
          <mxGeometry x="479.75" y="1090" width="30" height="30" as="geometry" />
        </mxCell>
        <mxCell id="AcXJn_AeSf_NBsKi_YKP-509" value="" style="rounded=0;whiteSpace=wrap;html=1;fillColor=#000000;strokeColor=#d79b00;" parent="1" vertex="1">
          <mxGeometry x="509.75" y="1090" width="30" height="30" as="geometry" />
        </mxCell>
        <mxCell id="AcXJn_AeSf_NBsKi_YKP-510" value="" style="rounded=0;whiteSpace=wrap;html=1;fillColor=#FFD8A6;strokeColor=#d79b00;" parent="1" vertex="1">
          <mxGeometry x="539.75" y="1090" width="30" height="30" as="geometry" />
        </mxCell>
        <mxCell id="AcXJn_AeSf_NBsKi_YKP-511" value="" style="rounded=0;whiteSpace=wrap;html=1;fillColor=#FFD8A6;strokeColor=#d79b00;" parent="1" vertex="1">
          <mxGeometry x="569.75" y="1090" width="30" height="30" as="geometry" />
        </mxCell>
        <mxCell id="AcXJn_AeSf_NBsKi_YKP-512" value="" style="endArrow=classic;html=1;rounded=0;exitX=1;exitY=1;exitDx=0;exitDy=0;entryX=0;entryY=0;entryDx=0;entryDy=0;strokeWidth=4;" parent="1" source="AcXJn_AeSf_NBsKi_YKP-484" target="AcXJn_AeSf_NBsKi_YKP-504" edge="1">
          <mxGeometry width="50" height="50" relative="1" as="geometry">
            <mxPoint x="710" y="950" as="sourcePoint" />
            <mxPoint x="760" y="900" as="targetPoint" />
          </mxGeometry>
        </mxCell>
        <mxCell id="AcXJn_AeSf_NBsKi_YKP-513" value="" style="endArrow=classic;html=1;rounded=0;exitX=0;exitY=1;exitDx=0;exitDy=0;entryX=0;entryY=0;entryDx=0;entryDy=0;strokeWidth=4;" parent="1" edge="1">
          <mxGeometry width="50" height="50" relative="1" as="geometry">
            <mxPoint x="539.75" y="1120" as="sourcePoint" />
            <mxPoint x="339.75" y="1240" as="targetPoint" />
            <Array as="points">
              <mxPoint x="539.75" y="1160" />
              <mxPoint x="339.75" y="1160" />
            </Array>
          </mxGeometry>
        </mxCell>
        <mxCell id="AcXJn_AeSf_NBsKi_YKP-514" value="" style="rounded=0;whiteSpace=wrap;html=1;fillColor=#C4A3A2;strokeColor=#d79b00;" parent="1" vertex="1">
          <mxGeometry x="480" y="1000" width="30" height="30" as="geometry" />
        </mxCell>
        <mxCell id="AcXJn_AeSf_NBsKi_YKP-515" value="" style="rounded=0;whiteSpace=wrap;html=1;fillColor=#C4A3A2;strokeColor=#d79b00;" parent="1" vertex="1">
          <mxGeometry x="510" y="1030" width="30" height="30" as="geometry" />
        </mxCell>
        <mxCell id="AcXJn_AeSf_NBsKi_YKP-516" value="" style="rounded=0;whiteSpace=wrap;html=1;fillColor=#C4A3A2;strokeColor=#b85450;" parent="1" vertex="1">
          <mxGeometry x="570" y="1060" width="30" height="30" as="geometry" />
        </mxCell>
        <mxCell id="AcXJn_AeSf_NBsKi_YKP-517" value="" style="rounded=0;whiteSpace=wrap;html=1;fillColor=#FFD8A6;strokeColor=#d79b00;" parent="1" vertex="1">
          <mxGeometry x="280" y="1240" width="120" height="120" as="geometry" />
        </mxCell>
        <mxCell id="AcXJn_AeSf_NBsKi_YKP-518" value="" style="rounded=0;whiteSpace=wrap;html=1;fillColor=#FFD8A6;strokeColor=#d79b00;" parent="1" vertex="1">
          <mxGeometry x="280" y="1240" width="30" height="30" as="geometry" />
        </mxCell>
        <mxCell id="AcXJn_AeSf_NBsKi_YKP-519" value="" style="rounded=0;whiteSpace=wrap;html=1;fillColor=#000000;strokeColor=#d79b00;" parent="1" vertex="1">
          <mxGeometry x="310" y="1240" width="30" height="30" as="geometry" />
        </mxCell>
        <mxCell id="AcXJn_AeSf_NBsKi_YKP-520" value="" style="rounded=0;whiteSpace=wrap;html=1;fillColor=#EA6B66;strokeColor=#b85450;" parent="1" vertex="1">
          <mxGeometry x="340" y="1240" width="30" height="30" as="geometry" />
        </mxCell>
        <mxCell id="AcXJn_AeSf_NBsKi_YKP-521" value="" style="rounded=0;whiteSpace=wrap;html=1;fillColor=#000000;strokeColor=#d79b00;" parent="1" vertex="1">
          <mxGeometry x="370" y="1240" width="30" height="30" as="geometry" />
        </mxCell>
        <mxCell id="AcXJn_AeSf_NBsKi_YKP-522" value="" style="rounded=0;whiteSpace=wrap;html=1;fillColor=#FFD8A6;strokeColor=#d79b00;" parent="1" vertex="1">
          <mxGeometry x="280" y="1270" width="30" height="30" as="geometry" />
        </mxCell>
        <mxCell id="AcXJn_AeSf_NBsKi_YKP-523" value="" style="rounded=0;whiteSpace=wrap;html=1;fillColor=#FFD8A6;strokeColor=#d79b00;" parent="1" vertex="1">
          <mxGeometry x="310" y="1270" width="30" height="30" as="geometry" />
        </mxCell>
        <mxCell id="AcXJn_AeSf_NBsKi_YKP-524" value="" style="rounded=0;whiteSpace=wrap;html=1;fillColor=#FFD8A6;strokeColor=#d79b00;" parent="1" vertex="1">
          <mxGeometry x="340" y="1270" width="30" height="30" as="geometry" />
        </mxCell>
        <mxCell id="AcXJn_AeSf_NBsKi_YKP-525" value="" style="rounded=0;whiteSpace=wrap;html=1;fillColor=#EA6B66;strokeColor=#d79b00;" parent="1" vertex="1">
          <mxGeometry x="370" y="1270" width="30" height="30" as="geometry" />
        </mxCell>
        <mxCell id="AcXJn_AeSf_NBsKi_YKP-526" value="" style="rounded=0;whiteSpace=wrap;html=1;fillColor=#CCAD85;strokeColor=#d79b00;" parent="1" vertex="1">
          <mxGeometry x="280" y="1300" width="30" height="30" as="geometry" />
        </mxCell>
        <mxCell id="AcXJn_AeSf_NBsKi_YKP-527" value="" style="rounded=0;whiteSpace=wrap;html=1;fillColor=#000000;strokeColor=#d79b00;" parent="1" vertex="1">
          <mxGeometry x="310" y="1300" width="30" height="30" as="geometry" />
        </mxCell>
        <mxCell id="AcXJn_AeSf_NBsKi_YKP-528" value="" style="rounded=0;whiteSpace=wrap;html=1;fillColor=#EA6B66;strokeColor=#d79b00;" parent="1" vertex="1">
          <mxGeometry x="340" y="1300" width="30" height="30" as="geometry" />
        </mxCell>
        <mxCell id="AcXJn_AeSf_NBsKi_YKP-529" value="" style="rounded=0;whiteSpace=wrap;html=1;fillColor=#f8cecc;strokeColor=#b85450;" parent="1" vertex="1">
          <mxGeometry x="370" y="1300" width="30" height="30" as="geometry" />
        </mxCell>
        <mxCell id="AcXJn_AeSf_NBsKi_YKP-530" value="" style="rounded=0;whiteSpace=wrap;html=1;fillColor=#EA6B66;strokeColor=#d79b00;" parent="1" vertex="1">
          <mxGeometry x="280" y="1330" width="30" height="30" as="geometry" />
        </mxCell>
        <mxCell id="AcXJn_AeSf_NBsKi_YKP-531" value="" style="rounded=0;whiteSpace=wrap;html=1;fillColor=#000000;strokeColor=#d79b00;" parent="1" vertex="1">
          <mxGeometry x="310" y="1330" width="30" height="30" as="geometry" />
        </mxCell>
        <mxCell id="AcXJn_AeSf_NBsKi_YKP-532" value="" style="rounded=0;whiteSpace=wrap;html=1;fillColor=#FFD8A6;strokeColor=#d79b00;" parent="1" vertex="1">
          <mxGeometry x="340" y="1330" width="30" height="30" as="geometry" />
        </mxCell>
        <mxCell id="AcXJn_AeSf_NBsKi_YKP-533" value="" style="rounded=0;whiteSpace=wrap;html=1;fillColor=#C4A3A2;strokeColor=#d79b00;" parent="1" vertex="1">
          <mxGeometry x="370" y="1330" width="30" height="30" as="geometry" />
        </mxCell>
        <mxCell id="AcXJn_AeSf_NBsKi_YKP-534" value="" style="rounded=0;whiteSpace=wrap;html=1;fillColor=#C4A3A2;strokeColor=#d79b00;" parent="1" vertex="1">
          <mxGeometry x="280.25" y="1240" width="30" height="30" as="geometry" />
        </mxCell>
        <mxCell id="AcXJn_AeSf_NBsKi_YKP-535" value="" style="rounded=0;whiteSpace=wrap;html=1;fillColor=#C4A3A2;strokeColor=#d79b00;" parent="1" vertex="1">
          <mxGeometry x="310.25" y="1270" width="30" height="30" as="geometry" />
        </mxCell>
        <mxCell id="AcXJn_AeSf_NBsKi_YKP-536" value="" style="rounded=0;whiteSpace=wrap;html=1;fillColor=#C4A3A2;strokeColor=#b85450;" parent="1" vertex="1">
          <mxGeometry x="370.25" y="1300" width="30" height="30" as="geometry" />
        </mxCell>
        <mxCell id="AcXJn_AeSf_NBsKi_YKP-537" value="&lt;span style=&quot;font-size: 23px;&quot;&gt;weights at stage &lt;/span&gt;&lt;i style=&quot;&quot;&gt;&lt;span style=&quot;font-size: 23px;&quot;&gt;w&lt;sub&gt;3&lt;/sub&gt;&lt;/span&gt;&lt;span style=&quot;font-size: 19.1667px;&quot;&gt;&lt;sub&gt;k&lt;/sub&gt;&lt;/span&gt;&lt;/i&gt;" style="text;html=1;strokeColor=none;fillColor=none;align=center;verticalAlign=middle;whiteSpace=wrap;rounded=0;" parent="1" vertex="1">
          <mxGeometry x="92.63" y="1250" width="164.75" height="70" as="geometry" />
        </mxCell>
        <mxCell id="AcXJn_AeSf_NBsKi_YKP-538" value="" style="endArrow=classic;html=1;rounded=0;exitX=1;exitY=1;exitDx=0;exitDy=0;entryX=0;entryY=0;entryDx=0;entryDy=0;strokeWidth=4;" parent="1" edge="1">
          <mxGeometry width="50" height="50" relative="1" as="geometry">
            <mxPoint x="399.75" y="1300" as="sourcePoint" />
            <mxPoint x="479.75" y="1300" as="targetPoint" />
          </mxGeometry>
        </mxCell>
        <mxCell id="AcXJn_AeSf_NBsKi_YKP-539" value="&lt;font style=&quot;font-size: 50px;&quot;&gt;...&lt;/font&gt;" style="text;html=1;strokeColor=none;fillColor=none;align=center;verticalAlign=middle;whiteSpace=wrap;rounded=0;" parent="1" vertex="1">
          <mxGeometry x="510.5" y="1277.5" width="60" height="15" as="geometry" />
        </mxCell>
        <mxCell id="AcXJn_AeSf_NBsKi_YKP-540" value="" style="endArrow=classic;html=1;rounded=0;exitX=1;exitY=1;exitDx=0;exitDy=0;strokeWidth=4;" parent="1" edge="1">
          <mxGeometry width="50" height="50" relative="1" as="geometry">
            <mxPoint x="600" y="1300" as="sourcePoint" />
            <mxPoint x="740" y="880" as="targetPoint" />
            <Array as="points">
              <mxPoint x="740" y="1300" />
            </Array>
          </mxGeometry>
        </mxCell>
        <mxCell id="AcXJn_AeSf_NBsKi_YKP-541" value="" style="rounded=0;whiteSpace=wrap;html=1;fillColor=#f8cecc;strokeColor=#b85450;" parent="1" vertex="1">
          <mxGeometry x="679.75" y="760" width="120" height="120" as="geometry" />
        </mxCell>
        <mxCell id="AcXJn_AeSf_NBsKi_YKP-542" value="" style="rounded=0;whiteSpace=wrap;html=1;fillColor=#f8cecc;strokeColor=#b85450;" parent="1" vertex="1">
          <mxGeometry x="679.75" y="760" width="120" height="120" as="geometry" />
        </mxCell>
        <mxCell id="AcXJn_AeSf_NBsKi_YKP-543" value="" style="rounded=0;whiteSpace=wrap;html=1;fillColor=#C4A3A2;strokeColor=#b85450;" parent="1" vertex="1">
          <mxGeometry x="679.75" y="760" width="30" height="30" as="geometry" />
        </mxCell>
        <mxCell id="AcXJn_AeSf_NBsKi_YKP-544" value="" style="rounded=0;whiteSpace=wrap;html=1;fillColor=default;strokeColor=#b85450;gradientColor=none;" parent="1" vertex="1">
          <mxGeometry x="709.75" y="760" width="30" height="30" as="geometry" />
        </mxCell>
        <mxCell id="AcXJn_AeSf_NBsKi_YKP-545" value="" style="rounded=0;whiteSpace=wrap;html=1;fillColor=#EA6B66;strokeColor=#b85450;" parent="1" vertex="1">
          <mxGeometry x="739.75" y="760" width="30" height="30" as="geometry" />
        </mxCell>
        <mxCell id="AcXJn_AeSf_NBsKi_YKP-546" value="" style="rounded=0;whiteSpace=wrap;html=1;fillColor=#000000;strokeColor=#b85450;gradientColor=none;" parent="1" vertex="1">
          <mxGeometry x="769.75" y="760" width="30" height="30" as="geometry" />
        </mxCell>
        <mxCell id="AcXJn_AeSf_NBsKi_YKP-547" value="" style="rounded=0;whiteSpace=wrap;html=1;fillColor=default;strokeColor=#b85450;gradientColor=none;" parent="1" vertex="1">
          <mxGeometry x="679.75" y="790" width="30" height="30" as="geometry" />
        </mxCell>
        <mxCell id="AcXJn_AeSf_NBsKi_YKP-548" value="" style="rounded=0;whiteSpace=wrap;html=1;fillColor=#C4A3A2;strokeColor=#b85450;" parent="1" vertex="1">
          <mxGeometry x="739.75" y="790" width="30" height="30" as="geometry" />
        </mxCell>
        <mxCell id="AcXJn_AeSf_NBsKi_YKP-549" value="" style="rounded=0;whiteSpace=wrap;html=1;fillColor=#EA6B66;strokeColor=#b85450;" parent="1" vertex="1">
          <mxGeometry x="769.75" y="790" width="30" height="30" as="geometry" />
        </mxCell>
        <mxCell id="AcXJn_AeSf_NBsKi_YKP-550" value="" style="rounded=0;whiteSpace=wrap;html=1;fillColor=#C4A3A2;strokeColor=#b85450;" parent="1" vertex="1">
          <mxGeometry x="679.75" y="820" width="30" height="30" as="geometry" />
        </mxCell>
        <mxCell id="AcXJn_AeSf_NBsKi_YKP-551" value="" style="rounded=0;whiteSpace=wrap;html=1;fillColor=default;strokeColor=#b85450;gradientColor=none;" parent="1" vertex="1">
          <mxGeometry x="709.75" y="820" width="30" height="30" as="geometry" />
        </mxCell>
        <mxCell id="AcXJn_AeSf_NBsKi_YKP-552" value="" style="rounded=0;whiteSpace=wrap;html=1;fillColor=#EA6B66;strokeColor=#b85450;" parent="1" vertex="1">
          <mxGeometry x="739.75" y="820" width="30" height="30" as="geometry" />
        </mxCell>
        <mxCell id="AcXJn_AeSf_NBsKi_YKP-553" value="" style="rounded=0;whiteSpace=wrap;html=1;fillColor=#C4A3A2;strokeColor=#b85450;" parent="1" vertex="1">
          <mxGeometry x="769.75" y="820" width="30" height="30" as="geometry" />
        </mxCell>
        <mxCell id="AcXJn_AeSf_NBsKi_YKP-554" value="" style="rounded=0;whiteSpace=wrap;html=1;fillColor=#EA6B66;strokeColor=#b85450;" parent="1" vertex="1">
          <mxGeometry x="679.75" y="850" width="30" height="30" as="geometry" />
        </mxCell>
        <mxCell id="AcXJn_AeSf_NBsKi_YKP-555" value="" style="rounded=0;whiteSpace=wrap;html=1;fillColor=default;strokeColor=#b85450;gradientColor=none;" parent="1" vertex="1">
          <mxGeometry x="709.75" y="850" width="30" height="30" as="geometry" />
        </mxCell>
        <mxCell id="AcXJn_AeSf_NBsKi_YKP-556" value="" style="rounded=0;whiteSpace=wrap;html=1;fillColor=default;strokeColor=#b85450;gradientColor=none;" parent="1" vertex="1">
          <mxGeometry x="739.75" y="850" width="30" height="30" as="geometry" />
        </mxCell>
        <mxCell id="AcXJn_AeSf_NBsKi_YKP-557" value="" style="rounded=0;whiteSpace=wrap;html=1;fillColor=#C4A3A2;strokeColor=#b85450;" parent="1" vertex="1">
          <mxGeometry x="769.75" y="850" width="30" height="30" as="geometry" />
        </mxCell>
        <mxCell id="AcXJn_AeSf_NBsKi_YKP-558" value="" style="rounded=0;whiteSpace=wrap;html=1;fillColor=#C4A3A2;strokeColor=#b85450;" parent="1" vertex="1">
          <mxGeometry x="709.75" y="790" width="30" height="30" as="geometry" />
        </mxCell>
        <mxCell id="AcXJn_AeSf_NBsKi_YKP-559" value="" style="rounded=0;whiteSpace=wrap;html=1;fillColor=#000000;strokeColor=#b85450;gradientColor=none;" parent="1" vertex="1">
          <mxGeometry x="739.75" y="850" width="30" height="30" as="geometry" />
        </mxCell>
        <mxCell id="AcXJn_AeSf_NBsKi_YKP-560" value="" style="rounded=0;whiteSpace=wrap;html=1;fillColor=#000000;strokeColor=#b85450;gradientColor=none;" parent="1" vertex="1">
          <mxGeometry x="709.75" y="850" width="30" height="30" as="geometry" />
        </mxCell>
        <mxCell id="AcXJn_AeSf_NBsKi_YKP-561" value="" style="rounded=0;whiteSpace=wrap;html=1;fillColor=#000000;strokeColor=#b85450;gradientColor=none;" parent="1" vertex="1">
          <mxGeometry x="709.75" y="820" width="30" height="30" as="geometry" />
        </mxCell>
        <mxCell id="AcXJn_AeSf_NBsKi_YKP-562" value="" style="rounded=0;whiteSpace=wrap;html=1;fillColor=#000000;strokeColor=#b85450;gradientColor=none;" parent="1" vertex="1">
          <mxGeometry x="679.75" y="790" width="30" height="30" as="geometry" />
        </mxCell>
        <mxCell id="AcXJn_AeSf_NBsKi_YKP-563" value="" style="rounded=0;whiteSpace=wrap;html=1;fillColor=#000000;strokeColor=#b85450;gradientColor=none;" parent="1" vertex="1">
          <mxGeometry x="709.75" y="760" width="30" height="30" as="geometry" />
        </mxCell>
        <mxCell id="AcXJn_AeSf_NBsKi_YKP-564" value="&lt;span style=&quot;font-size: 23px;&quot;&gt;trained and iteratively pruned weights&lt;/span&gt;" style="text;html=1;strokeColor=none;fillColor=none;align=center;verticalAlign=middle;whiteSpace=wrap;rounded=0;" parent="1" vertex="1">
          <mxGeometry x="626" y="670" width="228" height="70" as="geometry" />
        </mxCell>
        <mxCell id="AcXJn_AeSf_NBsKi_YKP-565" value="&lt;span style=&quot;font-size: 23px;&quot;&gt;magnitude pruning&lt;/span&gt;" style="text;html=1;strokeColor=none;fillColor=none;align=center;verticalAlign=middle;whiteSpace=wrap;rounded=0;" parent="1" vertex="1">
          <mxGeometry x="451" y="930" width="175" height="70" as="geometry" />
        </mxCell>
        <mxCell id="AcXJn_AeSf_NBsKi_YKP-566" value="&lt;span style=&quot;font-size: 23px;&quot;&gt;repeat&lt;/span&gt;" style="text;html=1;strokeColor=none;fillColor=none;align=center;verticalAlign=middle;whiteSpace=wrap;rounded=0;" parent="1" vertex="1">
          <mxGeometry x="453" y="1207.5" width="175" height="70" as="geometry" />
        </mxCell>
        <mxCell id="AcXJn_AeSf_NBsKi_YKP-567" value="" style="rounded=0;whiteSpace=wrap;html=1;fillColor=#fff2cc;strokeColor=#d6b656;" parent="1" vertex="1">
          <mxGeometry x="879.75" y="760" width="120" height="120" as="geometry" />
        </mxCell>
        <mxCell id="AcXJn_AeSf_NBsKi_YKP-568" value="&lt;span style=&quot;font-size: 23px;&quot;&gt;weights rewinded to &lt;i&gt;w&lt;sub&gt;0&lt;/sub&gt;&lt;/i&gt;&amp;nbsp;&lt;/span&gt;" style="text;html=1;strokeColor=none;fillColor=none;align=center;verticalAlign=middle;whiteSpace=wrap;rounded=0;" parent="1" vertex="1">
          <mxGeometry x="852.25" y="670" width="175" height="70" as="geometry" />
        </mxCell>
        <mxCell id="AcXJn_AeSf_NBsKi_YKP-569" value="" style="rounded=0;whiteSpace=wrap;html=1;fillColor=#fff2cc;strokeColor=#d6b656;" parent="1" vertex="1">
          <mxGeometry x="879.75" y="760" width="120" height="120" as="geometry" />
        </mxCell>
        <mxCell id="AcXJn_AeSf_NBsKi_YKP-570" value="" style="rounded=0;whiteSpace=wrap;html=1;fillColor=#D4C9A9;strokeColor=#d6b656;" parent="1" vertex="1">
          <mxGeometry x="879.75" y="760" width="30" height="30" as="geometry" />
        </mxCell>
        <mxCell id="AcXJn_AeSf_NBsKi_YKP-571" value="" style="rounded=0;whiteSpace=wrap;html=1;fillColor=#000000;strokeColor=#d6b656;" parent="1" vertex="1">
          <mxGeometry x="909.75" y="760" width="30" height="30" as="geometry" />
        </mxCell>
        <mxCell id="AcXJn_AeSf_NBsKi_YKP-572" value="" style="rounded=0;whiteSpace=wrap;html=1;fillColor=#fff2cc;strokeColor=#d6b656;" parent="1" vertex="1">
          <mxGeometry x="939.75" y="760" width="30" height="30" as="geometry" />
        </mxCell>
        <mxCell id="AcXJn_AeSf_NBsKi_YKP-573" value="" style="rounded=0;whiteSpace=wrap;html=1;fillColor=#000000;strokeColor=#d6b656;" parent="1" vertex="1">
          <mxGeometry x="969.75" y="760" width="30" height="30" as="geometry" />
        </mxCell>
        <mxCell id="AcXJn_AeSf_NBsKi_YKP-574" value="" style="rounded=0;whiteSpace=wrap;html=1;fillColor=#000000;strokeColor=#d6b656;" parent="1" vertex="1">
          <mxGeometry x="879.75" y="790" width="30" height="30" as="geometry" />
        </mxCell>
        <mxCell id="AcXJn_AeSf_NBsKi_YKP-575" value="" style="rounded=0;whiteSpace=wrap;html=1;fillColor=#fff2cc;strokeColor=#d6b656;" parent="1" vertex="1">
          <mxGeometry x="909.75" y="790" width="30" height="30" as="geometry" />
        </mxCell>
        <mxCell id="AcXJn_AeSf_NBsKi_YKP-576" value="" style="rounded=0;whiteSpace=wrap;html=1;fillColor=#D4C9A9;strokeColor=#d6b656;" parent="1" vertex="1">
          <mxGeometry x="939.75" y="790" width="30" height="30" as="geometry" />
        </mxCell>
        <mxCell id="AcXJn_AeSf_NBsKi_YKP-577" value="" style="rounded=0;whiteSpace=wrap;html=1;fillColor=#fff2cc;strokeColor=#d6b656;" parent="1" vertex="1">
          <mxGeometry x="969.75" y="790" width="30" height="30" as="geometry" />
        </mxCell>
        <mxCell id="AcXJn_AeSf_NBsKi_YKP-578" value="" style="rounded=0;whiteSpace=wrap;html=1;fillColor=#fff2cc;strokeColor=#d6b656;" parent="1" vertex="1">
          <mxGeometry x="879.75" y="820" width="30" height="30" as="geometry" />
        </mxCell>
        <mxCell id="AcXJn_AeSf_NBsKi_YKP-579" value="" style="rounded=0;whiteSpace=wrap;html=1;fillColor=#000000;strokeColor=#d6b656;" parent="1" vertex="1">
          <mxGeometry x="909.75" y="820" width="30" height="30" as="geometry" />
        </mxCell>
        <mxCell id="AcXJn_AeSf_NBsKi_YKP-580" value="" style="rounded=0;whiteSpace=wrap;html=1;fillColor=#fff2cc;strokeColor=#d6b656;" parent="1" vertex="1">
          <mxGeometry x="939.75" y="820" width="30" height="30" as="geometry" />
        </mxCell>
        <mxCell id="AcXJn_AeSf_NBsKi_YKP-581" value="" style="rounded=0;whiteSpace=wrap;html=1;fillColor=#fff2cc;strokeColor=#d6b656;" parent="1" vertex="1">
          <mxGeometry x="969.75" y="820" width="30" height="30" as="geometry" />
        </mxCell>
        <mxCell id="AcXJn_AeSf_NBsKi_YKP-582" value="" style="rounded=0;whiteSpace=wrap;html=1;fillColor=#fff2cc;strokeColor=#d6b656;" parent="1" vertex="1">
          <mxGeometry x="879.75" y="850" width="30" height="30" as="geometry" />
        </mxCell>
        <mxCell id="AcXJn_AeSf_NBsKi_YKP-583" value="" style="rounded=0;whiteSpace=wrap;html=1;fillColor=#000000;strokeColor=#d6b656;" parent="1" vertex="1">
          <mxGeometry x="909.75" y="850" width="30" height="30" as="geometry" />
        </mxCell>
        <mxCell id="AcXJn_AeSf_NBsKi_YKP-584" value="" style="rounded=0;whiteSpace=wrap;html=1;fillColor=#000000;strokeColor=#d6b656;" parent="1" vertex="1">
          <mxGeometry x="939.75" y="850" width="30" height="30" as="geometry" />
        </mxCell>
        <mxCell id="AcXJn_AeSf_NBsKi_YKP-585" value="" style="rounded=0;whiteSpace=wrap;html=1;fillColor=#D4C9A9;strokeColor=#d6b656;" parent="1" vertex="1">
          <mxGeometry x="969.75" y="850" width="30" height="30" as="geometry" />
        </mxCell>
        <mxCell id="AcXJn_AeSf_NBsKi_YKP-586" value="" style="edgeStyle=orthogonalEdgeStyle;rounded=0;orthogonalLoop=1;jettySize=auto;html=1;strokeWidth=4;" parent="1" edge="1">
          <mxGeometry relative="1" as="geometry">
            <mxPoint x="799.75" y="819.44" as="sourcePoint" />
            <mxPoint x="879.5" y="819.44" as="targetPoint" />
          </mxGeometry>
        </mxCell>
        <mxCell id="AcXJn_AeSf_NBsKi_YKP-587" value="&lt;font color=&quot;#004c99&quot; style=&quot;font-size: 23px;&quot;&gt;LT with &lt;b&gt;original values&lt;/b&gt;&lt;/font&gt;" style="text;html=1;strokeColor=none;fillColor=none;align=right;verticalAlign=middle;whiteSpace=wrap;rounded=0;" parent="1" vertex="1">
          <mxGeometry x="-130" y="195" width="180" height="125" as="geometry" />
        </mxCell>
        <mxCell id="AcXJn_AeSf_NBsKi_YKP-591" style="edgeStyle=orthogonalEdgeStyle;rounded=0;orthogonalLoop=1;jettySize=auto;html=1;entryX=1;entryY=0;entryDx=0;entryDy=0;" parent="1" source="AcXJn_AeSf_NBsKi_YKP-590" target="AcXJn_AeSf_NBsKi_YKP-111" edge="1">
          <mxGeometry relative="1" as="geometry">
            <Array as="points">
              <mxPoint x="1070" y="539" />
              <mxPoint x="1070" y="260" />
            </Array>
          </mxGeometry>
        </mxCell>
        <mxCell id="AcXJn_AeSf_NBsKi_YKP-592" style="edgeStyle=orthogonalEdgeStyle;rounded=0;orthogonalLoop=1;jettySize=auto;html=1;" parent="1" source="AcXJn_AeSf_NBsKi_YKP-590" edge="1">
          <mxGeometry relative="1" as="geometry">
            <mxPoint x="1000" y="539" as="targetPoint" />
          </mxGeometry>
        </mxCell>
        <mxCell id="AcXJn_AeSf_NBsKi_YKP-593" style="edgeStyle=orthogonalEdgeStyle;rounded=0;orthogonalLoop=1;jettySize=auto;html=1;entryX=1;entryY=0;entryDx=0;entryDy=0;" parent="1" source="AcXJn_AeSf_NBsKi_YKP-590" target="AcXJn_AeSf_NBsKi_YKP-581" edge="1">
          <mxGeometry relative="1" as="geometry">
            <Array as="points">
              <mxPoint x="1070" y="539" />
              <mxPoint x="1070" y="820" />
            </Array>
          </mxGeometry>
        </mxCell>
        <mxCell id="AcXJn_AeSf_NBsKi_YKP-590" value="&lt;font style=&quot;font-size: 40px;&quot;&gt;Lottery Tickets&lt;/font&gt;" style="text;html=1;strokeColor=none;fillColor=none;align=center;verticalAlign=middle;whiteSpace=wrap;rounded=0;" parent="1" vertex="1">
          <mxGeometry x="1100" y="524" width="130" height="30" as="geometry" />
        </mxCell>
        <mxCell id="AcXJn_AeSf_NBsKi_YKP-594" value="&lt;font color=&quot;#004c99&quot; style=&quot;font-size: 23px;&quot;&gt;LT with &lt;b&gt;early stage&amp;nbsp;values&lt;/b&gt;&lt;/font&gt;" style="text;html=1;strokeColor=none;fillColor=none;align=right;verticalAlign=middle;whiteSpace=wrap;rounded=0;" parent="1" vertex="1">
          <mxGeometry x="-190" y="476.5" width="230" height="125" as="geometry" />
        </mxCell>
        <mxCell id="AcXJn_AeSf_NBsKi_YKP-595" value="&lt;font color=&quot;#004c99&quot; style=&quot;font-size: 23px;&quot;&gt;LT with &lt;b&gt;iterative magnitude pruning&lt;/b&gt;&lt;/font&gt;" style="text;html=1;strokeColor=none;fillColor=none;align=right;verticalAlign=middle;whiteSpace=wrap;rounded=0;" parent="1" vertex="1">
          <mxGeometry x="-195" y="757.5" width="230" height="125" as="geometry" />
        </mxCell>
      </root>
    </mxGraphModel>
  </diagram>
  <diagram id="DvW8hD1dcInDSpE22AdS" name="Page-3">
    <mxGraphModel dx="1434" dy="843" grid="1" gridSize="10" guides="1" tooltips="1" connect="1" arrows="1" fold="1" page="1" pageScale="1" pageWidth="827" pageHeight="1169" math="0" shadow="0">
      <root>
        <mxCell id="0" />
        <mxCell id="1" parent="0" />
        <mxCell id="SkKMWgMhtnZwaJyurDy7-4" value="" style="edgeStyle=orthogonalEdgeStyle;rounded=0;orthogonalLoop=1;jettySize=auto;html=1;strokeWidth=2;snapToPoint=0;comic=0;shadow=0;" edge="1" parent="1" source="SkKMWgMhtnZwaJyurDy7-2" target="SkKMWgMhtnZwaJyurDy7-3">
          <mxGeometry relative="1" as="geometry" />
        </mxCell>
        <mxCell id="SkKMWgMhtnZwaJyurDy7-2" value="&lt;font style=&quot;font-size: 25px;&quot;&gt;Initialise weights&lt;/font&gt;" style="whiteSpace=wrap;html=1;aspect=fixed;strokeWidth=2;snapToPoint=0;comic=0;shadow=0;" vertex="1" parent="1">
          <mxGeometry x="200" y="240" width="110" height="110" as="geometry" />
        </mxCell>
        <mxCell id="SkKMWgMhtnZwaJyurDy7-6" value="" style="edgeStyle=orthogonalEdgeStyle;rounded=0;orthogonalLoop=1;jettySize=auto;html=1;strokeWidth=2;snapToPoint=0;comic=0;shadow=0;" edge="1" parent="1" source="SkKMWgMhtnZwaJyurDy7-3" target="SkKMWgMhtnZwaJyurDy7-5">
          <mxGeometry relative="1" as="geometry" />
        </mxCell>
        <mxCell id="SkKMWgMhtnZwaJyurDy7-3" value="&lt;font style=&quot;font-size: 25px;&quot;&gt;Train&amp;nbsp;&lt;/font&gt;" style="whiteSpace=wrap;html=1;aspect=fixed;strokeWidth=2;snapToPoint=0;comic=0;shadow=0;fillColor=#fff2cc;strokeColor=#d6b656;" vertex="1" parent="1">
          <mxGeometry x="390" y="240" width="110" height="110" as="geometry" />
        </mxCell>
        <mxCell id="SkKMWgMhtnZwaJyurDy7-8" value="" style="edgeStyle=orthogonalEdgeStyle;rounded=0;orthogonalLoop=1;jettySize=auto;html=1;strokeWidth=2;snapToPoint=0;comic=0;shadow=0;" edge="1" parent="1" source="SkKMWgMhtnZwaJyurDy7-5" target="SkKMWgMhtnZwaJyurDy7-7">
          <mxGeometry relative="1" as="geometry" />
        </mxCell>
        <mxCell id="SkKMWgMhtnZwaJyurDy7-5" value="&lt;font style=&quot;font-size: 25px;&quot;&gt;Prune&lt;/font&gt;" style="whiteSpace=wrap;html=1;aspect=fixed;strokeWidth=2;snapToPoint=0;comic=0;shadow=0;fillColor=#e1d5e7;strokeColor=#9673a6;" vertex="1" parent="1">
          <mxGeometry x="580" y="240" width="110" height="110" as="geometry" />
        </mxCell>
        <mxCell id="SkKMWgMhtnZwaJyurDy7-7" value="&lt;font style=&quot;font-size: 25px;&quot;&gt;Fine-tune&lt;/font&gt;" style="whiteSpace=wrap;html=1;aspect=fixed;strokeWidth=2;snapToPoint=0;comic=0;shadow=0;fillColor=#ffe6cc;strokeColor=#d79b00;" vertex="1" parent="1">
          <mxGeometry x="770" y="240" width="110" height="110" as="geometry" />
        </mxCell>
        <mxCell id="SkKMWgMhtnZwaJyurDy7-11" value="" style="edgeStyle=orthogonalEdgeStyle;rounded=0;orthogonalLoop=1;jettySize=auto;html=1;strokeWidth=2;" edge="1" parent="1" source="SkKMWgMhtnZwaJyurDy7-9" target="SkKMWgMhtnZwaJyurDy7-10">
          <mxGeometry relative="1" as="geometry" />
        </mxCell>
        <mxCell id="SkKMWgMhtnZwaJyurDy7-9" value="&lt;font style=&quot;font-size: 25px;&quot;&gt;Initialise weights&lt;/font&gt;" style="whiteSpace=wrap;html=1;aspect=fixed;strokeWidth=2;snapToPoint=0;comic=0;shadow=0;" vertex="1" parent="1">
          <mxGeometry x="200" y="490" width="110" height="110" as="geometry" />
        </mxCell>
        <mxCell id="SkKMWgMhtnZwaJyurDy7-13" value="" style="edgeStyle=orthogonalEdgeStyle;rounded=0;orthogonalLoop=1;jettySize=auto;html=1;strokeWidth=2;" edge="1" parent="1" source="SkKMWgMhtnZwaJyurDy7-10" target="SkKMWgMhtnZwaJyurDy7-12">
          <mxGeometry relative="1" as="geometry" />
        </mxCell>
        <mxCell id="SkKMWgMhtnZwaJyurDy7-10" value="&lt;font style=&quot;font-size: 25px;&quot;&gt;Prune&lt;/font&gt;" style="whiteSpace=wrap;html=1;aspect=fixed;strokeWidth=2;snapToPoint=0;comic=0;shadow=0;fillColor=#e1d5e7;strokeColor=#9673a6;" vertex="1" parent="1">
          <mxGeometry x="390" y="490" width="110" height="110" as="geometry" />
        </mxCell>
        <mxCell id="SkKMWgMhtnZwaJyurDy7-12" value="&lt;font style=&quot;font-size: 25px;&quot;&gt;Train&lt;/font&gt;" style="whiteSpace=wrap;html=1;aspect=fixed;strokeWidth=2;snapToPoint=0;comic=0;shadow=0;fillColor=#fff2cc;strokeColor=#d6b656;" vertex="1" parent="1">
          <mxGeometry x="770" y="490" width="110" height="110" as="geometry" />
        </mxCell>
        <mxCell id="SkKMWgMhtnZwaJyurDy7-14" value="&lt;font style=&quot;font-size: 25px;&quot;&gt;Standard train - prune - finetune pipeline&lt;/font&gt;" style="text;html=1;strokeColor=none;fillColor=none;align=left;verticalAlign=middle;whiteSpace=wrap;rounded=0;" vertex="1" parent="1">
          <mxGeometry x="190" y="160" width="470" height="30" as="geometry" />
        </mxCell>
        <mxCell id="SkKMWgMhtnZwaJyurDy7-15" value="&lt;font style=&quot;font-size: 25px;&quot;&gt;Pruning at initialisation pipeline&lt;/font&gt;" style="text;html=1;strokeColor=none;fillColor=none;align=left;verticalAlign=middle;whiteSpace=wrap;rounded=0;" vertex="1" parent="1">
          <mxGeometry x="190" y="440" width="470" height="30" as="geometry" />
        </mxCell>
      </root>
    </mxGraphModel>
  </diagram>
</mxfile>
